<svg xmlns="http://www.w3.org/2000/svg" xmlns:xlink="http://www.w3.org/1999/xlink" width="1152" zoomAndPan="magnify" viewBox="0 0 864 253.499997" height="338" preserveAspectRatio="xMidYMid meet" version="1.0"><defs><g/><clipPath id="da8a24a455"><path d="M 0.851562 0 L 863 0 L 863 252.578125 L 0.851562 252.578125 Z M 0.851562 0 " clip-rule="nonzero"/></clipPath><clipPath id="5ad3ee4680"><path d="M 33.035156 0 L 830.683594 0 C 848.460938 0 862.871094 14.410156 862.871094 32.1875 L 862.871094 220.390625 C 862.871094 238.167969 848.460938 252.578125 830.683594 252.578125 L 33.035156 252.578125 C 15.261719 252.578125 0.851562 238.167969 0.851562 220.390625 L 0.851562 32.1875 C 0.851562 14.410156 15.261719 0 33.035156 0 Z M 33.035156 0 " clip-rule="nonzero"/></clipPath><clipPath id="92e5e4f043"><path d="M 0.851562 0 L 862.910156 0 L 862.910156 252.578125 L 0.851562 252.578125 Z M 0.851562 0 " clip-rule="nonzero"/></clipPath><clipPath id="cd441ce8c1"><path d="M 33.035156 0 L 830.683594 0 C 848.460938 0 862.871094 14.410156 862.871094 32.1875 L 862.871094 220.390625 C 862.871094 238.167969 848.460938 252.578125 830.683594 252.578125 L 33.035156 252.578125 C 15.261719 252.578125 0.851562 238.167969 0.851562 220.390625 L 0.851562 32.1875 C 0.851562 14.410156 15.261719 0 33.035156 0 Z M 33.035156 0 " clip-rule="nonzero"/></clipPath><clipPath id="8e86f0f57f"><rect x="0" width="863" y="0" height="253"/></clipPath><clipPath id="c593ca0c93"><path d="M 271.121094 26.824219 L 862.964844 26.824219 L 862.964844 103.464844 L 271.121094 103.464844 Z M 271.121094 26.824219 " clip-rule="nonzero"/></clipPath><clipPath id="384d014527"><path d="M 309.4375 26.824219 L 824.550781 26.824219 C 834.714844 26.824219 844.460938 30.863281 851.648438 38.050781 C 858.832031 45.234375 862.871094 54.980469 862.871094 65.144531 C 862.871094 75.308594 858.832031 85.054688 851.648438 92.238281 C 844.460938 99.425781 834.714844 103.464844 824.550781 103.464844 L 309.4375 103.464844 C 299.277344 103.464844 289.527344 99.425781 282.34375 92.238281 C 275.15625 85.054688 271.121094 75.308594 271.121094 65.144531 C 271.121094 54.980469 275.15625 45.234375 282.34375 38.050781 C 289.527344 30.863281 299.277344 26.824219 309.4375 26.824219 Z M 309.4375 26.824219 " clip-rule="nonzero"/></clipPath><clipPath id="164f621eed"><path d="M 0.121094 0.824219 L 591.910156 0.824219 L 591.910156 77.464844 L 0.121094 77.464844 Z M 0.121094 0.824219 " clip-rule="nonzero"/></clipPath><clipPath id="c896b39079"><path d="M 38.4375 0.824219 L 553.550781 0.824219 C 563.714844 0.824219 573.460938 4.863281 580.648438 12.050781 C 587.832031 19.234375 591.871094 28.980469 591.871094 39.144531 C 591.871094 49.308594 587.832031 59.054688 580.648438 66.238281 C 573.460938 73.425781 563.714844 77.464844 553.550781 77.464844 L 38.4375 77.464844 C 28.277344 77.464844 18.527344 73.425781 11.34375 66.238281 C 4.15625 59.054688 0.121094 49.308594 0.121094 39.144531 C 0.121094 28.980469 4.15625 19.234375 11.34375 12.050781 C 18.527344 4.863281 28.277344 0.824219 38.4375 0.824219 Z M 38.4375 0.824219 " clip-rule="nonzero"/></clipPath><clipPath id="2a1d464833"><rect x="0" width="592" y="0" height="78"/></clipPath><clipPath id="484f6cd506"><path d="M 36.667969 28.777344 L 230.535156 28.777344 L 230.535156 215.90625 L 36.667969 215.90625 Z M 36.667969 28.777344 " clip-rule="nonzero"/></clipPath><clipPath id="df1a9e25a0"><rect x="0" width="530" y="0" height="109"/></clipPath><clipPath id="0248921805"><rect x="0" width="47" y="0" height="88"/></clipPath></defs><g clip-path="url(#da8a24a455)"><g clip-path="url(#5ad3ee4680)"><g transform="matrix(1, 0, 0, 1, 0, 0)"><g clip-path="url(#8e86f0f57f)"><g clip-path="url(#92e5e4f043)"><g clip-path="url(#cd441ce8c1)"><path fill="#0a457b" d="M 0.851562 0 L 863.164062 0 L 863.164062 252.578125 L 0.851562 252.578125 Z M 0.851562 0 " fill-opacity="1" fill-rule="nonzero"/></g></g></g></g></g></g><g clip-path="url(#c593ca0c93)"><g clip-path="url(#384d014527)"><g transform="matrix(1, 0, 0, 1, 271, 26)"><g clip-path="url(#2a1d464833)"><g clip-path="url(#164f621eed)"><g clip-path="url(#c896b39079)"><path fill="#68ab3d" d="M 0.121094 0.824219 L 591.964844 0.824219 L 591.964844 77.464844 L 0.121094 77.464844 Z M 0.121094 0.824219 " fill-opacity="1" fill-rule="nonzero"/></g></g></g></g></g></g><g clip-path="url(#484f6cd506)"><path fill="#ffffff" d="M 177.449219 60.414062 L 191.308594 46.554688 L 212.5 67.746094 L 198.59375 81.605469 C 204.453125 90.226562 208.597656 100.039062 210.644531 110.609375 L 230.21875 110.609375 L 230.21875 140.566406 L 210.644531 140.566406 C 210.453125 141.566406 210.214844 142.566406 209.976562 143.519531 C 206.785156 135.949219 199.308594 130.660156 190.546875 130.660156 C 188.832031 130.660156 187.164062 130.851562 185.546875 131.234375 C 185.785156 129.375 185.878906 127.519531 185.878906 125.566406 C 185.878906 117.136719 183.878906 109.132812 180.304688 102.085938 L 191.546875 102.085938 L 191.546875 83.605469 L 175.78125 83.605469 L 133.441406 57.746094 L 91.101562 83.605469 L 75.386719 83.605469 L 75.386719 102.085938 L 86.625 102.085938 C 83.054688 109.132812 81.054688 117.136719 81.054688 125.566406 C 81.054688 127.519531 81.148438 129.375 81.339844 131.234375 C 79.769531 130.851562 78.101562 130.660156 76.386719 130.660156 C 67.625 130.660156 60.144531 135.949219 56.90625 143.519531 C 56.71875 142.566406 56.480469 141.566406 56.289062 140.566406 L 36.667969 140.566406 L 36.667969 110.609375 L 56.289062 110.609375 C 58.335938 100.039062 62.480469 90.226562 68.289062 81.605469 L 54.429688 67.746094 L 75.625 46.554688 L 89.484375 60.414062 C 98.105469 54.601562 107.914062 50.460938 118.488281 48.410156 L 118.488281 28.789062 L 148.445312 28.789062 L 148.445312 48.410156 C 159.019531 50.460938 168.828125 54.601562 177.449219 60.414062 Z M 89.339844 208.71875 L 58.667969 208.71875 L 58.667969 199.242188 C 58.667969 197.910156 57.574219 196.8125 56.242188 196.8125 C 54.90625 196.8125 53.8125 197.910156 53.8125 199.242188 L 53.8125 208.71875 L 42.953125 208.71875 L 42.953125 203.527344 C 42.953125 187.667969 55.953125 174.667969 71.816406 174.667969 L 80.960938 174.667969 C 88.199219 174.667969 94.816406 177.382812 99.914062 181.8125 C 93.34375 188.765625 89.339844 198.148438 89.339844 208.386719 Z M 177.589844 208.71875 L 208.261719 208.71875 L 208.261719 199.242188 C 208.261719 197.910156 209.359375 196.8125 210.691406 196.8125 C 212.027344 196.8125 213.074219 197.910156 213.074219 199.242188 L 213.074219 208.71875 L 223.980469 208.71875 L 223.980469 203.527344 C 223.980469 187.667969 210.976562 174.667969 195.117188 174.667969 L 185.972656 174.667969 C 178.734375 174.667969 172.066406 177.382812 167.019531 181.8125 C 173.542969 188.765625 177.589844 198.148438 177.589844 208.386719 Z M 76.386719 135.472656 C 85.339844 135.472656 92.628906 142.757812 92.628906 151.757812 C 92.628906 160.714844 85.339844 168 76.386719 168 C 67.386719 168 60.097656 160.714844 60.097656 151.757812 C 60.097656 142.757812 67.386719 135.472656 76.386719 135.472656 Z M 190.546875 135.472656 C 181.546875 135.472656 174.304688 142.757812 174.304688 151.757812 C 174.304688 160.714844 181.546875 168 190.546875 168 C 199.546875 168 206.835938 160.714844 206.835938 151.757812 C 206.835938 142.757812 199.546875 135.472656 190.546875 135.472656 Z M 94.152344 215.53125 L 107.390625 215.53125 L 107.390625 202.957031 C 107.390625 201.625 108.4375 200.527344 109.773438 200.527344 C 111.152344 200.527344 112.203125 201.625 112.203125 202.957031 L 112.203125 215.53125 L 154.730469 215.53125 L 154.730469 202.957031 C 154.730469 201.625 155.777344 200.527344 157.113281 200.527344 C 158.445312 200.527344 159.542969 201.625 159.542969 202.957031 L 159.542969 215.53125 L 172.78125 215.53125 L 172.78125 208.386719 C 172.78125 189.71875 157.492188 174.476562 138.824219 174.476562 L 128.0625 174.476562 C 109.4375 174.476562 94.152344 189.71875 94.152344 208.386719 Z M 133.441406 128.421875 C 122.917969 128.421875 114.34375 136.949219 114.34375 147.519531 C 114.34375 158.09375 122.917969 166.667969 133.441406 166.667969 C 144.015625 166.667969 152.589844 158.09375 152.589844 147.519531 C 152.589844 136.949219 144.015625 128.421875 133.441406 128.421875 Z M 133.441406 128.421875 " fill-opacity="1" fill-rule="evenodd"/></g><path fill="#ffffff" d="M 133.441406 63.414062 L 174.449219 88.464844 L 186.734375 88.464844 L 186.734375 97.226562 L 80.195312 97.226562 L 80.195312 88.464844 L 92.484375 88.464844 Z M 159.828125 104.085938 L 174.449219 104.085938 L 174.449219 138.136719 C 171.304688 141.804688 169.449219 146.566406 169.449219 151.757812 C 169.449219 156.949219 171.304688 161.714844 174.449219 165.378906 L 174.449219 171.859375 C 170.589844 173.285156 166.972656 175.429688 163.828125 178.191406 L 163.445312 178.527344 C 162.304688 177.574219 161.066406 176.667969 159.828125 175.859375 Z M 126.15625 104.085938 L 140.777344 104.085938 L 140.777344 124.707031 C 138.492188 123.945312 136.015625 123.566406 133.441406 123.566406 C 130.917969 123.566406 128.441406 123.945312 126.15625 124.707031 Z M 92.484375 104.085938 L 107.105469 104.085938 L 107.105469 175.859375 C 105.867188 176.667969 104.628906 177.574219 103.484375 178.527344 L 103.105469 178.191406 C 99.960938 175.429688 96.34375 173.285156 92.484375 171.859375 L 92.484375 165.378906 C 95.582031 161.714844 97.484375 156.949219 97.484375 151.757812 C 97.484375 146.566406 95.582031 141.804688 92.484375 138.136719 Z M 112.441406 90.894531 C 111.105469 90.894531 110.011719 89.796875 110.011719 88.464844 C 110.011719 87.132812 111.105469 86.035156 112.441406 86.035156 L 154.492188 86.035156 C 155.828125 86.035156 156.921875 87.132812 156.921875 88.464844 C 156.921875 89.796875 155.828125 90.894531 154.492188 90.894531 Z M 112.441406 90.894531 " fill-opacity="1" fill-rule="evenodd"/><g transform="matrix(1, 0, 0, 1, 271, 117)"><g clip-path="url(#df1a9e25a0)"><g fill="#ffffff" fill-opacity="1"><g transform="translate(0.119574, 40.617862)"><g><path d="M 17.046875 0.484375 C 14.128906 0.484375 11.492188 -0.144531 9.140625 -1.40625 C 6.796875 -2.664062 4.953125 -4.414062 3.609375 -6.65625 C 2.265625 -8.90625 1.59375 -11.441406 1.59375 -14.265625 C 1.59375 -17.085938 2.265625 -19.617188 3.609375 -21.859375 C 4.953125 -24.109375 6.796875 -25.863281 9.140625 -27.125 C 11.492188 -28.394531 14.140625 -29.03125 17.078125 -29.03125 C 19.554688 -29.03125 21.789062 -28.59375 23.78125 -27.71875 C 25.78125 -26.851562 27.460938 -25.601562 28.828125 -23.96875 L 24.578125 -20.0625 C 22.648438 -22.289062 20.257812 -23.40625 17.40625 -23.40625 C 15.632812 -23.40625 14.054688 -23.015625 12.671875 -22.234375 C 11.285156 -21.460938 10.207031 -20.382812 9.4375 -19 C 8.664062 -17.613281 8.28125 -16.035156 8.28125 -14.265625 C 8.28125 -12.503906 8.664062 -10.925781 9.4375 -9.53125 C 10.207031 -8.144531 11.285156 -7.066406 12.671875 -6.296875 C 14.054688 -5.523438 15.632812 -5.140625 17.40625 -5.140625 C 20.257812 -5.140625 22.648438 -6.265625 24.578125 -8.515625 L 28.828125 -4.609375 C 27.460938 -2.953125 25.773438 -1.6875 23.765625 -0.8125 C 21.753906 0.0507812 19.515625 0.484375 17.046875 0.484375 Z M 17.046875 0.484375 "/></g></g></g><g fill="#ffffff" fill-opacity="1"><g transform="translate(29.82547, 40.617862)"><g><path d="M 11.78125 -22.265625 C 15.175781 -22.265625 17.785156 -21.453125 19.609375 -19.828125 C 21.429688 -18.210938 22.34375 -15.773438 22.34375 -12.515625 L 22.34375 0 L 16.390625 0 L 16.390625 -2.734375 C 15.191406 -0.691406 12.960938 0.328125 9.703125 0.328125 C 8.015625 0.328125 6.550781 0.0390625 5.3125 -0.53125 C 4.082031 -1.101562 3.140625 -1.890625 2.484375 -2.890625 C 1.835938 -3.898438 1.515625 -5.039062 1.515625 -6.3125 C 1.515625 -8.351562 2.28125 -9.957031 3.8125 -11.125 C 5.34375 -12.289062 7.710938 -12.875 10.921875 -12.875 L 15.984375 -12.875 C 15.984375 -14.269531 15.5625 -15.335938 14.71875 -16.078125 C 13.875 -16.828125 12.609375 -17.203125 10.921875 -17.203125 C 9.753906 -17.203125 8.601562 -17.019531 7.46875 -16.65625 C 6.34375 -16.289062 5.390625 -15.796875 4.609375 -15.171875 L 2.328125 -19.609375 C 3.523438 -20.453125 4.957031 -21.101562 6.625 -21.5625 C 8.289062 -22.03125 10.007812 -22.265625 11.78125 -22.265625 Z M 11.296875 -3.953125 C 12.378906 -3.953125 13.34375 -4.203125 14.1875 -4.703125 C 15.03125 -5.210938 15.628906 -5.957031 15.984375 -6.9375 L 15.984375 -9.171875 L 11.625 -9.171875 C 9.007812 -9.171875 7.703125 -8.316406 7.703125 -6.609375 C 7.703125 -5.785156 8.019531 -5.132812 8.65625 -4.65625 C 9.300781 -4.1875 10.179688 -3.953125 11.296875 -3.953125 Z M 11.296875 -3.953125 "/></g></g></g><g fill="#ffffff" fill-opacity="1"><g transform="translate(54.967551, 40.617862)"><g><path d="M 15.90625 -22.265625 C 17.9375 -22.265625 19.785156 -21.789062 21.453125 -20.84375 C 23.128906 -19.90625 24.441406 -18.585938 25.390625 -16.890625 C 26.347656 -15.191406 26.828125 -13.21875 26.828125 -10.96875 C 26.828125 -8.707031 26.347656 -6.726562 25.390625 -5.03125 C 24.441406 -3.332031 23.128906 -2.015625 21.453125 -1.078125 C 19.785156 -0.140625 17.9375 0.328125 15.90625 0.328125 C 13.101562 0.328125 10.898438 -0.554688 9.296875 -2.328125 L 9.296875 7.90625 L 2.9375 7.90625 L 2.9375 -21.9375 L 9.015625 -21.9375 L 9.015625 -19.40625 C 10.585938 -21.3125 12.882812 -22.265625 15.90625 -22.265625 Z M 14.796875 -4.890625 C 16.429688 -4.890625 17.769531 -5.4375 18.8125 -6.53125 C 19.851562 -7.632812 20.375 -9.113281 20.375 -10.96875 C 20.375 -12.8125 19.851562 -14.285156 18.8125 -15.390625 C 17.769531 -16.492188 16.429688 -17.046875 14.796875 -17.046875 C 13.171875 -17.046875 11.832031 -16.492188 10.78125 -15.390625 C 9.738281 -14.285156 9.21875 -12.8125 9.21875 -10.96875 C 9.21875 -9.113281 9.738281 -7.632812 10.78125 -6.53125 C 11.832031 -5.4375 13.171875 -4.890625 14.796875 -4.890625 Z M 14.796875 -4.890625 "/></g></g></g><g fill="#ffffff" fill-opacity="1"><g transform="translate(82.717416, 40.617862)"><g><path d="M 11.78125 -22.265625 C 15.175781 -22.265625 17.785156 -21.453125 19.609375 -19.828125 C 21.429688 -18.210938 22.34375 -15.773438 22.34375 -12.515625 L 22.34375 0 L 16.390625 0 L 16.390625 -2.734375 C 15.191406 -0.691406 12.960938 0.328125 9.703125 0.328125 C 8.015625 0.328125 6.550781 0.0390625 5.3125 -0.53125 C 4.082031 -1.101562 3.140625 -1.890625 2.484375 -2.890625 C 1.835938 -3.898438 1.515625 -5.039062 1.515625 -6.3125 C 1.515625 -8.351562 2.28125 -9.957031 3.8125 -11.125 C 5.34375 -12.289062 7.710938 -12.875 10.921875 -12.875 L 15.984375 -12.875 C 15.984375 -14.269531 15.5625 -15.335938 14.71875 -16.078125 C 13.875 -16.828125 12.609375 -17.203125 10.921875 -17.203125 C 9.753906 -17.203125 8.601562 -17.019531 7.46875 -16.65625 C 6.34375 -16.289062 5.390625 -15.796875 4.609375 -15.171875 L 2.328125 -19.609375 C 3.523438 -20.453125 4.957031 -21.101562 6.625 -21.5625 C 8.289062 -22.03125 10.007812 -22.265625 11.78125 -22.265625 Z M 11.296875 -3.953125 C 12.378906 -3.953125 13.34375 -4.203125 14.1875 -4.703125 C 15.03125 -5.210938 15.628906 -5.957031 15.984375 -6.9375 L 15.984375 -9.171875 L 11.625 -9.171875 C 9.007812 -9.171875 7.703125 -8.316406 7.703125 -6.609375 C 7.703125 -5.785156 8.019531 -5.132812 8.65625 -4.65625 C 9.300781 -4.1875 10.179688 -3.953125 11.296875 -3.953125 Z M 11.296875 -3.953125 "/></g></g></g><g fill="#ffffff" fill-opacity="1"><g transform="translate(107.859497, 40.617862)"><g><path d="M 2.9375 -21.9375 L 9.296875 -21.9375 L 9.296875 0 L 2.9375 0 Z M 6.109375 -24.984375 C 4.941406 -24.984375 3.988281 -25.320312 3.25 -26 C 2.519531 -26.6875 2.15625 -27.53125 2.15625 -28.53125 C 2.15625 -29.539062 2.519531 -30.382812 3.25 -31.0625 C 3.988281 -31.738281 4.941406 -32.078125 6.109375 -32.078125 C 7.273438 -32.078125 8.222656 -31.75 8.953125 -31.09375 C 9.691406 -30.445312 10.0625 -29.632812 10.0625 -28.65625 C 10.0625 -27.59375 9.691406 -26.710938 8.953125 -26.015625 C 8.222656 -25.328125 7.273438 -24.984375 6.109375 -24.984375 Z M 6.109375 -24.984375 "/></g></g></g><g fill="#ffffff" fill-opacity="1"><g transform="translate(120.124916, 40.617862)"><g><path d="M 11.78125 -22.265625 C 15.175781 -22.265625 17.785156 -21.453125 19.609375 -19.828125 C 21.429688 -18.210938 22.34375 -15.773438 22.34375 -12.515625 L 22.34375 0 L 16.390625 0 L 16.390625 -2.734375 C 15.191406 -0.691406 12.960938 0.328125 9.703125 0.328125 C 8.015625 0.328125 6.550781 0.0390625 5.3125 -0.53125 C 4.082031 -1.101562 3.140625 -1.890625 2.484375 -2.890625 C 1.835938 -3.898438 1.515625 -5.039062 1.515625 -6.3125 C 1.515625 -8.351562 2.28125 -9.957031 3.8125 -11.125 C 5.34375 -12.289062 7.710938 -12.875 10.921875 -12.875 L 15.984375 -12.875 C 15.984375 -14.269531 15.5625 -15.335938 14.71875 -16.078125 C 13.875 -16.828125 12.609375 -17.203125 10.921875 -17.203125 C 9.753906 -17.203125 8.601562 -17.019531 7.46875 -16.65625 C 6.34375 -16.289062 5.390625 -15.796875 4.609375 -15.171875 L 2.328125 -19.609375 C 3.523438 -20.453125 4.957031 -21.101562 6.625 -21.5625 C 8.289062 -22.03125 10.007812 -22.265625 11.78125 -22.265625 Z M 11.296875 -3.953125 C 12.378906 -3.953125 13.34375 -4.203125 14.1875 -4.703125 C 15.03125 -5.210938 15.628906 -5.957031 15.984375 -6.9375 L 15.984375 -9.171875 L 11.625 -9.171875 C 9.007812 -9.171875 7.703125 -8.316406 7.703125 -6.609375 C 7.703125 -5.785156 8.019531 -5.132812 8.65625 -4.65625 C 9.300781 -4.1875 10.179688 -3.953125 11.296875 -3.953125 Z M 11.296875 -3.953125 "/></g></g></g><g fill="#ffffff" fill-opacity="1"><g transform="translate(145.266997, 40.617862)"><g><path d="M 16.265625 -22.265625 C 18.984375 -22.265625 21.175781 -21.445312 22.84375 -19.8125 C 24.519531 -18.175781 25.359375 -15.757812 25.359375 -12.5625 L 25.359375 0 L 19 0 L 19 -11.578125 C 19 -13.316406 18.617188 -14.613281 17.859375 -15.46875 C 17.097656 -16.320312 15.992188 -16.75 14.546875 -16.75 C 12.941406 -16.75 11.664062 -16.253906 10.71875 -15.265625 C 9.769531 -14.273438 9.296875 -12.800781 9.296875 -10.84375 L 9.296875 0 L 2.9375 0 L 2.9375 -21.9375 L 9.015625 -21.9375 L 9.015625 -19.359375 C 9.847656 -20.285156 10.890625 -21 12.140625 -21.5 C 13.390625 -22.007812 14.765625 -22.265625 16.265625 -22.265625 Z M 16.265625 -22.265625 "/></g></g></g><g fill="#ffffff" fill-opacity="1"><g transform="translate(173.42451, 40.617862)"><g/></g></g><g fill="#ffffff" fill-opacity="1"><g transform="translate(184.956458, 40.617862)"><g><path d="M 15.734375 -28.53125 C 18.265625 -28.53125 20.457031 -28.109375 22.3125 -27.265625 C 24.175781 -26.429688 25.609375 -25.238281 26.609375 -23.6875 C 27.617188 -22.132812 28.125 -20.300781 28.125 -18.1875 C 28.125 -16.09375 27.617188 -14.265625 26.609375 -12.703125 C 25.609375 -11.140625 24.175781 -9.941406 22.3125 -9.109375 C 20.457031 -8.285156 18.265625 -7.875 15.734375 -7.875 L 9.984375 -7.875 L 9.984375 0 L 3.390625 0 L 3.390625 -28.53125 Z M 15.375 -13.25 C 17.351562 -13.25 18.859375 -13.675781 19.890625 -14.53125 C 20.921875 -15.382812 21.4375 -16.601562 21.4375 -18.1875 C 21.4375 -19.789062 20.921875 -21.019531 19.890625 -21.875 C 18.859375 -22.726562 17.351562 -23.15625 15.375 -23.15625 L 9.984375 -23.15625 L 9.984375 -13.25 Z M 15.375 -13.25 "/></g></g></g><g fill="#ffffff" fill-opacity="1"><g transform="translate(214.336239, 40.617862)"><g><path d="M 24.421875 -10.890625 C 24.421875 -10.804688 24.378906 -10.234375 24.296875 -9.171875 L 7.703125 -9.171875 C 8.003906 -7.816406 8.710938 -6.742188 9.828125 -5.953125 C 10.941406 -5.160156 12.328125 -4.765625 13.984375 -4.765625 C 15.117188 -4.765625 16.128906 -4.929688 17.015625 -5.265625 C 17.898438 -5.609375 18.722656 -6.148438 19.484375 -6.890625 L 22.875 -3.21875 C 20.800781 -0.851562 17.78125 0.328125 13.8125 0.328125 C 11.34375 0.328125 9.15625 -0.148438 7.25 -1.109375 C 5.351562 -2.078125 3.882812 -3.414062 2.84375 -5.125 C 1.8125 -6.84375 1.296875 -8.789062 1.296875 -10.96875 C 1.296875 -13.113281 1.804688 -15.046875 2.828125 -16.765625 C 3.847656 -18.492188 5.25 -19.84375 7.03125 -20.8125 C 8.8125 -21.78125 10.800781 -22.265625 13 -22.265625 C 15.144531 -22.265625 17.085938 -21.800781 18.828125 -20.875 C 20.566406 -19.945312 21.929688 -18.617188 22.921875 -16.890625 C 23.921875 -15.171875 24.421875 -13.171875 24.421875 -10.890625 Z M 13.046875 -17.453125 C 11.609375 -17.453125 10.398438 -17.039062 9.421875 -16.21875 C 8.441406 -15.40625 7.84375 -14.289062 7.625 -12.875 L 18.421875 -12.875 C 18.203125 -14.269531 17.601562 -15.378906 16.625 -16.203125 C 15.65625 -17.035156 14.460938 -17.453125 13.046875 -17.453125 Z M 13.046875 -17.453125 "/></g></g></g><g fill="#ffffff" fill-opacity="1"><g transform="translate(240.048815, 40.617862)"><g><path d="M 16.265625 -22.265625 C 18.984375 -22.265625 21.175781 -21.445312 22.84375 -19.8125 C 24.519531 -18.175781 25.359375 -15.757812 25.359375 -12.5625 L 25.359375 0 L 19 0 L 19 -11.578125 C 19 -13.316406 18.617188 -14.613281 17.859375 -15.46875 C 17.097656 -16.320312 15.992188 -16.75 14.546875 -16.75 C 12.941406 -16.75 11.664062 -16.253906 10.71875 -15.265625 C 9.769531 -14.273438 9.296875 -12.800781 9.296875 -10.84375 L 9.296875 0 L 2.9375 0 L 2.9375 -21.9375 L 9.015625 -21.9375 L 9.015625 -19.359375 C 9.847656 -20.285156 10.890625 -21 12.140625 -21.5 C 13.390625 -22.007812 14.765625 -22.265625 16.265625 -22.265625 Z M 16.265625 -22.265625 "/></g></g></g><g fill="#ffffff" fill-opacity="1"><g transform="translate(268.450929, 40.617862)"><g><path d="M 25.5625 -21.9375 L 25.5625 -3.671875 C 25.5625 0.347656 24.515625 3.335938 22.421875 5.296875 C 20.328125 7.253906 17.269531 8.234375 13.25 8.234375 C 11.125 8.234375 9.109375 7.972656 7.203125 7.453125 C 5.304688 6.941406 3.734375 6.195312 2.484375 5.21875 L 5.015625 0.65625 C 5.941406 1.414062 7.109375 2.019531 8.515625 2.46875 C 9.929688 2.914062 11.347656 3.140625 12.765625 3.140625 C 14.960938 3.140625 16.582031 2.640625 17.625 1.640625 C 18.675781 0.648438 19.203125 -0.847656 19.203125 -2.859375 L 19.203125 -3.796875 C 17.546875 -1.972656 15.234375 -1.0625 12.265625 -1.0625 C 10.253906 -1.0625 8.410156 -1.5 6.734375 -2.375 C 5.066406 -3.257812 3.742188 -4.503906 2.765625 -6.109375 C 1.785156 -7.710938 1.296875 -9.5625 1.296875 -11.65625 C 1.296875 -13.75 1.785156 -15.597656 2.765625 -17.203125 C 3.742188 -18.804688 5.066406 -20.050781 6.734375 -20.9375 C 8.410156 -21.820312 10.253906 -22.265625 12.265625 -22.265625 C 15.453125 -22.265625 17.875 -21.21875 19.53125 -19.125 L 19.53125 -21.9375 Z M 13.53125 -6.28125 C 15.21875 -6.28125 16.597656 -6.773438 17.671875 -7.765625 C 18.742188 -8.753906 19.28125 -10.050781 19.28125 -11.65625 C 19.28125 -13.257812 18.742188 -14.554688 17.671875 -15.546875 C 16.597656 -16.546875 15.21875 -17.046875 13.53125 -17.046875 C 11.84375 -17.046875 10.457031 -16.546875 9.375 -15.546875 C 8.289062 -14.554688 7.75 -13.257812 7.75 -11.65625 C 7.75 -10.050781 8.289062 -8.753906 9.375 -7.765625 C 10.457031 -6.773438 11.84375 -6.28125 13.53125 -6.28125 Z M 13.53125 -6.28125 "/></g></g></g><g fill="#ffffff" fill-opacity="1"><g transform="translate(296.975177, 40.617862)"><g><path d="M 24.421875 -10.890625 C 24.421875 -10.804688 24.378906 -10.234375 24.296875 -9.171875 L 7.703125 -9.171875 C 8.003906 -7.816406 8.710938 -6.742188 9.828125 -5.953125 C 10.941406 -5.160156 12.328125 -4.765625 13.984375 -4.765625 C 15.117188 -4.765625 16.128906 -4.929688 17.015625 -5.265625 C 17.898438 -5.609375 18.722656 -6.148438 19.484375 -6.890625 L 22.875 -3.21875 C 20.800781 -0.851562 17.78125 0.328125 13.8125 0.328125 C 11.34375 0.328125 9.15625 -0.148438 7.25 -1.109375 C 5.351562 -2.078125 3.882812 -3.414062 2.84375 -5.125 C 1.8125 -6.84375 1.296875 -8.789062 1.296875 -10.96875 C 1.296875 -13.113281 1.804688 -15.046875 2.828125 -16.765625 C 3.847656 -18.492188 5.25 -19.84375 7.03125 -20.8125 C 8.8125 -21.78125 10.800781 -22.265625 13 -22.265625 C 15.144531 -22.265625 17.085938 -21.800781 18.828125 -20.875 C 20.566406 -19.945312 21.929688 -18.617188 22.921875 -16.890625 C 23.921875 -15.171875 24.421875 -13.171875 24.421875 -10.890625 Z M 13.046875 -17.453125 C 11.609375 -17.453125 10.398438 -17.039062 9.421875 -16.21875 C 8.441406 -15.40625 7.84375 -14.289062 7.625 -12.875 L 18.421875 -12.875 C 18.203125 -14.269531 17.601562 -15.378906 16.625 -16.203125 C 15.65625 -17.035156 14.460938 -17.453125 13.046875 -17.453125 Z M 13.046875 -17.453125 "/></g></g></g><g fill="#ffffff" fill-opacity="1"><g transform="translate(322.687771, 40.617862)"><g><path d="M 31.015625 -22.265625 C 33.765625 -22.265625 35.945312 -21.453125 37.5625 -19.828125 C 39.175781 -18.210938 39.984375 -15.789062 39.984375 -12.5625 L 39.984375 0 L 33.625 0 L 33.625 -11.578125 C 33.625 -13.316406 33.265625 -14.613281 32.546875 -15.46875 C 31.828125 -16.320312 30.800781 -16.75 29.46875 -16.75 C 27.976562 -16.75 26.796875 -16.265625 25.921875 -15.296875 C 25.054688 -14.335938 24.625 -12.90625 24.625 -11 L 24.625 0 L 18.265625 0 L 18.265625 -11.578125 C 18.265625 -15.023438 16.878906 -16.75 14.109375 -16.75 C 12.640625 -16.75 11.46875 -16.265625 10.59375 -15.296875 C 9.726562 -14.335938 9.296875 -12.90625 9.296875 -11 L 9.296875 0 L 2.9375 0 L 2.9375 -21.9375 L 9.015625 -21.9375 L 9.015625 -19.40625 C 9.828125 -20.332031 10.820312 -21.039062 12 -21.53125 C 13.1875 -22.019531 14.488281 -22.265625 15.90625 -22.265625 C 17.445312 -22.265625 18.84375 -21.957031 20.09375 -21.34375 C 21.34375 -20.726562 22.347656 -19.835938 23.109375 -18.671875 C 24.003906 -19.804688 25.140625 -20.6875 26.515625 -21.3125 C 27.890625 -21.945312 29.390625 -22.265625 31.015625 -22.265625 Z M 31.015625 -22.265625 "/></g></g></g><g fill="#ffffff" fill-opacity="1"><g transform="translate(365.433378, 40.617862)"><g><path d="M 15.90625 -22.265625 C 17.9375 -22.265625 19.785156 -21.789062 21.453125 -20.84375 C 23.128906 -19.90625 24.441406 -18.585938 25.390625 -16.890625 C 26.347656 -15.191406 26.828125 -13.21875 26.828125 -10.96875 C 26.828125 -8.707031 26.347656 -6.726562 25.390625 -5.03125 C 24.441406 -3.332031 23.128906 -2.015625 21.453125 -1.078125 C 19.785156 -0.140625 17.9375 0.328125 15.90625 0.328125 C 12.882812 0.328125 10.585938 -0.625 9.015625 -2.53125 L 9.015625 0 L 2.9375 0 L 2.9375 -30.25 L 9.296875 -30.25 L 9.296875 -19.609375 C 10.898438 -21.378906 13.101562 -22.265625 15.90625 -22.265625 Z M 14.796875 -4.890625 C 16.429688 -4.890625 17.769531 -5.4375 18.8125 -6.53125 C 19.851562 -7.632812 20.375 -9.113281 20.375 -10.96875 C 20.375 -12.8125 19.851562 -14.285156 18.8125 -15.390625 C 17.769531 -16.492188 16.429688 -17.046875 14.796875 -17.046875 C 13.171875 -17.046875 11.832031 -16.492188 10.78125 -15.390625 C 9.738281 -14.285156 9.21875 -12.8125 9.21875 -10.96875 C 9.21875 -9.113281 9.738281 -7.632812 10.78125 -6.53125 C 11.832031 -5.4375 13.171875 -4.890625 14.796875 -4.890625 Z M 14.796875 -4.890625 "/></g></g></g><g fill="#ffffff" fill-opacity="1"><g transform="translate(393.183225, 40.617862)"><g><path d="M 11.78125 -22.265625 C 15.175781 -22.265625 17.785156 -21.453125 19.609375 -19.828125 C 21.429688 -18.210938 22.34375 -15.773438 22.34375 -12.515625 L 22.34375 0 L 16.390625 0 L 16.390625 -2.734375 C 15.191406 -0.691406 12.960938 0.328125 9.703125 0.328125 C 8.015625 0.328125 6.550781 0.0390625 5.3125 -0.53125 C 4.082031 -1.101562 3.140625 -1.890625 2.484375 -2.890625 C 1.835938 -3.898438 1.515625 -5.039062 1.515625 -6.3125 C 1.515625 -8.351562 2.28125 -9.957031 3.8125 -11.125 C 5.34375 -12.289062 7.710938 -12.875 10.921875 -12.875 L 15.984375 -12.875 C 15.984375 -14.269531 15.5625 -15.335938 14.71875 -16.078125 C 13.875 -16.828125 12.609375 -17.203125 10.921875 -17.203125 C 9.753906 -17.203125 8.601562 -17.019531 7.46875 -16.65625 C 6.34375 -16.289062 5.390625 -15.796875 4.609375 -15.171875 L 2.328125 -19.609375 C 3.523438 -20.453125 4.957031 -21.101562 6.625 -21.5625 C 8.289062 -22.03125 10.007812 -22.265625 11.78125 -22.265625 Z M 11.296875 -3.953125 C 12.378906 -3.953125 13.34375 -4.203125 14.1875 -4.703125 C 15.03125 -5.210938 15.628906 -5.957031 15.984375 -6.9375 L 15.984375 -9.171875 L 11.625 -9.171875 C 9.007812 -9.171875 7.703125 -8.316406 7.703125 -6.609375 C 7.703125 -5.785156 8.019531 -5.132812 8.65625 -4.65625 C 9.300781 -4.1875 10.179688 -3.953125 11.296875 -3.953125 Z M 11.296875 -3.953125 "/></g></g></g><g fill="#ffffff" fill-opacity="1"><g transform="translate(418.325324, 40.617862)"><g><path d="M 16.265625 -22.265625 C 18.984375 -22.265625 21.175781 -21.445312 22.84375 -19.8125 C 24.519531 -18.175781 25.359375 -15.757812 25.359375 -12.5625 L 25.359375 0 L 19 0 L 19 -11.578125 C 19 -13.316406 18.617188 -14.613281 17.859375 -15.46875 C 17.097656 -16.320312 15.992188 -16.75 14.546875 -16.75 C 12.941406 -16.75 11.664062 -16.253906 10.71875 -15.265625 C 9.769531 -14.273438 9.296875 -12.800781 9.296875 -10.84375 L 9.296875 0 L 2.9375 0 L 2.9375 -21.9375 L 9.015625 -21.9375 L 9.015625 -19.359375 C 9.847656 -20.285156 10.890625 -21 12.140625 -21.5 C 13.390625 -22.007812 14.765625 -22.265625 16.265625 -22.265625 Z M 16.265625 -22.265625 "/></g></g></g><g fill="#ffffff" fill-opacity="1"><g transform="translate(446.727438, 40.617862)"><g><path d="M 25.5625 -21.9375 L 25.5625 -3.671875 C 25.5625 0.347656 24.515625 3.335938 22.421875 5.296875 C 20.328125 7.253906 17.269531 8.234375 13.25 8.234375 C 11.125 8.234375 9.109375 7.972656 7.203125 7.453125 C 5.304688 6.941406 3.734375 6.195312 2.484375 5.21875 L 5.015625 0.65625 C 5.941406 1.414062 7.109375 2.019531 8.515625 2.46875 C 9.929688 2.914062 11.347656 3.140625 12.765625 3.140625 C 14.960938 3.140625 16.582031 2.640625 17.625 1.640625 C 18.675781 0.648438 19.203125 -0.847656 19.203125 -2.859375 L 19.203125 -3.796875 C 17.546875 -1.972656 15.234375 -1.0625 12.265625 -1.0625 C 10.253906 -1.0625 8.410156 -1.5 6.734375 -2.375 C 5.066406 -3.257812 3.742188 -4.503906 2.765625 -6.109375 C 1.785156 -7.710938 1.296875 -9.5625 1.296875 -11.65625 C 1.296875 -13.75 1.785156 -15.597656 2.765625 -17.203125 C 3.742188 -18.804688 5.066406 -20.050781 6.734375 -20.9375 C 8.410156 -21.820312 10.253906 -22.265625 12.265625 -22.265625 C 15.453125 -22.265625 17.875 -21.21875 19.53125 -19.125 L 19.53125 -21.9375 Z M 13.53125 -6.28125 C 15.21875 -6.28125 16.597656 -6.773438 17.671875 -7.765625 C 18.742188 -8.753906 19.28125 -10.050781 19.28125 -11.65625 C 19.28125 -13.257812 18.742188 -14.554688 17.671875 -15.546875 C 16.597656 -16.546875 15.21875 -17.046875 13.53125 -17.046875 C 11.84375 -17.046875 10.457031 -16.546875 9.375 -15.546875 C 8.289062 -14.554688 7.75 -13.257812 7.75 -11.65625 C 7.75 -10.050781 8.289062 -8.753906 9.375 -7.765625 C 10.457031 -6.773438 11.84375 -6.28125 13.53125 -6.28125 Z M 13.53125 -6.28125 "/></g></g></g><g fill="#ffffff" fill-opacity="1"><g transform="translate(475.251686, 40.617862)"><g><path d="M 11.78125 -22.265625 C 15.175781 -22.265625 17.785156 -21.453125 19.609375 -19.828125 C 21.429688 -18.210938 22.34375 -15.773438 22.34375 -12.515625 L 22.34375 0 L 16.390625 0 L 16.390625 -2.734375 C 15.191406 -0.691406 12.960938 0.328125 9.703125 0.328125 C 8.015625 0.328125 6.550781 0.0390625 5.3125 -0.53125 C 4.082031 -1.101562 3.140625 -1.890625 2.484375 -2.890625 C 1.835938 -3.898438 1.515625 -5.039062 1.515625 -6.3125 C 1.515625 -8.351562 2.28125 -9.957031 3.8125 -11.125 C 5.34375 -12.289062 7.710938 -12.875 10.921875 -12.875 L 15.984375 -12.875 C 15.984375 -14.269531 15.5625 -15.335938 14.71875 -16.078125 C 13.875 -16.828125 12.609375 -17.203125 10.921875 -17.203125 C 9.753906 -17.203125 8.601562 -17.019531 7.46875 -16.65625 C 6.34375 -16.289062 5.390625 -15.796875 4.609375 -15.171875 L 2.328125 -19.609375 C 3.523438 -20.453125 4.957031 -21.101562 6.625 -21.5625 C 8.289062 -22.03125 10.007812 -22.265625 11.78125 -22.265625 Z M 11.296875 -3.953125 C 12.378906 -3.953125 13.34375 -4.203125 14.1875 -4.703125 C 15.03125 -5.210938 15.628906 -5.957031 15.984375 -6.9375 L 15.984375 -9.171875 L 11.625 -9.171875 C 9.007812 -9.171875 7.703125 -8.316406 7.703125 -6.609375 C 7.703125 -5.785156 8.019531 -5.132812 8.65625 -4.65625 C 9.300781 -4.1875 10.179688 -3.953125 11.296875 -3.953125 Z M 11.296875 -3.953125 "/></g></g></g><g fill="#ffffff" fill-opacity="1"><g transform="translate(500.393748, 40.617862)"><g><path d="M 16.265625 -22.265625 C 18.984375 -22.265625 21.175781 -21.445312 22.84375 -19.8125 C 24.519531 -18.175781 25.359375 -15.757812 25.359375 -12.5625 L 25.359375 0 L 19 0 L 19 -11.578125 C 19 -13.316406 18.617188 -14.613281 17.859375 -15.46875 C 17.097656 -16.320312 15.992188 -16.75 14.546875 -16.75 C 12.941406 -16.75 11.664062 -16.253906 10.71875 -15.265625 C 9.769531 -14.273438 9.296875 -12.800781 9.296875 -10.84375 L 9.296875 0 L 2.9375 0 L 2.9375 -21.9375 L 9.015625 -21.9375 L 9.015625 -19.359375 C 9.847656 -20.285156 10.890625 -21 12.140625 -21.5 C 13.390625 -22.007812 14.765625 -22.265625 16.265625 -22.265625 Z M 16.265625 -22.265625 "/></g></g></g><g fill="#ffffff" fill-opacity="1"><g transform="translate(0.119574, 97.155133)"><g><path d="M 12.765625 0.484375 C 10.503906 0.484375 8.320312 0.179688 6.21875 -0.421875 C 4.113281 -1.035156 2.421875 -1.832031 1.140625 -2.8125 L 3.390625 -7.78125 C 4.609375 -6.882812 6.054688 -6.164062 7.734375 -5.625 C 9.421875 -5.082031 11.109375 -4.8125 12.796875 -4.8125 C 14.671875 -4.8125 16.054688 -5.085938 16.953125 -5.640625 C 17.847656 -6.203125 18.296875 -6.945312 18.296875 -7.875 C 18.296875 -8.550781 18.03125 -9.113281 17.5 -9.5625 C 16.976562 -10.007812 16.300781 -10.367188 15.46875 -10.640625 C 14.644531 -10.910156 13.523438 -11.207031 12.109375 -11.53125 C 9.929688 -12.050781 8.148438 -12.566406 6.765625 -13.078125 C 5.378906 -13.597656 4.191406 -14.425781 3.203125 -15.5625 C 2.210938 -16.707031 1.71875 -18.234375 1.71875 -20.140625 C 1.71875 -21.796875 2.164062 -23.296875 3.0625 -24.640625 C 3.957031 -25.984375 5.304688 -27.050781 7.109375 -27.84375 C 8.921875 -28.632812 11.128906 -29.03125 13.734375 -29.03125 C 15.554688 -29.03125 17.335938 -28.8125 19.078125 -28.375 C 20.816406 -27.9375 22.335938 -27.3125 23.640625 -26.5 L 21.609375 -21.484375 C 18.972656 -22.972656 16.335938 -23.71875 13.703125 -23.71875 C 11.847656 -23.71875 10.476562 -23.421875 9.59375 -22.828125 C 8.71875 -22.234375 8.28125 -21.445312 8.28125 -20.46875 C 8.28125 -19.488281 8.785156 -18.757812 9.796875 -18.28125 C 10.816406 -17.800781 12.375 -17.332031 14.46875 -16.875 C 16.644531 -16.363281 18.425781 -15.847656 19.8125 -15.328125 C 21.195312 -14.804688 22.382812 -13.988281 23.375 -12.875 C 24.363281 -11.757812 24.859375 -10.253906 24.859375 -8.359375 C 24.859375 -6.722656 24.40625 -5.234375 23.5 -3.890625 C 22.59375 -2.546875 21.226562 -1.476562 19.40625 -0.6875 C 17.582031 0.09375 15.367188 0.484375 12.765625 0.484375 Z M 12.765625 0.484375 "/></g></g></g><g fill="#ffffff" fill-opacity="1"><g transform="translate(26.117389, 97.155133)"><g><path d="M 3.390625 -28.53125 L 16.34375 -28.53125 C 19.445312 -28.53125 22.1875 -27.9375 24.5625 -26.75 C 26.9375 -25.570312 28.78125 -23.910156 30.09375 -21.765625 C 31.414062 -19.617188 32.078125 -17.117188 32.078125 -14.265625 C 32.078125 -11.410156 31.414062 -8.910156 30.09375 -6.765625 C 28.78125 -4.617188 26.9375 -2.953125 24.5625 -1.765625 C 22.1875 -0.585938 19.445312 0 16.34375 0 L 3.390625 0 Z M 16.015625 -5.421875 C 18.867188 -5.421875 21.144531 -6.210938 22.84375 -7.796875 C 24.539062 -9.390625 25.390625 -11.546875 25.390625 -14.265625 C 25.390625 -16.984375 24.539062 -19.132812 22.84375 -20.71875 C 21.144531 -22.3125 18.867188 -23.109375 16.015625 -23.109375 L 9.984375 -23.109375 L 9.984375 -5.421875 Z M 16.015625 -5.421875 "/></g></g></g><g fill="#ffffff" fill-opacity="1"><g transform="translate(59.776003, 97.155133)"><g><path d="M 29.34375 0 L 29.3125 -17.125 L 20.90625 -3.015625 L 17.9375 -3.015625 L 9.578125 -16.75 L 9.578125 0 L 3.390625 0 L 3.390625 -28.53125 L 8.84375 -28.53125 L 19.53125 -10.796875 L 30.046875 -28.53125 L 35.46875 -28.53125 L 35.546875 0 Z M 29.34375 0 "/></g></g></g><g fill="#ffffff" fill-opacity="1"><g transform="translate(98.691227, 97.155133)"><g/></g></g><g fill="#ffffff" fill-opacity="1"><g transform="translate(110.223175, 97.155133)"><g><path d="M 22.171875 -6.109375 L 8.921875 -6.109375 L 6.40625 0 L -0.359375 0 L 12.359375 -28.53125 L 18.875 -28.53125 L 31.640625 0 L 24.703125 0 Z M 20.09375 -11.125 L 15.578125 -22.046875 L 11.046875 -11.125 Z M 20.09375 -11.125 "/></g></g></g><g fill="#ffffff" fill-opacity="1"><g transform="translate(141.436852, 97.155133)"><g><path d="M 15.90625 -22.265625 C 17.9375 -22.265625 19.785156 -21.789062 21.453125 -20.84375 C 23.128906 -19.90625 24.441406 -18.585938 25.390625 -16.890625 C 26.347656 -15.191406 26.828125 -13.21875 26.828125 -10.96875 C 26.828125 -8.707031 26.347656 -6.726562 25.390625 -5.03125 C 24.441406 -3.332031 23.128906 -2.015625 21.453125 -1.078125 C 19.785156 -0.140625 17.9375 0.328125 15.90625 0.328125 C 13.101562 0.328125 10.898438 -0.554688 9.296875 -2.328125 L 9.296875 7.90625 L 2.9375 7.90625 L 2.9375 -21.9375 L 9.015625 -21.9375 L 9.015625 -19.40625 C 10.585938 -21.3125 12.882812 -22.265625 15.90625 -22.265625 Z M 14.796875 -4.890625 C 16.429688 -4.890625 17.769531 -5.4375 18.8125 -6.53125 C 19.851562 -7.632812 20.375 -9.113281 20.375 -10.96875 C 20.375 -12.8125 19.851562 -14.285156 18.8125 -15.390625 C 17.769531 -16.492188 16.429688 -17.046875 14.796875 -17.046875 C 13.171875 -17.046875 11.832031 -16.492188 10.78125 -15.390625 C 9.738281 -14.285156 9.21875 -12.8125 9.21875 -10.96875 C 9.21875 -9.113281 9.738281 -7.632812 10.78125 -6.53125 C 11.832031 -5.4375 13.171875 -4.890625 14.796875 -4.890625 Z M 14.796875 -4.890625 "/></g></g></g><g fill="#ffffff" fill-opacity="1"><g transform="translate(169.186717, 97.155133)"><g><path d="M 11.78125 -22.265625 C 15.175781 -22.265625 17.785156 -21.453125 19.609375 -19.828125 C 21.429688 -18.210938 22.34375 -15.773438 22.34375 -12.515625 L 22.34375 0 L 16.390625 0 L 16.390625 -2.734375 C 15.191406 -0.691406 12.960938 0.328125 9.703125 0.328125 C 8.015625 0.328125 6.550781 0.0390625 5.3125 -0.53125 C 4.082031 -1.101562 3.140625 -1.890625 2.484375 -2.890625 C 1.835938 -3.898438 1.515625 -5.039062 1.515625 -6.3125 C 1.515625 -8.351562 2.28125 -9.957031 3.8125 -11.125 C 5.34375 -12.289062 7.710938 -12.875 10.921875 -12.875 L 15.984375 -12.875 C 15.984375 -14.269531 15.5625 -15.335938 14.71875 -16.078125 C 13.875 -16.828125 12.609375 -17.203125 10.921875 -17.203125 C 9.753906 -17.203125 8.601562 -17.019531 7.46875 -16.65625 C 6.34375 -16.289062 5.390625 -15.796875 4.609375 -15.171875 L 2.328125 -19.609375 C 3.523438 -20.453125 4.957031 -21.101562 6.625 -21.5625 C 8.289062 -22.03125 10.007812 -22.265625 11.78125 -22.265625 Z M 11.296875 -3.953125 C 12.378906 -3.953125 13.34375 -4.203125 14.1875 -4.703125 C 15.03125 -5.210938 15.628906 -5.957031 15.984375 -6.9375 L 15.984375 -9.171875 L 11.625 -9.171875 C 9.007812 -9.171875 7.703125 -8.316406 7.703125 -6.609375 C 7.703125 -5.785156 8.019531 -5.132812 8.65625 -4.65625 C 9.300781 -4.1875 10.179688 -3.953125 11.296875 -3.953125 Z M 11.296875 -3.953125 "/></g></g></g><g fill="#ffffff" fill-opacity="1"><g transform="translate(194.328798, 97.155133)"><g><path d="M 9.015625 -19.03125 C 9.773438 -20.09375 10.796875 -20.894531 12.078125 -21.4375 C 13.367188 -21.988281 14.859375 -22.265625 16.546875 -22.265625 L 16.546875 -16.390625 C 15.835938 -16.441406 15.363281 -16.46875 15.125 -16.46875 C 13.300781 -16.46875 11.875 -15.957031 10.84375 -14.9375 C 9.8125 -13.914062 9.296875 -12.390625 9.296875 -10.359375 L 9.296875 0 L 2.9375 0 L 2.9375 -21.9375 L 9.015625 -21.9375 Z M 9.015625 -19.03125 "/></g></g></g><g fill="#ffffff" fill-opacity="1"><g transform="translate(211.606208, 97.155133)"><g><path d="M 11.78125 -22.265625 C 15.175781 -22.265625 17.785156 -21.453125 19.609375 -19.828125 C 21.429688 -18.210938 22.34375 -15.773438 22.34375 -12.515625 L 22.34375 0 L 16.390625 0 L 16.390625 -2.734375 C 15.191406 -0.691406 12.960938 0.328125 9.703125 0.328125 C 8.015625 0.328125 6.550781 0.0390625 5.3125 -0.53125 C 4.082031 -1.101562 3.140625 -1.890625 2.484375 -2.890625 C 1.835938 -3.898438 1.515625 -5.039062 1.515625 -6.3125 C 1.515625 -8.351562 2.28125 -9.957031 3.8125 -11.125 C 5.34375 -12.289062 7.710938 -12.875 10.921875 -12.875 L 15.984375 -12.875 C 15.984375 -14.269531 15.5625 -15.335938 14.71875 -16.078125 C 13.875 -16.828125 12.609375 -17.203125 10.921875 -17.203125 C 9.753906 -17.203125 8.601562 -17.019531 7.46875 -16.65625 C 6.34375 -16.289062 5.390625 -15.796875 4.609375 -15.171875 L 2.328125 -19.609375 C 3.523438 -20.453125 4.957031 -21.101562 6.625 -21.5625 C 8.289062 -22.03125 10.007812 -22.265625 11.78125 -22.265625 Z M 11.296875 -3.953125 C 12.378906 -3.953125 13.34375 -4.203125 14.1875 -4.703125 C 15.03125 -5.210938 15.628906 -5.957031 15.984375 -6.9375 L 15.984375 -9.171875 L 11.625 -9.171875 C 9.007812 -9.171875 7.703125 -8.316406 7.703125 -6.609375 C 7.703125 -5.785156 8.019531 -5.132812 8.65625 -4.65625 C 9.300781 -4.1875 10.179688 -3.953125 11.296875 -3.953125 Z M 11.296875 -3.953125 "/></g></g></g><g fill="#ffffff" fill-opacity="1"><g transform="translate(236.748289, 97.155133)"><g><path d="M 17.078125 -1.0625 C 16.453125 -0.59375 15.679688 -0.242188 14.765625 -0.015625 C 13.859375 0.210938 12.90625 0.328125 11.90625 0.328125 C 9.289062 0.328125 7.269531 -0.335938 5.84375 -1.671875 C 4.414062 -3.003906 3.703125 -4.960938 3.703125 -7.546875 L 3.703125 -16.546875 L 0.328125 -16.546875 L 0.328125 -21.4375 L 3.703125 -21.4375 L 3.703125 -26.78125 L 10.0625 -26.78125 L 10.0625 -21.4375 L 15.53125 -21.4375 L 15.53125 -16.546875 L 10.0625 -16.546875 L 10.0625 -7.625 C 10.0625 -6.695312 10.300781 -5.984375 10.78125 -5.484375 C 11.257812 -4.984375 11.929688 -4.734375 12.796875 -4.734375 C 13.804688 -4.734375 14.664062 -5.003906 15.375 -5.546875 Z M 17.078125 -1.0625 "/></g></g></g><g fill="#ffffff" fill-opacity="1"><g transform="translate(254.474078, 97.155133)"><g><path d="M 25.03125 -21.9375 L 25.03125 0 L 19 0 L 19 -2.609375 C 18.15625 -1.660156 17.148438 -0.929688 15.984375 -0.421875 C 14.816406 0.078125 13.550781 0.328125 12.1875 0.328125 C 9.3125 0.328125 7.03125 -0.5 5.34375 -2.15625 C 3.65625 -3.8125 2.8125 -6.273438 2.8125 -9.546875 L 2.8125 -21.9375 L 9.171875 -21.9375 L 9.171875 -10.484375 C 9.171875 -6.941406 10.648438 -5.171875 13.609375 -5.171875 C 15.140625 -5.171875 16.363281 -5.664062 17.28125 -6.65625 C 18.207031 -7.65625 18.671875 -9.132812 18.671875 -11.09375 L 18.671875 -21.9375 Z M 25.03125 -21.9375 "/></g></g></g><g fill="#ffffff" fill-opacity="1"><g transform="translate(282.46858, 97.155133)"><g><path d="M 9.015625 -19.03125 C 9.773438 -20.09375 10.796875 -20.894531 12.078125 -21.4375 C 13.367188 -21.988281 14.859375 -22.265625 16.546875 -22.265625 L 16.546875 -16.390625 C 15.835938 -16.441406 15.363281 -16.46875 15.125 -16.46875 C 13.300781 -16.46875 11.875 -15.957031 10.84375 -14.9375 C 9.8125 -13.914062 9.296875 -12.390625 9.296875 -10.359375 L 9.296875 0 L 2.9375 0 L 2.9375 -21.9375 L 9.015625 -21.9375 Z M 9.015625 -19.03125 "/></g></g></g></g></g><g transform="matrix(1, 0, 0, 1, 302, 22)"><g clip-path="url(#0248921805)"><g fill="#0a457b" fill-opacity="1"><g transform="translate(3.060558, 66.889964)"><g><path d="M 26.265625 -29.78125 C 30.671875 -29.0625 34.046875 -27.421875 36.390625 -24.859375 C 38.734375 -22.304688 39.90625 -19.140625 39.90625 -15.359375 C 39.90625 -12.441406 39.140625 -9.75 37.609375 -7.28125 C 36.078125 -4.820312 33.742188 -2.847656 30.609375 -1.359375 C 27.472656 0.117188 23.632812 0.859375 19.09375 0.859375 C 15.550781 0.859375 12.066406 0.394531 8.640625 -0.53125 C 5.222656 -1.46875 2.316406 -2.796875 -0.078125 -4.515625 L 4.453125 -13.421875 C 6.359375 -11.984375 8.566406 -10.867188 11.078125 -10.078125 C 13.597656 -9.296875 16.171875 -8.90625 18.796875 -8.90625 C 21.722656 -8.90625 24.019531 -9.460938 25.6875 -10.578125 C 27.363281 -11.703125 28.203125 -13.296875 28.203125 -15.359375 C 28.203125 -19.472656 25.066406 -21.53125 18.796875 -21.53125 L 13.484375 -21.53125 L 13.484375 -29.203125 L 23.828125 -40.90625 L 2.4375 -40.90625 L 2.4375 -50.234375 L 37.609375 -50.234375 L 37.609375 -42.703125 Z M 26.265625 -29.78125 "/></g></g></g></g></g></svg>