<svg xmlns="http://www.w3.org/2000/svg" xmlns:xlink="http://www.w3.org/1999/xlink" width="1152" zoomAndPan="magnify" viewBox="0 0 864 253.499997" height="338" preserveAspectRatio="xMidYMid meet" version="1.0"><defs><g/><clipPath id="4271b410df"><path d="M 0.851562 0 L 863 0 L 863 252.578125 L 0.851562 252.578125 Z M 0.851562 0 " clip-rule="nonzero"/></clipPath><clipPath id="51f1f1d655"><path d="M 33.035156 0 L 830.683594 0 C 848.460938 0 862.871094 14.410156 862.871094 32.1875 L 862.871094 220.390625 C 862.871094 238.167969 848.460938 252.578125 830.683594 252.578125 L 33.035156 252.578125 C 15.261719 252.578125 0.851562 238.167969 0.851562 220.390625 L 0.851562 32.1875 C 0.851562 14.410156 15.261719 0 33.035156 0 Z M 33.035156 0 " clip-rule="nonzero"/></clipPath><clipPath id="78ba2b738f"><path d="M 0.851562 0 L 862.910156 0 L 862.910156 252.578125 L 0.851562 252.578125 Z M 0.851562 0 " clip-rule="nonzero"/></clipPath><clipPath id="76b507eb40"><path d="M 33.035156 0 L 830.683594 0 C 848.460938 0 862.871094 14.410156 862.871094 32.1875 L 862.871094 220.390625 C 862.871094 238.167969 848.460938 252.578125 830.683594 252.578125 L 33.035156 252.578125 C 15.261719 252.578125 0.851562 238.167969 0.851562 220.390625 L 0.851562 32.1875 C 0.851562 14.410156 15.261719 0 33.035156 0 Z M 33.035156 0 " clip-rule="nonzero"/></clipPath><clipPath id="50cd9de633"><rect x="0" width="863" y="0" height="253"/></clipPath><clipPath id="fef1cb558c"><path d="M 271.121094 26.824219 L 862.964844 26.824219 L 862.964844 103.464844 L 271.121094 103.464844 Z M 271.121094 26.824219 " clip-rule="nonzero"/></clipPath><clipPath id="4c21701690"><path d="M 309.4375 26.824219 L 824.550781 26.824219 C 834.714844 26.824219 844.460938 30.863281 851.648438 38.050781 C 858.832031 45.234375 862.871094 54.980469 862.871094 65.144531 C 862.871094 75.308594 858.832031 85.054688 851.648438 92.238281 C 844.460938 99.425781 834.714844 103.464844 824.550781 103.464844 L 309.4375 103.464844 C 299.277344 103.464844 289.527344 99.425781 282.34375 92.238281 C 275.15625 85.054688 271.121094 75.308594 271.121094 65.144531 C 271.121094 54.980469 275.15625 45.234375 282.34375 38.050781 C 289.527344 30.863281 299.277344 26.824219 309.4375 26.824219 Z M 309.4375 26.824219 " clip-rule="nonzero"/></clipPath><clipPath id="01d584bb65"><path d="M 0.121094 0.824219 L 591.910156 0.824219 L 591.910156 77.464844 L 0.121094 77.464844 Z M 0.121094 0.824219 " clip-rule="nonzero"/></clipPath><clipPath id="53be8d0400"><path d="M 38.4375 0.824219 L 553.550781 0.824219 C 563.714844 0.824219 573.460938 4.863281 580.648438 12.050781 C 587.832031 19.234375 591.871094 28.980469 591.871094 39.144531 C 591.871094 49.308594 587.832031 59.054688 580.648438 66.238281 C 573.460938 73.425781 563.714844 77.464844 553.550781 77.464844 L 38.4375 77.464844 C 28.277344 77.464844 18.527344 73.425781 11.34375 66.238281 C 4.15625 59.054688 0.121094 49.308594 0.121094 39.144531 C 0.121094 28.980469 4.15625 19.234375 11.34375 12.050781 C 18.527344 4.863281 28.277344 0.824219 38.4375 0.824219 Z M 38.4375 0.824219 " clip-rule="nonzero"/></clipPath><clipPath id="0f30aeb296"><rect x="0" width="592" y="0" height="78"/></clipPath><clipPath id="89c2c63302"><path d="M 33.890625 57 L 230.753906 57 L 230.753906 222.191406 L 33.890625 222.191406 Z M 33.890625 57 " clip-rule="nonzero"/></clipPath><clipPath id="575864df42"><path d="M 63 26.824219 L 156 26.824219 L 156 135 L 63 135 Z M 63 26.824219 " clip-rule="nonzero"/></clipPath><clipPath id="e0a10a9732"><rect x="0" width="374" y="0" height="109"/></clipPath><clipPath id="0049b0064b"><path d="M 0.0507812 15 L 41 15 L 41 67 L 0.0507812 67 Z M 0.0507812 15 " clip-rule="nonzero"/></clipPath><clipPath id="10a9379ac9"><rect x="0" width="44" y="0" height="88"/></clipPath></defs><g clip-path="url(#4271b410df)"><g clip-path="url(#51f1f1d655)"><g transform="matrix(1, 0, 0, 1, 0, 0)"><g clip-path="url(#50cd9de633)"><g clip-path="url(#78ba2b738f)"><g clip-path="url(#76b507eb40)"><path fill="#0a457b" d="M 0.851562 0 L 863.164062 0 L 863.164062 252.578125 L 0.851562 252.578125 Z M 0.851562 0 " fill-opacity="1" fill-rule="nonzero"/></g></g></g></g></g></g><g clip-path="url(#fef1cb558c)"><g clip-path="url(#4c21701690)"><g transform="matrix(1, 0, 0, 1, 271, 26)"><g clip-path="url(#0f30aeb296)"><g clip-path="url(#01d584bb65)"><g clip-path="url(#53be8d0400)"><path fill="#68ab3d" d="M 0.121094 0.824219 L 591.964844 0.824219 L 591.964844 77.464844 L 0.121094 77.464844 Z M 0.121094 0.824219 " fill-opacity="1" fill-rule="nonzero"/></g></g></g></g></g></g><g clip-path="url(#89c2c63302)"><path fill="#ffffff" d="M 172.640625 115.316406 C 172.640625 110.636719 172.414062 104.613281 173.269531 100.207031 L 163.378906 106.996094 C 162.613281 107.535156 161.667969 107.625 160.859375 107.265625 L 137.566406 97.824219 C 135.230469 97.554688 133.476562 98.046875 132.308594 99.039062 C 129.789062 101.105469 130.058594 104.929688 132.441406 107.492188 C 132.9375 108.03125 133.566406 108.523438 134.285156 108.976562 L 147.460938 114.28125 C 147.503906 114.324219 147.550781 114.324219 147.59375 114.324219 L 163.289062 120.621094 Z M 230.824219 155.199219 L 230.824219 109.605469 C 230.824219 95.753906 217.0625 95.753906 217.0625 109.605469 L 217.0625 155.199219 C 217.0625 162.390625 222.460938 165.222656 226.6875 163.199219 C 228.980469 162.078125 230.824219 159.46875 230.824219 155.199219 Z M 214.230469 164.144531 C 213.195312 162.707031 212.433594 160.953125 212.027344 158.882812 L 179.742188 152.363281 L 181.496094 210.234375 C 181.632812 211.851562 184.332031 213.109375 185.992188 213.515625 C 187.074219 213.738281 188.152344 213.832031 189.277344 213.695312 C 190.851562 213.515625 192.332031 212.886719 193.367188 211.671875 L 193.144531 170.394531 C 193.144531 168.910156 194.355469 167.699219 195.839844 167.699219 C 197.324219 167.699219 198.539062 168.910156 198.539062 170.394531 L 198.761719 212.390625 C 198.808594 212.976562 198.671875 213.15625 200.023438 214.101562 C 202.136719 215.582031 205.644531 216.394531 208.296875 215.945312 C 209.78125 215.671875 211.039062 215.042969 211.757812 213.875 Z M 215.535156 62.390625 C 209.195312 56.050781 198.898438 56.050781 192.558594 62.390625 C 186.21875 68.730469 186.21875 78.984375 192.558594 85.324219 C 198.898438 91.664062 209.148438 91.664062 215.535156 85.324219 C 221.828125 78.984375 221.828125 68.730469 215.535156 62.390625 Z M 213.105469 93.460938 C 205.644531 96.925781 196.875 95.800781 190.535156 90.71875 C 179.5625 91.933594 178.035156 99.082031 178.035156 108.300781 L 178.035156 146.519531 L 211.667969 153.308594 L 211.667969 109.605469 C 211.667969 102.003906 214.949219 96.96875 219.355469 94.902344 C 217.601562 94.226562 214.996094 93.867188 213.105469 93.460938 Z M 84.914062 165.269531 C 84.332031 163.695312 83.523438 162.210938 82.53125 160.90625 C 76.730469 161.628906 72.503906 166.886719 72.503906 172.867188 L 72.503906 214.863281 L 78.261719 214.820312 C 82.21875 214.820312 86.039062 210.816406 86.039062 206.726562 L 86.039062 171.429688 C 86.039062 169.269531 85.636719 167.15625 84.914062 165.269531 Z M 67.109375 214.144531 L 67.109375 172.867188 C 67.109375 165.765625 71.382812 159.289062 77.765625 156.679688 C 76.148438 155.601562 74.347656 154.835938 72.503906 154.476562 L 55.015625 151.105469 C 43.097656 148.859375 33.925781 156.007812 33.925781 168.371094 L 33.925781 202.949219 C 33.925781 204.925781 35.183594 206.5 37.117188 206.996094 Z M 76.550781 120.664062 C 70.527344 114.640625 60.726562 114.640625 54.699219 120.664062 C 48.675781 126.691406 48.675781 136.492188 54.699219 142.519531 C 60.726562 148.542969 70.527344 148.542969 76.550781 142.519531 C 82.621094 136.492188 82.621094 126.691406 76.550781 120.664062 Z M 142.515625 172.957031 C 141.929688 171.382812 141.121094 169.902344 140.132812 168.597656 C 134.332031 169.316406 130.105469 174.578125 130.105469 180.558594 L 130.105469 222.554688 L 135.859375 222.507812 C 139.816406 222.464844 143.636719 218.507812 143.636719 214.414062 L 143.636719 179.117188 C 143.636719 176.960938 143.234375 174.890625 142.515625 172.957031 Z M 124.664062 221.832031 L 124.664062 180.558594 C 124.664062 173.453125 128.933594 166.976562 135.320312 164.324219 C 133.699219 163.289062 131.902344 162.480469 130.058594 162.121094 L 112.566406 158.75 C 100.652344 156.457031 91.480469 163.652344 91.480469 176.015625 L 91.480469 210.59375 C 91.480469 212.570312 92.738281 214.144531 94.671875 214.640625 Z M 134.152344 128.355469 C 128.125 122.328125 118.324219 122.328125 112.296875 128.355469 C 106.273438 134.378906 106.273438 144.179688 112.296875 150.207031 C 118.324219 156.230469 128.125 156.230469 134.152344 150.207031 C 140.175781 144.179688 140.175781 134.425781 134.152344 128.355469 Z M 134.152344 128.355469 " fill-opacity="1" fill-rule="nonzero"/></g><g clip-path="url(#575864df42)"><path fill="#ffffff" d="M 137.566406 65.046875 L 137.523438 65 L 138.0625 64.460938 C 140.535156 62.167969 140.582031 58.253906 138.199219 55.917969 L 135.679688 53.398438 C 133.429688 51.152344 129.789062 51.0625 127.449219 53.175781 L 127.226562 53.398438 C 126.597656 54.027344 126.101562 54.433594 125.203125 54.074219 C 124.796875 53.894531 124.394531 53.667969 123.988281 53.445312 C 123.3125 53.085938 122.640625 52.769531 121.964844 52.5 C 121.246094 52.183594 120.527344 51.960938 119.808594 51.691406 C 119.402344 51.554688 118.953125 51.464844 118.546875 51.285156 C 117.648438 50.882812 117.648438 50.253906 117.648438 49.398438 C 117.648438 46.117188 114.949219 43.417969 111.667969 43.417969 L 108.117188 43.417969 C 104.835938 43.417969 102.136719 46.070312 102.136719 49.351562 C 102.136719 50.253906 102.089844 50.882812 101.191406 51.242188 C 100.789062 51.421875 100.339844 51.511719 99.933594 51.644531 C 99.214844 51.871094 98.496094 52.140625 97.773438 52.410156 C 97.054688 52.726562 96.335938 53.039062 95.660156 53.398438 C 95.257812 53.578125 94.851562 53.847656 94.492188 53.984375 C 93.773438 54.253906 93.324219 54.027344 92.875 53.578125 L 92.558594 53.265625 C 90.222656 50.925781 86.445312 50.925781 84.105469 53.265625 L 81.589844 55.78125 C 80.464844 56.90625 79.835938 58.390625 79.835938 60.007812 C 79.835938 61.808594 80.464844 63.023438 81.632812 64.28125 L 81.769531 64.144531 L 82.398438 65.359375 L 82.398438 65.449219 C 82.441406 65.765625 82.351562 66.078125 82.21875 66.347656 C 81.679688 67.339844 81.183594 68.328125 80.777344 69.363281 C 80.464844 70.082031 80.195312 70.800781 79.96875 71.519531 C 79.835938 71.925781 79.746094 72.417969 79.566406 72.824219 C 79.203125 73.769531 78.574219 73.8125 77.632812 73.8125 C 74.347656 73.8125 71.652344 76.511719 71.652344 79.792969 L 71.652344 83.34375 C 71.652344 86.628906 74.347656 89.324219 77.632812 89.324219 C 78.53125 89.324219 79.292969 89.371094 79.566406 90.40625 C 80.195312 92.652344 81.09375 94.765625 82.21875 96.835938 C 82.667969 97.644531 82.351562 98.273438 81.722656 98.859375 C 79.25 101.152344 79.203125 105.0625 81.589844 107.402344 L 84.105469 109.917969 C 85.230469 111.042969 86.757812 111.671875 88.332031 111.671875 C 90.132812 111.671875 91.34375 111.042969 92.605469 109.875 L 92.917969 109.558594 C 93.414062 109.066406 94.089844 108.976562 94.671875 109.335938 C 95.660156 109.875 96.742188 110.414062 97.773438 110.816406 C 98.496094 111.132812 99.214844 111.359375 99.933594 111.628906 C 100.339844 111.761719 100.789062 111.851562 101.191406 112.03125 C 102.089844 112.4375 102.089844 113.066406 102.089844 113.921875 C 102.089844 117.203125 104.789062 119.902344 108.070312 119.902344 L 111.625 119.902344 C 114.90625 119.902344 117.605469 117.203125 117.605469 113.921875 C 117.605469 113.019531 117.648438 112.390625 118.546875 112.03125 C 118.953125 111.851562 119.402344 111.761719 119.808594 111.628906 C 120.527344 111.402344 121.246094 111.132812 121.964844 110.863281 C 122.683594 110.546875 123.359375 110.234375 124.035156 109.875 C 124.4375 109.648438 124.84375 109.425781 125.246094 109.289062 C 126.148438 108.929688 126.597656 109.335938 127.226562 109.964844 C 127.539062 110.277344 127.945312 110.59375 128.351562 110.863281 C 128.621094 110.996094 128.890625 111.089844 129.160156 111.269531 C 129.292969 111.359375 129.472656 111.539062 129.609375 111.671875 C 129.835938 111.898438 130.105469 112.121094 130.375 112.300781 C 130.914062 112.75 131.585938 113.246094 132.21875 113.515625 L 132.621094 113.695312 L 142.46875 117.652344 L 141.929688 118.148438 C 139.996094 119.855469 137.972656 121.472656 135.859375 122.957031 L 135.589844 123.136719 L 135.320312 122.914062 C 131.769531 120.304688 127.539062 118.910156 123.179688 118.910156 C 114.007812 118.910156 105.957031 125.027344 103.53125 133.882812 L 103.394531 134.425781 L 102.902344 134.15625 C 99.574219 132.402344 96.246094 130.601562 93.007812 128.714844 C 90.042969 126.960938 87.074219 125.160156 84.285156 123.183594 L 84.195312 123.09375 L 84.152344 123.003906 C 83.160156 120.84375 81.769531 118.867188 80.105469 117.203125 C 77.992188 115.089844 75.472656 113.472656 72.683594 112.480469 L 72.550781 112.4375 L 72.460938 112.347656 C 67.515625 105.917969 65.535156 98.769531 64.636719 90.765625 C 64.097656 85.863281 63.960938 80.871094 63.917969 75.925781 C 63.871094 69.675781 64.050781 63.382812 64.1875 57.085938 C 64.230469 54.164062 64.320312 51.242188 64.367188 48.320312 C 64.410156 45.753906 66.121094 43.460938 68.683594 43.058594 C 83.160156 40.71875 97.683594 37.570312 108.882812 27.367188 C 109.464844 26.824219 110.320312 26.824219 110.90625 27.367188 C 122.101562 37.527344 136.625 40.71875 151.101562 43.058594 C 153.710938 43.460938 155.375 45.753906 155.417969 48.320312 C 155.597656 57.492188 155.957031 66.664062 155.867188 75.835938 C 155.824219 79.972656 155.734375 84.109375 155.375 88.203125 C 155.058594 91.664062 154.652344 95.214844 153.800781 98.589844 L 153.664062 99.082031 L 139.230469 93.238281 L 139.410156 92.832031 C 139.636719 92.292969 139.816406 91.707031 139.949219 91.167969 C 140.039062 90.855469 140.175781 90.449219 140.3125 90.136719 C 140.714844 89.414062 141.390625 89.414062 142.109375 89.414062 C 145.390625 89.414062 148.042969 86.71875 148.042969 83.433594 L 148.042969 79.839844 C 148.042969 76.554688 145.347656 73.859375 142.0625 73.859375 C 141.164062 73.859375 140.402344 73.8125 140.128906 72.777344 C 139.5 70.53125 138.601562 68.417969 137.476562 66.347656 C 137.34375 65.988281 137.34375 65.496094 137.566406 65.046875 Z M 84.824219 61.179688 C 84.285156 60.546875 84.015625 59.828125 84.78125 59.066406 L 85.09375 58.75 L 87.34375 56.503906 C 87.882812 55.960938 88.828125 55.917969 89.410156 56.503906 L 89.726562 56.816406 C 90.714844 57.761719 91.703125 58.34375 93.144531 58.570312 C 94.3125 58.75 95.210938 58.570312 96.292969 58.121094 C 97.371094 57.671875 98.40625 57.042969 99.527344 56.546875 C 100.652344 56.097656 101.820312 55.78125 102.945312 55.332031 C 104.023438 54.882812 104.789062 54.34375 105.464844 53.398438 C 106.453125 52.09375 106.679688 50.882812 106.679688 49.308594 C 106.679688 48.5 107.351562 47.824219 108.160156 47.824219 L 111.757812 47.824219 C 112.164062 47.824219 112.523438 47.957031 112.792969 48.273438 C 113.332031 48.8125 113.242188 49.710938 113.242188 50.386719 C 113.332031 51.554688 113.691406 52.457031 114.410156 53.398438 C 115.132812 54.296875 115.894531 54.882812 116.929688 55.332031 C 118.054688 55.78125 119.222656 56.097656 120.347656 56.546875 C 121.472656 56.996094 122.503906 57.625 123.585938 58.121094 C 124.664062 58.570312 125.5625 58.707031 126.730469 58.570312 C 128.394531 58.34375 129.339844 57.671875 130.507812 56.503906 L 130.824219 56.1875 L 130.867188 56.230469 C 131.40625 55.917969 132.128906 56.007812 132.621094 56.503906 L 135.140625 59.019531 C 136.039062 59.917969 135.5 60.773438 134.78125 61.492188 L 134.554688 61.71875 C 132.847656 63.605469 132.53125 66.347656 133.746094 68.597656 C 134.691406 70.304688 135.5 72.195312 136.039062 74.082031 C 136.757812 76.644531 139.097656 78.398438 141.75 78.398438 C 142.738281 78.398438 143.726562 78.625 143.726562 79.882812 L 143.726562 83.433594 C 143.726562 84.648438 142.695312 84.917969 141.703125 84.917969 C 139.050781 84.917969 136.714844 86.671875 135.996094 89.234375 L 134.644531 92.96875 L 134.375 93.011719 C 128.800781 93.867188 125.066406 98.589844 125.742188 104.207031 L 125.789062 104.65625 L 125.335938 104.703125 C 124.527344 104.792969 123.765625 105.019531 123.042969 105.421875 C 121.292969 106.367188 119.449219 107.175781 117.558594 107.714844 C 114.996094 108.433594 113.242188 110.773438 113.242188 113.425781 C 113.242188 114.414062 113.019531 115.40625 111.757812 115.40625 L 108.207031 115.40625 C 106.949219 115.40625 106.722656 114.414062 106.722656 113.425781 C 106.722656 110.726562 104.96875 108.433594 102.40625 107.714844 C 100.519531 107.175781 98.628906 106.367188 96.921875 105.421875 C 94.582031 104.117188 91.75 104.523438 89.816406 106.457031 L 89.5 106.769531 L 89.5 106.726562 C 88.871094 107.265625 88.109375 107.535156 87.386719 106.769531 L 84.871094 104.253906 C 83.972656 103.355469 84.511719 102.5 85.230469 101.78125 C 87.117188 99.890625 87.523438 97.058594 86.21875 94.722656 C 85.273438 92.96875 84.464844 91.125 83.925781 89.234375 C 83.207031 86.671875 80.867188 84.917969 78.214844 84.917969 C 77.226562 84.917969 76.238281 84.695312 76.238281 83.433594 L 76.238281 79.882812 C 76.238281 78.625 77.226562 78.398438 78.214844 78.398438 C 80.867188 78.398438 83.207031 76.644531 83.925781 74.082031 C 84.195312 73.136719 84.554688 72.195312 84.914062 71.296875 C 85.816406 69.046875 87.253906 67.472656 86.894531 64.863281 C 86.714844 63.605469 86.128906 62.4375 85.183594 61.492188 Z M 128.710938 81.683594 C 128.710938 71.296875 120.300781 62.886719 109.914062 62.886719 C 99.527344 62.886719 91.121094 71.296875 91.121094 81.683594 C 91.121094 92.023438 99.527344 100.429688 109.914062 100.429688 C 120.300781 100.429688 128.710938 92.023438 128.710938 81.683594 Z M 99.84375 71.566406 C 105.417969 65.988281 114.457031 65.988281 120.03125 71.566406 C 125.609375 77.140625 125.609375 86.179688 120.03125 91.753906 C 114.457031 97.328125 105.417969 97.328125 99.84375 91.753906 C 94.269531 86.179688 94.269531 77.140625 99.84375 71.566406 Z M 99.84375 71.566406 " fill-opacity="1" fill-rule="evenodd"/></g><g transform="matrix(1, 0, 0, 1, 271, 115)"><g clip-path="url(#e0a10a9732)"><g fill="#ffffff" fill-opacity="1"><g transform="translate(0.119574, 40.667914)"><g><path d="M 17.046875 0.484375 C 14.128906 0.484375 11.492188 -0.144531 9.140625 -1.40625 C 6.796875 -2.664062 4.953125 -4.414062 3.609375 -6.65625 C 2.265625 -8.90625 1.59375 -11.441406 1.59375 -14.265625 C 1.59375 -17.085938 2.265625 -19.617188 3.609375 -21.859375 C 4.953125 -24.109375 6.796875 -25.863281 9.140625 -27.125 C 11.492188 -28.394531 14.140625 -29.03125 17.078125 -29.03125 C 19.554688 -29.03125 21.789062 -28.59375 23.78125 -27.71875 C 25.78125 -26.851562 27.460938 -25.601562 28.828125 -23.96875 L 24.578125 -20.0625 C 22.648438 -22.289062 20.257812 -23.40625 17.40625 -23.40625 C 15.632812 -23.40625 14.054688 -23.015625 12.671875 -22.234375 C 11.285156 -21.460938 10.207031 -20.382812 9.4375 -19 C 8.664062 -17.613281 8.28125 -16.035156 8.28125 -14.265625 C 8.28125 -12.503906 8.664062 -10.925781 9.4375 -9.53125 C 10.207031 -8.144531 11.285156 -7.066406 12.671875 -6.296875 C 14.054688 -5.523438 15.632812 -5.140625 17.40625 -5.140625 C 20.257812 -5.140625 22.648438 -6.265625 24.578125 -8.515625 L 28.828125 -4.609375 C 27.460938 -2.953125 25.773438 -1.6875 23.765625 -0.8125 C 21.753906 0.0507812 19.515625 0.484375 17.046875 0.484375 Z M 17.046875 0.484375 "/></g></g></g><g fill="#ffffff" fill-opacity="1"><g transform="translate(29.82547, 40.667914)"><g><path d="M 11.78125 -22.265625 C 15.175781 -22.265625 17.785156 -21.453125 19.609375 -19.828125 C 21.429688 -18.210938 22.34375 -15.773438 22.34375 -12.515625 L 22.34375 0 L 16.390625 0 L 16.390625 -2.734375 C 15.191406 -0.691406 12.960938 0.328125 9.703125 0.328125 C 8.015625 0.328125 6.550781 0.0390625 5.3125 -0.53125 C 4.082031 -1.101562 3.140625 -1.890625 2.484375 -2.890625 C 1.835938 -3.898438 1.515625 -5.039062 1.515625 -6.3125 C 1.515625 -8.351562 2.28125 -9.957031 3.8125 -11.125 C 5.34375 -12.289062 7.710938 -12.875 10.921875 -12.875 L 15.984375 -12.875 C 15.984375 -14.269531 15.5625 -15.335938 14.71875 -16.078125 C 13.875 -16.828125 12.609375 -17.203125 10.921875 -17.203125 C 9.753906 -17.203125 8.601562 -17.019531 7.46875 -16.65625 C 6.34375 -16.289062 5.390625 -15.796875 4.609375 -15.171875 L 2.328125 -19.609375 C 3.523438 -20.453125 4.957031 -21.101562 6.625 -21.5625 C 8.289062 -22.03125 10.007812 -22.265625 11.78125 -22.265625 Z M 11.296875 -3.953125 C 12.378906 -3.953125 13.34375 -4.203125 14.1875 -4.703125 C 15.03125 -5.210938 15.628906 -5.957031 15.984375 -6.9375 L 15.984375 -9.171875 L 11.625 -9.171875 C 9.007812 -9.171875 7.703125 -8.316406 7.703125 -6.609375 C 7.703125 -5.785156 8.019531 -5.132812 8.65625 -4.65625 C 9.300781 -4.1875 10.179688 -3.953125 11.296875 -3.953125 Z M 11.296875 -3.953125 "/></g></g></g><g fill="#ffffff" fill-opacity="1"><g transform="translate(54.967551, 40.667914)"><g><path d="M 15.90625 -22.265625 C 17.9375 -22.265625 19.785156 -21.789062 21.453125 -20.84375 C 23.128906 -19.90625 24.441406 -18.585938 25.390625 -16.890625 C 26.347656 -15.191406 26.828125 -13.21875 26.828125 -10.96875 C 26.828125 -8.707031 26.347656 -6.726562 25.390625 -5.03125 C 24.441406 -3.332031 23.128906 -2.015625 21.453125 -1.078125 C 19.785156 -0.140625 17.9375 0.328125 15.90625 0.328125 C 13.101562 0.328125 10.898438 -0.554688 9.296875 -2.328125 L 9.296875 7.90625 L 2.9375 7.90625 L 2.9375 -21.9375 L 9.015625 -21.9375 L 9.015625 -19.40625 C 10.585938 -21.3125 12.882812 -22.265625 15.90625 -22.265625 Z M 14.796875 -4.890625 C 16.429688 -4.890625 17.769531 -5.4375 18.8125 -6.53125 C 19.851562 -7.632812 20.375 -9.113281 20.375 -10.96875 C 20.375 -12.8125 19.851562 -14.285156 18.8125 -15.390625 C 17.769531 -16.492188 16.429688 -17.046875 14.796875 -17.046875 C 13.171875 -17.046875 11.832031 -16.492188 10.78125 -15.390625 C 9.738281 -14.285156 9.21875 -12.8125 9.21875 -10.96875 C 9.21875 -9.113281 9.738281 -7.632812 10.78125 -6.53125 C 11.832031 -5.4375 13.171875 -4.890625 14.796875 -4.890625 Z M 14.796875 -4.890625 "/></g></g></g><g fill="#ffffff" fill-opacity="1"><g transform="translate(82.717416, 40.667914)"><g><path d="M 11.78125 -22.265625 C 15.175781 -22.265625 17.785156 -21.453125 19.609375 -19.828125 C 21.429688 -18.210938 22.34375 -15.773438 22.34375 -12.515625 L 22.34375 0 L 16.390625 0 L 16.390625 -2.734375 C 15.191406 -0.691406 12.960938 0.328125 9.703125 0.328125 C 8.015625 0.328125 6.550781 0.0390625 5.3125 -0.53125 C 4.082031 -1.101562 3.140625 -1.890625 2.484375 -2.890625 C 1.835938 -3.898438 1.515625 -5.039062 1.515625 -6.3125 C 1.515625 -8.351562 2.28125 -9.957031 3.8125 -11.125 C 5.34375 -12.289062 7.710938 -12.875 10.921875 -12.875 L 15.984375 -12.875 C 15.984375 -14.269531 15.5625 -15.335938 14.71875 -16.078125 C 13.875 -16.828125 12.609375 -17.203125 10.921875 -17.203125 C 9.753906 -17.203125 8.601562 -17.019531 7.46875 -16.65625 C 6.34375 -16.289062 5.390625 -15.796875 4.609375 -15.171875 L 2.328125 -19.609375 C 3.523438 -20.453125 4.957031 -21.101562 6.625 -21.5625 C 8.289062 -22.03125 10.007812 -22.265625 11.78125 -22.265625 Z M 11.296875 -3.953125 C 12.378906 -3.953125 13.34375 -4.203125 14.1875 -4.703125 C 15.03125 -5.210938 15.628906 -5.957031 15.984375 -6.9375 L 15.984375 -9.171875 L 11.625 -9.171875 C 9.007812 -9.171875 7.703125 -8.316406 7.703125 -6.609375 C 7.703125 -5.785156 8.019531 -5.132812 8.65625 -4.65625 C 9.300781 -4.1875 10.179688 -3.953125 11.296875 -3.953125 Z M 11.296875 -3.953125 "/></g></g></g><g fill="#ffffff" fill-opacity="1"><g transform="translate(107.859497, 40.667914)"><g><path d="M 2.9375 -21.9375 L 9.296875 -21.9375 L 9.296875 0 L 2.9375 0 Z M 6.109375 -24.984375 C 4.941406 -24.984375 3.988281 -25.320312 3.25 -26 C 2.519531 -26.6875 2.15625 -27.53125 2.15625 -28.53125 C 2.15625 -29.539062 2.519531 -30.382812 3.25 -31.0625 C 3.988281 -31.738281 4.941406 -32.078125 6.109375 -32.078125 C 7.273438 -32.078125 8.222656 -31.75 8.953125 -31.09375 C 9.691406 -30.445312 10.0625 -29.632812 10.0625 -28.65625 C 10.0625 -27.59375 9.691406 -26.710938 8.953125 -26.015625 C 8.222656 -25.328125 7.273438 -24.984375 6.109375 -24.984375 Z M 6.109375 -24.984375 "/></g></g></g><g fill="#ffffff" fill-opacity="1"><g transform="translate(120.124916, 40.667914)"><g><path d="M 11.78125 -22.265625 C 15.175781 -22.265625 17.785156 -21.453125 19.609375 -19.828125 C 21.429688 -18.210938 22.34375 -15.773438 22.34375 -12.515625 L 22.34375 0 L 16.390625 0 L 16.390625 -2.734375 C 15.191406 -0.691406 12.960938 0.328125 9.703125 0.328125 C 8.015625 0.328125 6.550781 0.0390625 5.3125 -0.53125 C 4.082031 -1.101562 3.140625 -1.890625 2.484375 -2.890625 C 1.835938 -3.898438 1.515625 -5.039062 1.515625 -6.3125 C 1.515625 -8.351562 2.28125 -9.957031 3.8125 -11.125 C 5.34375 -12.289062 7.710938 -12.875 10.921875 -12.875 L 15.984375 -12.875 C 15.984375 -14.269531 15.5625 -15.335938 14.71875 -16.078125 C 13.875 -16.828125 12.609375 -17.203125 10.921875 -17.203125 C 9.753906 -17.203125 8.601562 -17.019531 7.46875 -16.65625 C 6.34375 -16.289062 5.390625 -15.796875 4.609375 -15.171875 L 2.328125 -19.609375 C 3.523438 -20.453125 4.957031 -21.101562 6.625 -21.5625 C 8.289062 -22.03125 10.007812 -22.265625 11.78125 -22.265625 Z M 11.296875 -3.953125 C 12.378906 -3.953125 13.34375 -4.203125 14.1875 -4.703125 C 15.03125 -5.210938 15.628906 -5.957031 15.984375 -6.9375 L 15.984375 -9.171875 L 11.625 -9.171875 C 9.007812 -9.171875 7.703125 -8.316406 7.703125 -6.609375 C 7.703125 -5.785156 8.019531 -5.132812 8.65625 -4.65625 C 9.300781 -4.1875 10.179688 -3.953125 11.296875 -3.953125 Z M 11.296875 -3.953125 "/></g></g></g><g fill="#ffffff" fill-opacity="1"><g transform="translate(145.266997, 40.667914)"><g><path d="M 16.265625 -22.265625 C 18.984375 -22.265625 21.175781 -21.445312 22.84375 -19.8125 C 24.519531 -18.175781 25.359375 -15.757812 25.359375 -12.5625 L 25.359375 0 L 19 0 L 19 -11.578125 C 19 -13.316406 18.617188 -14.613281 17.859375 -15.46875 C 17.097656 -16.320312 15.992188 -16.75 14.546875 -16.75 C 12.941406 -16.75 11.664062 -16.253906 10.71875 -15.265625 C 9.769531 -14.273438 9.296875 -12.800781 9.296875 -10.84375 L 9.296875 0 L 2.9375 0 L 2.9375 -21.9375 L 9.015625 -21.9375 L 9.015625 -19.359375 C 9.847656 -20.285156 10.890625 -21 12.140625 -21.5 C 13.390625 -22.007812 14.765625 -22.265625 16.265625 -22.265625 Z M 16.265625 -22.265625 "/></g></g></g><g fill="#ffffff" fill-opacity="1"><g transform="translate(173.42451, 40.667914)"><g/></g></g><g fill="#ffffff" fill-opacity="1"><g transform="translate(184.956458, 40.667914)"><g><path d="M 15.734375 -28.53125 C 18.265625 -28.53125 20.457031 -28.109375 22.3125 -27.265625 C 24.175781 -26.429688 25.609375 -25.238281 26.609375 -23.6875 C 27.617188 -22.132812 28.125 -20.300781 28.125 -18.1875 C 28.125 -16.09375 27.617188 -14.265625 26.609375 -12.703125 C 25.609375 -11.140625 24.175781 -9.941406 22.3125 -9.109375 C 20.457031 -8.285156 18.265625 -7.875 15.734375 -7.875 L 9.984375 -7.875 L 9.984375 0 L 3.390625 0 L 3.390625 -28.53125 Z M 15.375 -13.25 C 17.351562 -13.25 18.859375 -13.675781 19.890625 -14.53125 C 20.921875 -15.382812 21.4375 -16.601562 21.4375 -18.1875 C 21.4375 -19.789062 20.921875 -21.019531 19.890625 -21.875 C 18.859375 -22.726562 17.351562 -23.15625 15.375 -23.15625 L 9.984375 -23.15625 L 9.984375 -13.25 Z M 15.375 -13.25 "/></g></g></g><g fill="#ffffff" fill-opacity="1"><g transform="translate(214.377006, 40.667914)"><g><path d="M 9.015625 -19.03125 C 9.773438 -20.09375 10.796875 -20.894531 12.078125 -21.4375 C 13.367188 -21.988281 14.859375 -22.265625 16.546875 -22.265625 L 16.546875 -16.390625 C 15.835938 -16.441406 15.363281 -16.46875 15.125 -16.46875 C 13.300781 -16.46875 11.875 -15.957031 10.84375 -14.9375 C 9.8125 -13.914062 9.296875 -12.390625 9.296875 -10.359375 L 9.296875 0 L 2.9375 0 L 2.9375 -21.9375 L 9.015625 -21.9375 Z M 9.015625 -19.03125 "/></g></g></g><g fill="#ffffff" fill-opacity="1"><g transform="translate(231.572883, 40.667914)"><g><path d="M 13.375 0.328125 C 11.0625 0.328125 8.988281 -0.148438 7.15625 -1.109375 C 5.320312 -2.078125 3.882812 -3.414062 2.84375 -5.125 C 1.8125 -6.84375 1.296875 -8.789062 1.296875 -10.96875 C 1.296875 -13.144531 1.8125 -15.085938 2.84375 -16.796875 C 3.882812 -18.503906 5.320312 -19.84375 7.15625 -20.8125 C 8.988281 -21.78125 11.0625 -22.265625 13.375 -22.265625 C 15.6875 -22.265625 17.75 -21.78125 19.5625 -20.8125 C 21.382812 -19.84375 22.8125 -18.503906 23.84375 -16.796875 C 24.875 -15.085938 25.390625 -13.144531 25.390625 -10.96875 C 25.390625 -8.789062 24.875 -6.84375 23.84375 -5.125 C 22.8125 -3.414062 21.382812 -2.078125 19.5625 -1.109375 C 17.75 -0.148438 15.6875 0.328125 13.375 0.328125 Z M 13.375 -4.890625 C 15 -4.890625 16.332031 -5.4375 17.375 -6.53125 C 18.425781 -7.632812 18.953125 -9.113281 18.953125 -10.96875 C 18.953125 -12.8125 18.425781 -14.285156 17.375 -15.390625 C 16.332031 -16.492188 15 -17.046875 13.375 -17.046875 C 11.738281 -17.046875 10.390625 -16.492188 9.328125 -15.390625 C 8.273438 -14.285156 7.75 -12.8125 7.75 -10.96875 C 7.75 -9.113281 8.273438 -7.632812 9.328125 -6.53125 C 10.390625 -5.4375 11.738281 -4.890625 13.375 -4.890625 Z M 13.375 -4.890625 "/></g></g></g><g fill="#ffffff" fill-opacity="1"><g transform="translate(258.263419, 40.667914)"><g><path d="M 25.5625 -21.9375 L 25.5625 -3.671875 C 25.5625 0.347656 24.515625 3.335938 22.421875 5.296875 C 20.328125 7.253906 17.269531 8.234375 13.25 8.234375 C 11.125 8.234375 9.109375 7.972656 7.203125 7.453125 C 5.304688 6.941406 3.734375 6.195312 2.484375 5.21875 L 5.015625 0.65625 C 5.941406 1.414062 7.109375 2.019531 8.515625 2.46875 C 9.929688 2.914062 11.347656 3.140625 12.765625 3.140625 C 14.960938 3.140625 16.582031 2.640625 17.625 1.640625 C 18.675781 0.648438 19.203125 -0.847656 19.203125 -2.859375 L 19.203125 -3.796875 C 17.546875 -1.972656 15.234375 -1.0625 12.265625 -1.0625 C 10.253906 -1.0625 8.410156 -1.5 6.734375 -2.375 C 5.066406 -3.257812 3.742188 -4.503906 2.765625 -6.109375 C 1.785156 -7.710938 1.296875 -9.5625 1.296875 -11.65625 C 1.296875 -13.75 1.785156 -15.597656 2.765625 -17.203125 C 3.742188 -18.804688 5.066406 -20.050781 6.734375 -20.9375 C 8.410156 -21.820312 10.253906 -22.265625 12.265625 -22.265625 C 15.453125 -22.265625 17.875 -21.21875 19.53125 -19.125 L 19.53125 -21.9375 Z M 13.53125 -6.28125 C 15.21875 -6.28125 16.597656 -6.773438 17.671875 -7.765625 C 18.742188 -8.753906 19.28125 -10.050781 19.28125 -11.65625 C 19.28125 -13.257812 18.742188 -14.554688 17.671875 -15.546875 C 16.597656 -16.546875 15.21875 -17.046875 13.53125 -17.046875 C 11.84375 -17.046875 10.457031 -16.546875 9.375 -15.546875 C 8.289062 -14.554688 7.75 -13.257812 7.75 -11.65625 C 7.75 -10.050781 8.289062 -8.753906 9.375 -7.765625 C 10.457031 -6.773438 11.84375 -6.28125 13.53125 -6.28125 Z M 13.53125 -6.28125 "/></g></g></g><g fill="#ffffff" fill-opacity="1"><g transform="translate(286.787668, 40.667914)"><g><path d="M 9.015625 -19.03125 C 9.773438 -20.09375 10.796875 -20.894531 12.078125 -21.4375 C 13.367188 -21.988281 14.859375 -22.265625 16.546875 -22.265625 L 16.546875 -16.390625 C 15.835938 -16.441406 15.363281 -16.46875 15.125 -16.46875 C 13.300781 -16.46875 11.875 -15.957031 10.84375 -14.9375 C 9.8125 -13.914062 9.296875 -12.390625 9.296875 -10.359375 L 9.296875 0 L 2.9375 0 L 2.9375 -21.9375 L 9.015625 -21.9375 Z M 9.015625 -19.03125 "/></g></g></g><g fill="#ffffff" fill-opacity="1"><g transform="translate(304.065078, 40.667914)"><g><path d="M 11.78125 -22.265625 C 15.175781 -22.265625 17.785156 -21.453125 19.609375 -19.828125 C 21.429688 -18.210938 22.34375 -15.773438 22.34375 -12.515625 L 22.34375 0 L 16.390625 0 L 16.390625 -2.734375 C 15.191406 -0.691406 12.960938 0.328125 9.703125 0.328125 C 8.015625 0.328125 6.550781 0.0390625 5.3125 -0.53125 C 4.082031 -1.101562 3.140625 -1.890625 2.484375 -2.890625 C 1.835938 -3.898438 1.515625 -5.039062 1.515625 -6.3125 C 1.515625 -8.351562 2.28125 -9.957031 3.8125 -11.125 C 5.34375 -12.289062 7.710938 -12.875 10.921875 -12.875 L 15.984375 -12.875 C 15.984375 -14.269531 15.5625 -15.335938 14.71875 -16.078125 C 13.875 -16.828125 12.609375 -17.203125 10.921875 -17.203125 C 9.753906 -17.203125 8.601562 -17.019531 7.46875 -16.65625 C 6.34375 -16.289062 5.390625 -15.796875 4.609375 -15.171875 L 2.328125 -19.609375 C 3.523438 -20.453125 4.957031 -21.101562 6.625 -21.5625 C 8.289062 -22.03125 10.007812 -22.265625 11.78125 -22.265625 Z M 11.296875 -3.953125 C 12.378906 -3.953125 13.34375 -4.203125 14.1875 -4.703125 C 15.03125 -5.210938 15.628906 -5.957031 15.984375 -6.9375 L 15.984375 -9.171875 L 11.625 -9.171875 C 9.007812 -9.171875 7.703125 -8.316406 7.703125 -6.609375 C 7.703125 -5.785156 8.019531 -5.132812 8.65625 -4.65625 C 9.300781 -4.1875 10.179688 -3.953125 11.296875 -3.953125 Z M 11.296875 -3.953125 "/></g></g></g><g fill="#ffffff" fill-opacity="1"><g transform="translate(329.20714, 40.667914)"><g><path d="M 31.015625 -22.265625 C 33.765625 -22.265625 35.945312 -21.453125 37.5625 -19.828125 C 39.175781 -18.210938 39.984375 -15.789062 39.984375 -12.5625 L 39.984375 0 L 33.625 0 L 33.625 -11.578125 C 33.625 -13.316406 33.265625 -14.613281 32.546875 -15.46875 C 31.828125 -16.320312 30.800781 -16.75 29.46875 -16.75 C 27.976562 -16.75 26.796875 -16.265625 25.921875 -15.296875 C 25.054688 -14.335938 24.625 -12.90625 24.625 -11 L 24.625 0 L 18.265625 0 L 18.265625 -11.578125 C 18.265625 -15.023438 16.878906 -16.75 14.109375 -16.75 C 12.640625 -16.75 11.46875 -16.265625 10.59375 -15.296875 C 9.726562 -14.335938 9.296875 -12.90625 9.296875 -11 L 9.296875 0 L 2.9375 0 L 2.9375 -21.9375 L 9.015625 -21.9375 L 9.015625 -19.40625 C 9.828125 -20.332031 10.820312 -21.039062 12 -21.53125 C 13.1875 -22.019531 14.488281 -22.265625 15.90625 -22.265625 C 17.445312 -22.265625 18.84375 -21.957031 20.09375 -21.34375 C 21.34375 -20.726562 22.347656 -19.835938 23.109375 -18.671875 C 24.003906 -19.804688 25.140625 -20.6875 26.515625 -21.3125 C 27.890625 -21.945312 29.390625 -22.265625 31.015625 -22.265625 Z M 31.015625 -22.265625 "/></g></g></g><g fill="#ffffff" fill-opacity="1"><g transform="translate(0.119574, 97.205185)"><g><path d="M 15.734375 -28.53125 C 18.265625 -28.53125 20.457031 -28.109375 22.3125 -27.265625 C 24.175781 -26.429688 25.609375 -25.238281 26.609375 -23.6875 C 27.617188 -22.132812 28.125 -20.300781 28.125 -18.1875 C 28.125 -16.09375 27.617188 -14.265625 26.609375 -12.703125 C 25.609375 -11.140625 24.175781 -9.941406 22.3125 -9.109375 C 20.457031 -8.285156 18.265625 -7.875 15.734375 -7.875 L 9.984375 -7.875 L 9.984375 0 L 3.390625 0 L 3.390625 -28.53125 Z M 15.375 -13.25 C 17.351562 -13.25 18.859375 -13.675781 19.890625 -14.53125 C 20.921875 -15.382812 21.4375 -16.601562 21.4375 -18.1875 C 21.4375 -19.789062 20.921875 -21.019531 19.890625 -21.875 C 18.859375 -22.726562 17.351562 -23.15625 15.375 -23.15625 L 9.984375 -23.15625 L 9.984375 -13.25 Z M 15.375 -13.25 "/></g></g></g><g fill="#ffffff" fill-opacity="1"><g transform="translate(29.499355, 97.205185)"><g><path d="M 24.421875 -10.890625 C 24.421875 -10.804688 24.378906 -10.234375 24.296875 -9.171875 L 7.703125 -9.171875 C 8.003906 -7.816406 8.710938 -6.742188 9.828125 -5.953125 C 10.941406 -5.160156 12.328125 -4.765625 13.984375 -4.765625 C 15.117188 -4.765625 16.128906 -4.929688 17.015625 -5.265625 C 17.898438 -5.609375 18.722656 -6.148438 19.484375 -6.890625 L 22.875 -3.21875 C 20.800781 -0.851562 17.78125 0.328125 13.8125 0.328125 C 11.34375 0.328125 9.15625 -0.148438 7.25 -1.109375 C 5.351562 -2.078125 3.882812 -3.414062 2.84375 -5.125 C 1.8125 -6.84375 1.296875 -8.789062 1.296875 -10.96875 C 1.296875 -13.113281 1.804688 -15.046875 2.828125 -16.765625 C 3.847656 -18.492188 5.25 -19.84375 7.03125 -20.8125 C 8.8125 -21.78125 10.800781 -22.265625 13 -22.265625 C 15.144531 -22.265625 17.085938 -21.800781 18.828125 -20.875 C 20.566406 -19.945312 21.929688 -18.617188 22.921875 -16.890625 C 23.921875 -15.171875 24.421875 -13.171875 24.421875 -10.890625 Z M 13.046875 -17.453125 C 11.609375 -17.453125 10.398438 -17.039062 9.421875 -16.21875 C 8.441406 -15.40625 7.84375 -14.289062 7.625 -12.875 L 18.421875 -12.875 C 18.203125 -14.269531 17.601562 -15.378906 16.625 -16.203125 C 15.65625 -17.035156 14.460938 -17.453125 13.046875 -17.453125 Z M 13.046875 -17.453125 "/></g></g></g><g fill="#ffffff" fill-opacity="1"><g transform="translate(55.211931, 97.205185)"><g><path d="M 2.9375 -30.25 L 9.296875 -30.25 L 9.296875 0 L 2.9375 0 Z M 2.9375 -30.25 "/></g></g></g><g fill="#ffffff" fill-opacity="1"><g transform="translate(67.477349, 97.205185)"><g><path d="M 11.78125 -22.265625 C 15.175781 -22.265625 17.785156 -21.453125 19.609375 -19.828125 C 21.429688 -18.210938 22.34375 -15.773438 22.34375 -12.515625 L 22.34375 0 L 16.390625 0 L 16.390625 -2.734375 C 15.191406 -0.691406 12.960938 0.328125 9.703125 0.328125 C 8.015625 0.328125 6.550781 0.0390625 5.3125 -0.53125 C 4.082031 -1.101562 3.140625 -1.890625 2.484375 -2.890625 C 1.835938 -3.898438 1.515625 -5.039062 1.515625 -6.3125 C 1.515625 -8.351562 2.28125 -9.957031 3.8125 -11.125 C 5.34375 -12.289062 7.710938 -12.875 10.921875 -12.875 L 15.984375 -12.875 C 15.984375 -14.269531 15.5625 -15.335938 14.71875 -16.078125 C 13.875 -16.828125 12.609375 -17.203125 10.921875 -17.203125 C 9.753906 -17.203125 8.601562 -17.019531 7.46875 -16.65625 C 6.34375 -16.289062 5.390625 -15.796875 4.609375 -15.171875 L 2.328125 -19.609375 C 3.523438 -20.453125 4.957031 -21.101562 6.625 -21.5625 C 8.289062 -22.03125 10.007812 -22.265625 11.78125 -22.265625 Z M 11.296875 -3.953125 C 12.378906 -3.953125 13.34375 -4.203125 14.1875 -4.703125 C 15.03125 -5.210938 15.628906 -5.957031 15.984375 -6.9375 L 15.984375 -9.171875 L 11.625 -9.171875 C 9.007812 -9.171875 7.703125 -8.316406 7.703125 -6.609375 C 7.703125 -5.785156 8.019531 -5.132812 8.65625 -4.65625 C 9.300781 -4.1875 10.179688 -3.953125 11.296875 -3.953125 Z M 11.296875 -3.953125 "/></g></g></g><g fill="#ffffff" fill-opacity="1"><g transform="translate(92.61943, 97.205185)"><g><path d="M 17.078125 -1.0625 C 16.453125 -0.59375 15.679688 -0.242188 14.765625 -0.015625 C 13.859375 0.210938 12.90625 0.328125 11.90625 0.328125 C 9.289062 0.328125 7.269531 -0.335938 5.84375 -1.671875 C 4.414062 -3.003906 3.703125 -4.960938 3.703125 -7.546875 L 3.703125 -16.546875 L 0.328125 -16.546875 L 0.328125 -21.4375 L 3.703125 -21.4375 L 3.703125 -26.78125 L 10.0625 -26.78125 L 10.0625 -21.4375 L 15.53125 -21.4375 L 15.53125 -16.546875 L 10.0625 -16.546875 L 10.0625 -7.625 C 10.0625 -6.695312 10.300781 -5.984375 10.78125 -5.484375 C 11.257812 -4.984375 11.929688 -4.734375 12.796875 -4.734375 C 13.804688 -4.734375 14.664062 -5.003906 15.375 -5.546875 Z M 17.078125 -1.0625 "/></g></g></g><g fill="#ffffff" fill-opacity="1"><g transform="translate(110.345219, 97.205185)"><g><path d="M 2.9375 -21.9375 L 9.296875 -21.9375 L 9.296875 0 L 2.9375 0 Z M 6.109375 -24.984375 C 4.941406 -24.984375 3.988281 -25.320312 3.25 -26 C 2.519531 -26.6875 2.15625 -27.53125 2.15625 -28.53125 C 2.15625 -29.539062 2.519531 -30.382812 3.25 -31.0625 C 3.988281 -31.738281 4.941406 -32.078125 6.109375 -32.078125 C 7.273438 -32.078125 8.222656 -31.75 8.953125 -31.09375 C 9.691406 -30.445312 10.0625 -29.632812 10.0625 -28.65625 C 10.0625 -27.59375 9.691406 -26.710938 8.953125 -26.015625 C 8.222656 -25.328125 7.273438 -24.984375 6.109375 -24.984375 Z M 6.109375 -24.984375 "/></g></g></g><g fill="#ffffff" fill-opacity="1"><g transform="translate(122.610638, 97.205185)"><g><path d="M 16.265625 -22.265625 C 18.984375 -22.265625 21.175781 -21.445312 22.84375 -19.8125 C 24.519531 -18.175781 25.359375 -15.757812 25.359375 -12.5625 L 25.359375 0 L 19 0 L 19 -11.578125 C 19 -13.316406 18.617188 -14.613281 17.859375 -15.46875 C 17.097656 -16.320312 15.992188 -16.75 14.546875 -16.75 C 12.941406 -16.75 11.664062 -16.253906 10.71875 -15.265625 C 9.769531 -14.273438 9.296875 -12.800781 9.296875 -10.84375 L 9.296875 0 L 2.9375 0 L 2.9375 -30.25 L 9.296875 -30.25 L 9.296875 -19.65625 C 10.140625 -20.488281 11.15625 -21.128906 12.34375 -21.578125 C 13.539062 -22.035156 14.847656 -22.265625 16.265625 -22.265625 Z M 16.265625 -22.265625 "/></g></g></g><g fill="#ffffff" fill-opacity="1"><g transform="translate(150.768151, 97.205185)"><g><path d="M 11.78125 -22.265625 C 15.175781 -22.265625 17.785156 -21.453125 19.609375 -19.828125 C 21.429688 -18.210938 22.34375 -15.773438 22.34375 -12.515625 L 22.34375 0 L 16.390625 0 L 16.390625 -2.734375 C 15.191406 -0.691406 12.960938 0.328125 9.703125 0.328125 C 8.015625 0.328125 6.550781 0.0390625 5.3125 -0.53125 C 4.082031 -1.101562 3.140625 -1.890625 2.484375 -2.890625 C 1.835938 -3.898438 1.515625 -5.039062 1.515625 -6.3125 C 1.515625 -8.351562 2.28125 -9.957031 3.8125 -11.125 C 5.34375 -12.289062 7.710938 -12.875 10.921875 -12.875 L 15.984375 -12.875 C 15.984375 -14.269531 15.5625 -15.335938 14.71875 -16.078125 C 13.875 -16.828125 12.609375 -17.203125 10.921875 -17.203125 C 9.753906 -17.203125 8.601562 -17.019531 7.46875 -16.65625 C 6.34375 -16.289062 5.390625 -15.796875 4.609375 -15.171875 L 2.328125 -19.609375 C 3.523438 -20.453125 4.957031 -21.101562 6.625 -21.5625 C 8.289062 -22.03125 10.007812 -22.265625 11.78125 -22.265625 Z M 11.296875 -3.953125 C 12.378906 -3.953125 13.34375 -4.203125 14.1875 -4.703125 C 15.03125 -5.210938 15.628906 -5.957031 15.984375 -6.9375 L 15.984375 -9.171875 L 11.625 -9.171875 C 9.007812 -9.171875 7.703125 -8.316406 7.703125 -6.609375 C 7.703125 -5.785156 8.019531 -5.132812 8.65625 -4.65625 C 9.300781 -4.1875 10.179688 -3.953125 11.296875 -3.953125 Z M 11.296875 -3.953125 "/></g></g></g><g fill="#ffffff" fill-opacity="1"><g transform="translate(175.910232, 97.205185)"><g><path d="M 16.265625 -22.265625 C 18.984375 -22.265625 21.175781 -21.445312 22.84375 -19.8125 C 24.519531 -18.175781 25.359375 -15.757812 25.359375 -12.5625 L 25.359375 0 L 19 0 L 19 -11.578125 C 19 -13.316406 18.617188 -14.613281 17.859375 -15.46875 C 17.097656 -16.320312 15.992188 -16.75 14.546875 -16.75 C 12.941406 -16.75 11.664062 -16.253906 10.71875 -15.265625 C 9.769531 -14.273438 9.296875 -12.800781 9.296875 -10.84375 L 9.296875 0 L 2.9375 0 L 2.9375 -21.9375 L 9.015625 -21.9375 L 9.015625 -19.359375 C 9.847656 -20.285156 10.890625 -21 12.140625 -21.5 C 13.390625 -22.007812 14.765625 -22.265625 16.265625 -22.265625 Z M 16.265625 -22.265625 "/></g></g></g><g fill="#ffffff" fill-opacity="1"><g transform="translate(204.067745, 97.205185)"><g/></g></g><g fill="#ffffff" fill-opacity="1"><g transform="translate(215.599694, 97.205185)"><g><path d="M 30.8125 -28.53125 L 18.46875 0 L 11.9375 0 L -0.359375 -28.53125 L 6.765625 -28.53125 L 15.453125 -8.15625 L 24.25 -28.53125 Z M 30.8125 -28.53125 "/></g></g></g><g fill="#ffffff" fill-opacity="1"><g transform="translate(243.756198, 97.205185)"><g><path d="M 13.375 0.328125 C 11.0625 0.328125 8.988281 -0.148438 7.15625 -1.109375 C 5.320312 -2.078125 3.882812 -3.414062 2.84375 -5.125 C 1.8125 -6.84375 1.296875 -8.789062 1.296875 -10.96875 C 1.296875 -13.144531 1.8125 -15.085938 2.84375 -16.796875 C 3.882812 -18.503906 5.320312 -19.84375 7.15625 -20.8125 C 8.988281 -21.78125 11.0625 -22.265625 13.375 -22.265625 C 15.6875 -22.265625 17.75 -21.78125 19.5625 -20.8125 C 21.382812 -19.84375 22.8125 -18.503906 23.84375 -16.796875 C 24.875 -15.085938 25.390625 -13.144531 25.390625 -10.96875 C 25.390625 -8.789062 24.875 -6.84375 23.84375 -5.125 C 22.8125 -3.414062 21.382812 -2.078125 19.5625 -1.109375 C 17.75 -0.148438 15.6875 0.328125 13.375 0.328125 Z M 13.375 -4.890625 C 15 -4.890625 16.332031 -5.4375 17.375 -6.53125 C 18.425781 -7.632812 18.953125 -9.113281 18.953125 -10.96875 C 18.953125 -12.8125 18.425781 -14.285156 17.375 -15.390625 C 16.332031 -16.492188 15 -17.046875 13.375 -17.046875 C 11.738281 -17.046875 10.390625 -16.492188 9.328125 -15.390625 C 8.273438 -14.285156 7.75 -12.8125 7.75 -10.96875 C 7.75 -9.113281 8.273438 -7.632812 9.328125 -6.53125 C 10.390625 -5.4375 11.738281 -4.890625 13.375 -4.890625 Z M 13.375 -4.890625 "/></g></g></g><g fill="#ffffff" fill-opacity="1"><g transform="translate(270.446733, 97.205185)"><g><path d="M 12.359375 -8.59375 L 9.296875 -5.578125 L 9.296875 0 L 2.9375 0 L 2.9375 -30.25 L 9.296875 -30.25 L 9.296875 -13.125 L 18.59375 -21.9375 L 26.171875 -21.9375 L 17.046875 -12.640625 L 26.984375 0 L 19.28125 0 Z M 12.359375 -8.59375 "/></g></g></g><g fill="#ffffff" fill-opacity="1"><g transform="translate(296.933362, 97.205185)"><g><path d="M 11.78125 -22.265625 C 15.175781 -22.265625 17.785156 -21.453125 19.609375 -19.828125 C 21.429688 -18.210938 22.34375 -15.773438 22.34375 -12.515625 L 22.34375 0 L 16.390625 0 L 16.390625 -2.734375 C 15.191406 -0.691406 12.960938 0.328125 9.703125 0.328125 C 8.015625 0.328125 6.550781 0.0390625 5.3125 -0.53125 C 4.082031 -1.101562 3.140625 -1.890625 2.484375 -2.890625 C 1.835938 -3.898438 1.515625 -5.039062 1.515625 -6.3125 C 1.515625 -8.351562 2.28125 -9.957031 3.8125 -11.125 C 5.34375 -12.289062 7.710938 -12.875 10.921875 -12.875 L 15.984375 -12.875 C 15.984375 -14.269531 15.5625 -15.335938 14.71875 -16.078125 C 13.875 -16.828125 12.609375 -17.203125 10.921875 -17.203125 C 9.753906 -17.203125 8.601562 -17.019531 7.46875 -16.65625 C 6.34375 -16.289062 5.390625 -15.796875 4.609375 -15.171875 L 2.328125 -19.609375 C 3.523438 -20.453125 4.957031 -21.101562 6.625 -21.5625 C 8.289062 -22.03125 10.007812 -22.265625 11.78125 -22.265625 Z M 11.296875 -3.953125 C 12.378906 -3.953125 13.34375 -4.203125 14.1875 -4.703125 C 15.03125 -5.210938 15.628906 -5.957031 15.984375 -6.9375 L 15.984375 -9.171875 L 11.625 -9.171875 C 9.007812 -9.171875 7.703125 -8.316406 7.703125 -6.609375 C 7.703125 -5.785156 8.019531 -5.132812 8.65625 -4.65625 C 9.300781 -4.1875 10.179688 -3.953125 11.296875 -3.953125 Z M 11.296875 -3.953125 "/></g></g></g><g fill="#ffffff" fill-opacity="1"><g transform="translate(322.075443, 97.205185)"><g><path d="M 10.3125 0.328125 C 8.488281 0.328125 6.707031 0.101562 4.96875 -0.34375 C 3.226562 -0.789062 1.84375 -1.351562 0.8125 -2.03125 L 2.9375 -6.609375 C 3.914062 -5.984375 5.097656 -5.472656 6.484375 -5.078125 C 7.867188 -4.679688 9.226562 -4.484375 10.5625 -4.484375 C 13.25 -4.484375 14.59375 -5.148438 14.59375 -6.484375 C 14.59375 -7.109375 14.222656 -7.554688 13.484375 -7.828125 C 12.753906 -8.097656 11.628906 -8.328125 10.109375 -8.515625 C 8.316406 -8.785156 6.832031 -9.097656 5.65625 -9.453125 C 4.488281 -9.804688 3.476562 -10.429688 2.625 -11.328125 C 1.769531 -12.222656 1.34375 -13.503906 1.34375 -15.171875 C 1.34375 -16.554688 1.742188 -17.785156 2.546875 -18.859375 C 3.347656 -19.929688 4.515625 -20.765625 6.046875 -21.359375 C 7.585938 -21.960938 9.40625 -22.265625 11.5 -22.265625 C 13.039062 -22.265625 14.578125 -22.09375 16.109375 -21.75 C 17.648438 -21.40625 18.925781 -20.9375 19.9375 -20.34375 L 17.8125 -15.8125 C 15.882812 -16.90625 13.78125 -17.453125 11.5 -17.453125 C 10.132812 -17.453125 9.113281 -17.257812 8.4375 -16.875 C 7.757812 -16.5 7.421875 -16.007812 7.421875 -15.40625 C 7.421875 -14.726562 7.785156 -14.253906 8.515625 -13.984375 C 9.253906 -13.710938 10.425781 -13.453125 12.03125 -13.203125 C 13.820312 -12.910156 15.285156 -12.59375 16.421875 -12.25 C 17.566406 -11.90625 18.5625 -11.285156 19.40625 -10.390625 C 20.25 -9.492188 20.671875 -8.242188 20.671875 -6.640625 C 20.671875 -5.285156 20.257812 -4.078125 19.4375 -3.015625 C 18.625 -1.953125 17.4375 -1.128906 15.875 -0.546875 C 14.3125 0.0351562 12.457031 0.328125 10.3125 0.328125 Z M 10.3125 0.328125 "/></g></g></g><g fill="#ffffff" fill-opacity="1"><g transform="translate(343.713111, 97.205185)"><g><path d="M 2.9375 -21.9375 L 9.296875 -21.9375 L 9.296875 0 L 2.9375 0 Z M 6.109375 -24.984375 C 4.941406 -24.984375 3.988281 -25.320312 3.25 -26 C 2.519531 -26.6875 2.15625 -27.53125 2.15625 -28.53125 C 2.15625 -29.539062 2.519531 -30.382812 3.25 -31.0625 C 3.988281 -31.738281 4.941406 -32.078125 6.109375 -32.078125 C 7.273438 -32.078125 8.222656 -31.75 8.953125 -31.09375 C 9.691406 -30.445312 10.0625 -29.632812 10.0625 -28.65625 C 10.0625 -27.59375 9.691406 -26.710938 8.953125 -26.015625 C 8.222656 -25.328125 7.273438 -24.984375 6.109375 -24.984375 Z M 6.109375 -24.984375 "/></g></g></g></g></g><g transform="matrix(1, 0, 0, 1, 305, 20)"><g clip-path="url(#10a9379ac9)"><g clip-path="url(#0049b0064b)"><g fill="#0a457b" fill-opacity="1"><g transform="translate(0.120644, 66.940018)"><g><path d="M 40.328125 -9.46875 L 40.328125 0 L 2.375 0 L 2.375 -7.53125 L 21.75 -25.828125 C 23.800781 -27.796875 25.1875 -29.484375 25.90625 -30.890625 C 26.625 -32.304688 26.984375 -33.707031 26.984375 -35.09375 C 26.984375 -37.101562 26.300781 -38.644531 24.9375 -39.71875 C 23.570312 -40.800781 21.578125 -41.34375 18.953125 -41.34375 C 16.742188 -41.34375 14.753906 -40.921875 12.984375 -40.078125 C 11.210938 -39.242188 9.734375 -37.988281 8.546875 -36.3125 L 0.078125 -41.765625 C 2.035156 -44.679688 4.734375 -46.960938 8.171875 -48.609375 C 11.617188 -50.265625 15.566406 -51.09375 20.015625 -51.09375 C 23.753906 -51.09375 27.019531 -50.484375 29.8125 -49.265625 C 32.613281 -48.046875 34.789062 -46.320312 36.34375 -44.09375 C 37.90625 -41.875 38.6875 -39.253906 38.6875 -36.234375 C 38.6875 -33.515625 38.109375 -30.957031 36.953125 -28.5625 C 35.804688 -26.164062 33.582031 -23.4375 30.28125 -20.375 L 18.734375 -9.46875 Z M 40.328125 -9.46875 "/></g></g></g></g></g></g></svg>