<svg xmlns="http://www.w3.org/2000/svg" xmlns:xlink="http://www.w3.org/1999/xlink" width="1168" zoomAndPan="magnify" viewBox="0 0 876 253.499997" height="338" preserveAspectRatio="xMidYMid meet" version="1.0"><defs><g/><clipPath id="cddb01a1f6"><path d="M 0.863281 0 L 863 0 L 863 252.578125 L 0.863281 252.578125 Z M 0.863281 0 " clip-rule="nonzero"/></clipPath><clipPath id="66e7174e78"><path d="M 33.046875 0 L 830.695312 0 C 848.472656 0 862.882812 14.410156 862.882812 32.1875 L 862.882812 220.390625 C 862.882812 238.167969 848.472656 252.578125 830.695312 252.578125 L 33.046875 252.578125 C 15.273438 252.578125 0.863281 238.167969 0.863281 220.390625 L 0.863281 32.1875 C 0.863281 14.410156 15.273438 0 33.046875 0 Z M 33.046875 0 " clip-rule="nonzero"/></clipPath><clipPath id="e13fa65b9b"><path d="M 0.863281 0 L 862.921875 0 L 862.921875 252.578125 L 0.863281 252.578125 Z M 0.863281 0 " clip-rule="nonzero"/></clipPath><clipPath id="d272567d63"><path d="M 33.046875 0 L 830.695312 0 C 848.472656 0 862.882812 14.410156 862.882812 32.1875 L 862.882812 220.390625 C 862.882812 238.167969 848.472656 252.578125 830.695312 252.578125 L 33.046875 252.578125 C 15.273438 252.578125 0.863281 238.167969 0.863281 220.390625 L 0.863281 32.1875 C 0.863281 14.410156 15.273438 0 33.046875 0 Z M 33.046875 0 " clip-rule="nonzero"/></clipPath><clipPath id="ff9b9e8f37"><rect x="0" width="863" y="0" height="253"/></clipPath><clipPath id="5c689d7da2"><path d="M 271.132812 26.824219 L 862.976562 26.824219 L 862.976562 103.464844 L 271.132812 103.464844 Z M 271.132812 26.824219 " clip-rule="nonzero"/></clipPath><clipPath id="6a680711f7"><path d="M 309.449219 26.824219 L 824.5625 26.824219 C 834.726562 26.824219 844.472656 30.863281 851.660156 38.050781 C 858.84375 45.234375 862.882812 54.980469 862.882812 65.144531 C 862.882812 75.308594 858.84375 85.054688 851.660156 92.238281 C 844.472656 99.425781 834.726562 103.464844 824.5625 103.464844 L 309.449219 103.464844 C 299.289062 103.464844 289.539062 99.425781 282.355469 92.238281 C 275.167969 85.054688 271.132812 75.308594 271.132812 65.144531 C 271.132812 54.980469 275.167969 45.234375 282.355469 38.050781 C 289.539062 30.863281 299.289062 26.824219 309.449219 26.824219 Z M 309.449219 26.824219 " clip-rule="nonzero"/></clipPath><clipPath id="5362e5c839"><path d="M 0.132812 0.824219 L 591.921875 0.824219 L 591.921875 77.464844 L 0.132812 77.464844 Z M 0.132812 0.824219 " clip-rule="nonzero"/></clipPath><clipPath id="718f55d5f3"><path d="M 38.449219 0.824219 L 553.5625 0.824219 C 563.726562 0.824219 573.472656 4.863281 580.660156 12.050781 C 587.84375 19.234375 591.882812 28.980469 591.882812 39.144531 C 591.882812 49.308594 587.84375 59.054688 580.660156 66.238281 C 573.472656 73.425781 563.726562 77.464844 553.5625 77.464844 L 38.449219 77.464844 C 28.289062 77.464844 18.539062 73.425781 11.355469 66.238281 C 4.167969 59.054688 0.132812 49.308594 0.132812 39.144531 C 0.132812 28.980469 4.167969 19.234375 11.355469 12.050781 C 18.539062 4.863281 28.289062 0.824219 38.449219 0.824219 Z M 38.449219 0.824219 " clip-rule="nonzero"/></clipPath><clipPath id="73ee7c33a4"><rect x="0" width="592" y="0" height="78"/></clipPath><clipPath id="dec6a7c1ce"><path d="M 36.03125 25.832031 L 234.386719 25.832031 L 234.386719 221.195312 L 36.03125 221.195312 Z M 36.03125 25.832031 " clip-rule="nonzero"/></clipPath><clipPath id="f4874aaeba"><rect x="0" width="555" y="0" height="109"/></clipPath><clipPath id="fc3df1f9fb"><rect x="0" width="52" y="0" height="88"/></clipPath></defs><g clip-path="url(#cddb01a1f6)"><g clip-path="url(#66e7174e78)"><g transform="matrix(1, 0, 0, 1, 0, 0)"><g clip-path="url(#ff9b9e8f37)"><g clip-path="url(#e13fa65b9b)"><g clip-path="url(#d272567d63)"><path fill="#0a457b" d="M 0.863281 0 L 863.175781 0 L 863.175781 252.578125 L 0.863281 252.578125 Z M 0.863281 0 " fill-opacity="1" fill-rule="nonzero"/></g></g></g></g></g></g><g clip-path="url(#5c689d7da2)"><g clip-path="url(#6a680711f7)"><g transform="matrix(1, 0, 0, 1, 271, 26)"><g clip-path="url(#73ee7c33a4)"><g clip-path="url(#5362e5c839)"><g clip-path="url(#718f55d5f3)"><path fill="#68ab3d" d="M 0.132812 0.824219 L 591.976562 0.824219 L 591.976562 77.464844 L 0.132812 77.464844 Z M 0.132812 0.824219 " fill-opacity="1" fill-rule="nonzero"/></g></g></g></g></g></g><g clip-path="url(#dec6a7c1ce)"><path fill="#ffffff" d="M 220.050781 108.648438 L 230.632812 112.089844 C 236.230469 113.90625 234.308594 125.101562 234.308594 130.257812 C 234.308594 132.597656 232.863281 134.589844 230.632812 135.3125 L 220.050781 138.75 C 219.902344 138.800781 219.800781 138.917969 219.773438 139.070312 C 218.09375 148.375 214.914062 157.160156 210.496094 165.167969 C 210.421875 165.304688 210.425781 165.460938 210.511719 165.589844 L 216.5 174.828125 C 217.773438 176.792969 217.644531 179.25 216.167969 181.070312 L 207.90625 191.253906 C 206.433594 193.070312 204.054688 193.707031 201.871094 192.863281 L 191.550781 188.894531 C 191.402344 188.835938 191.25 188.863281 191.132812 188.964844 C 184.675781 194.507812 177.386719 199.105469 169.480469 202.554688 C 169.339844 202.617188 169.246094 202.742188 169.234375 202.898438 L 168.324219 213.949219 C 168.132812 216.28125 166.527344 218.148438 164.25 218.683594 L 152.273438 221.515625 C 152.011719 221.574219 151.765625 221.378906 151.765625 221.113281 L 151.765625 191.726562 C 151.765625 191.535156 151.890625 191.375 152.078125 191.328125 C 182.394531 183.769531 204.859375 156.359375 204.859375 123.699219 C 204.859375 91.042969 182.398438 63.632812 152.078125 56.074219 C 151.894531 56.027344 151.765625 55.867188 151.765625 55.671875 L 151.765625 26.273438 C 151.765625 26.007812 152.011719 25.8125 152.273438 25.875 L 164.230469 28.683594 C 166.507812 29.21875 168.113281 31.082031 168.308594 33.417969 L 169.234375 44.503906 C 169.25 44.660156 169.339844 44.785156 169.480469 44.847656 C 177.347656 48.277344 184.601562 52.851562 191.035156 58.351562 C 191.152344 58.453125 191.304688 58.480469 191.453125 58.425781 L 201.847656 54.398438 C 204.035156 53.554688 206.410156 54.183594 207.890625 56 C 211.144531 59.996094 219.707031 67.457031 216.515625 72.40625 L 210.480469 81.757812 C 210.394531 81.886719 210.390625 82.042969 210.46875 82.179688 C 214.898438 90.199219 218.089844 99.003906 219.773438 108.332031 C 219.800781 108.484375 219.902344 108.601562 220.050781 108.648438 Z M 50.265625 108.648438 L 39.683594 112.089844 C 37.457031 112.8125 36.011719 114.800781 36.011719 117.144531 L 36.011719 130.257812 C 36.011719 132.597656 37.457031 134.589844 39.683594 135.3125 L 45.917969 137.339844 C 53.492188 139.800781 55.5 157.136719 59.824219 165.167969 C 59.898438 165.304688 59.890625 165.457031 59.808594 165.589844 L 53.816406 174.828125 C 52.542969 176.792969 52.675781 179.25 54.152344 181.070312 L 62.410156 191.253906 C 63.886719 193.070312 66.261719 193.707031 68.449219 192.863281 L 78.769531 188.894531 C 78.914062 188.835938 79.066406 188.863281 79.1875 188.964844 C 85.640625 194.507812 92.929688 199.105469 100.835938 202.554688 C 100.980469 202.617188 101.070312 202.742188 101.082031 202.898438 L 101.992188 213.949219 C 102.1875 216.28125 103.789062 218.148438 106.070312 218.683594 L 118.046875 221.515625 C 118.304688 221.574219 118.554688 221.378906 118.554688 221.113281 L 118.554688 191.726562 C 118.554688 191.535156 118.425781 191.375 118.238281 191.328125 C 87.921875 183.765625 65.457031 156.359375 65.457031 123.699219 C 65.457031 91.042969 87.921875 63.632812 118.238281 56.074219 C 118.425781 56.027344 118.554688 55.867188 118.554688 55.671875 L 118.554688 26.273438 C 118.554688 26.007812 118.304688 25.8125 118.046875 25.875 L 106.089844 28.683594 C 103.808594 29.21875 102.203125 31.082031 102.007812 33.417969 L 101.082031 44.503906 C 101.070312 44.660156 100.980469 44.785156 100.835938 44.847656 C 92.96875 48.277344 85.71875 52.851562 79.285156 58.351562 C 79.167969 58.453125 79.011719 58.480469 78.867188 58.425781 L 68.472656 54.398438 C 66.285156 53.554688 63.910156 54.183594 62.429688 56 L 54.148438 66.164062 C 52.667969 67.980469 52.53125 70.4375 53.800781 72.402344 L 59.835938 81.757812 C 59.921875 81.886719 59.925781 82.042969 59.851562 82.179688 C 55.417969 90.199219 52.230469 99.003906 50.546875 108.332031 C 50.519531 108.484375 50.414062 108.601562 50.265625 108.648438 Z M 124.792969 163.03125 L 125.0625 162.632812 C 126.851562 160.207031 130.628906 160.117188 132.429688 162.785156 C 133.453125 164.3125 133.488281 166.246094 132.476562 167.789062 L 126.554688 176.800781 C 124.398438 180.078125 119.210938 179.246094 118.378906 175.238281 C 118.15625 174.160156 118.269531 172.945312 118.890625 172.019531 Z M 121.660156 149.320312 L 121.675781 149.296875 L 122.011719 149.515625 C 123.953125 150.796875 124.621094 153.394531 123.523438 155.414062 L 123.546875 155.433594 L 120.792969 159.628906 L 120.800781 159.632812 L 114.648438 168.976562 C 112.929688 171.5625 109.03125 171.765625 107.175781 169.0625 C 106.125 167.535156 106.078125 165.566406 107.101562 164.011719 L 115.765625 150.828125 C 117.023438 148.925781 119.609375 148.203125 121.660156 149.320312 Z M 103.863281 142.996094 C 105.570312 140.402344 109.511719 140.199219 111.367188 142.953125 C 112.394531 144.480469 112.425781 146.414062 111.414062 147.957031 L 102.742188 161.148438 C 101.035156 163.746094 97.089844 163.945312 95.238281 161.1875 C 94.214844 159.664062 94.179688 157.726562 95.191406 156.1875 Z M 90.832031 153.335938 C 89.003906 156.011719 85.132812 156.039062 83.335938 153.367188 C 82.308594 151.839844 82.277344 149.90625 83.289062 148.363281 L 91.960938 135.171875 C 93.648438 132.601562 97.558594 132.363281 99.429688 135.074219 C 100.480469 136.601562 100.53125 138.574219 99.507812 140.132812 L 90.835938 153.328125 C 90.835938 153.332031 90.832031 153.332031 90.832031 153.335938 Z M 142.144531 106.601562 L 124.84375 122.8125 C 124.625 123.015625 124.683594 123.371094 124.957031 123.492188 C 126.90625 124.367188 128.941406 124.992188 131.042969 125.390625 C 133.902344 125.929688 137.5 126.589844 140.304688 125.507812 C 141.382812 125.09375 142.332031 124.464844 143.234375 123.753906 C 144.828125 122.5 147.097656 120.332031 148.695312 118.863281 C 149.539062 118.089844 150.785156 117.953125 151.777344 118.527344 L 171.375 129.84375 C 178.851562 134.160156 177.359375 145.4375 169.019531 147.671875 C 168.351562 147.851562 167.640625 147.800781 167.734375 148.351562 C 168.609375 153.601562 165.007812 158.578125 159.777344 159.476562 C 159.554688 159.515625 159.402344 159.730469 159.441406 159.953125 C 159.609375 160.972656 159.398438 161.828125 160.035156 161.75 C 162.855469 161.410156 165.914062 160.328125 168.53125 159.242188 C 174.917969 156.589844 180.691406 153.015625 186 148.582031 C 188.75 146.289062 191.730469 144.828125 195.0625 144.144531 C 195.210938 144.117188 195.324219 144.015625 195.375 143.875 C 199.695312 130.984375 199.765625 117.015625 195.558594 104.078125 C 195.5 103.898438 195.335938 103.785156 195.148438 103.792969 C 189.046875 104.050781 182.9375 104.277344 176.847656 104.175781 C 172.878906 104.109375 168.960938 103.449219 165.058594 102.792969 C 157.316406 101.492188 147.992188 99.832031 142.144531 106.601562 Z M 128.75 106.691406 C 128.738281 106.683594 128.734375 106.675781 128.726562 106.667969 C 122.777344 99.808594 113.511719 101.480469 105.621094 102.824219 C 101.742188 103.484375 97.917969 104.109375 93.96875 104.175781 C 87.714844 104.28125 81.441406 104.039062 75.179688 103.773438 C 74.992188 103.765625 74.828125 103.878906 74.769531 104.058594 C 70.597656 116.867188 70.617188 130.714844 74.824219 143.511719 C 74.878906 143.675781 75.023438 143.785156 75.199219 143.796875 L 79.679688 143.996094 C 79.828125 144.003906 79.960938 143.9375 80.042969 143.8125 L 87.601562 132.308594 C 92.328125 125.117188 103.441406 127.199219 105.242188 135.625 C 105.289062 135.84375 105.507812 135.984375 105.730469 135.941406 C 110.953125 134.890625 116.039062 138.253906 117.148438 143.449219 C 117.195312 143.667969 117.414062 143.8125 117.632812 143.765625 C 124.40625 142.402344 130.386719 148.339844 129.101562 155.121094 C 129.054688 155.367188 129.230469 155.59375 129.476562 155.613281 C 136.816406 156.1875 140.875 164.5 136.832031 170.652344 L 134.667969 173.945312 C 134.535156 174.144531 134.597656 174.410156 134.804688 174.53125 L 138.464844 176.644531 C 141.902344 178.625 146.109375 175.476562 145.0625 171.566406 C 144.484375 169.414062 143.117188 169.371094 143.492188 168.730469 L 145.722656 164.871094 C 146.289062 163.898438 147.789062 166.757812 151.007812 165.898438 C 154.527344 164.953125 155.503906 160.46875 152.78125 158.132812 C 150.382812 156.074219 153.078125 152.160156 155.988281 153.863281 C 157.664062 154.84375 159.851562 154.433594 161.246094 153.136719 C 163.203125 151.3125 163.050781 148.230469 161.117188 146.511719 C 158.773438 144.429688 161.554688 140.617188 164.25 142.183594 L 164.601562 142.386719 L 164.613281 142.367188 C 167.972656 143.945312 171.859375 140.871094 170.851562 137.105469 C 170.539062 135.949219 169.796875 134.964844 168.757812 134.363281 L 151.085938 124.160156 C 150.925781 124.070312 150.734375 124.089844 150.597656 124.214844 C 142.855469 131.335938 141.480469 132.683594 130.082031 130.527344 C 125.980469 129.75 122.125 128.21875 118.605469 125.972656 C 117.113281 125.019531 116.984375 123.003906 118.324219 121.777344 L 131.222656 109.71875 C 131.394531 109.554688 131.398438 109.285156 131.230469 109.121094 Z M 128.75 106.691406 " fill-opacity="1" fill-rule="evenodd"/></g><g transform="matrix(1, 0, 0, 1, 271, 114)"><g clip-path="url(#f4874aaeba)"><g fill="#ffffff" fill-opacity="1"><g transform="translate(0.131386, 40.672239)"><g><path d="M 3.390625 -28.53125 L 16.34375 -28.53125 C 19.445312 -28.53125 22.1875 -27.9375 24.5625 -26.75 C 26.9375 -25.570312 28.78125 -23.910156 30.09375 -21.765625 C 31.414062 -19.617188 32.078125 -17.117188 32.078125 -14.265625 C 32.078125 -11.410156 31.414062 -8.910156 30.09375 -6.765625 C 28.78125 -4.617188 26.9375 -2.953125 24.5625 -1.765625 C 22.1875 -0.585938 19.445312 0 16.34375 0 L 3.390625 0 Z M 16.015625 -5.421875 C 18.867188 -5.421875 21.144531 -6.210938 22.84375 -7.796875 C 24.539062 -9.390625 25.390625 -11.546875 25.390625 -14.265625 C 25.390625 -16.984375 24.539062 -19.132812 22.84375 -20.71875 C 21.144531 -22.3125 18.867188 -23.109375 16.015625 -23.109375 L 9.984375 -23.109375 L 9.984375 -5.421875 Z M 16.015625 -5.421875 "/></g></g></g><g fill="#ffffff" fill-opacity="1"><g transform="translate(33.789999, 40.672239)"><g><path d="M 25.03125 -21.9375 L 25.03125 0 L 19 0 L 19 -2.609375 C 18.15625 -1.660156 17.148438 -0.929688 15.984375 -0.421875 C 14.816406 0.078125 13.550781 0.328125 12.1875 0.328125 C 9.3125 0.328125 7.03125 -0.5 5.34375 -2.15625 C 3.65625 -3.8125 2.8125 -6.273438 2.8125 -9.546875 L 2.8125 -21.9375 L 9.171875 -21.9375 L 9.171875 -10.484375 C 9.171875 -6.941406 10.648438 -5.171875 13.609375 -5.171875 C 15.140625 -5.171875 16.363281 -5.664062 17.28125 -6.65625 C 18.207031 -7.65625 18.671875 -9.132812 18.671875 -11.09375 L 18.671875 -21.9375 Z M 25.03125 -21.9375 "/></g></g></g><g fill="#ffffff" fill-opacity="1"><g transform="translate(61.784501, 40.672239)"><g><path d="M 12.359375 -8.59375 L 9.296875 -5.578125 L 9.296875 0 L 2.9375 0 L 2.9375 -30.25 L 9.296875 -30.25 L 9.296875 -13.125 L 18.59375 -21.9375 L 26.171875 -21.9375 L 17.046875 -12.640625 L 26.984375 0 L 19.28125 0 Z M 12.359375 -8.59375 "/></g></g></g><g fill="#ffffff" fill-opacity="1"><g transform="translate(88.27113, 40.672239)"><g><path d="M 25.03125 -21.9375 L 25.03125 0 L 19 0 L 19 -2.609375 C 18.15625 -1.660156 17.148438 -0.929688 15.984375 -0.421875 C 14.816406 0.078125 13.550781 0.328125 12.1875 0.328125 C 9.3125 0.328125 7.03125 -0.5 5.34375 -2.15625 C 3.65625 -3.8125 2.8125 -6.273438 2.8125 -9.546875 L 2.8125 -21.9375 L 9.171875 -21.9375 L 9.171875 -10.484375 C 9.171875 -6.941406 10.648438 -5.171875 13.609375 -5.171875 C 15.140625 -5.171875 16.363281 -5.664062 17.28125 -6.65625 C 18.207031 -7.65625 18.671875 -9.132812 18.671875 -11.09375 L 18.671875 -21.9375 Z M 25.03125 -21.9375 "/></g></g></g><g fill="#ffffff" fill-opacity="1"><g transform="translate(116.265632, 40.672239)"><g><path d="M 16.265625 -22.265625 C 18.984375 -22.265625 21.175781 -21.445312 22.84375 -19.8125 C 24.519531 -18.175781 25.359375 -15.757812 25.359375 -12.5625 L 25.359375 0 L 19 0 L 19 -11.578125 C 19 -13.316406 18.617188 -14.613281 17.859375 -15.46875 C 17.097656 -16.320312 15.992188 -16.75 14.546875 -16.75 C 12.941406 -16.75 11.664062 -16.253906 10.71875 -15.265625 C 9.769531 -14.273438 9.296875 -12.800781 9.296875 -10.84375 L 9.296875 0 L 2.9375 0 L 2.9375 -21.9375 L 9.015625 -21.9375 L 9.015625 -19.359375 C 9.847656 -20.285156 10.890625 -21 12.140625 -21.5 C 13.390625 -22.007812 14.765625 -22.265625 16.265625 -22.265625 Z M 16.265625 -22.265625 "/></g></g></g><g fill="#ffffff" fill-opacity="1"><g transform="translate(144.667746, 40.672239)"><g><path d="M 25.5625 -21.9375 L 25.5625 -3.671875 C 25.5625 0.347656 24.515625 3.335938 22.421875 5.296875 C 20.328125 7.253906 17.269531 8.234375 13.25 8.234375 C 11.125 8.234375 9.109375 7.972656 7.203125 7.453125 C 5.304688 6.941406 3.734375 6.195312 2.484375 5.21875 L 5.015625 0.65625 C 5.941406 1.414062 7.109375 2.019531 8.515625 2.46875 C 9.929688 2.914062 11.347656 3.140625 12.765625 3.140625 C 14.960938 3.140625 16.582031 2.640625 17.625 1.640625 C 18.675781 0.648438 19.203125 -0.847656 19.203125 -2.859375 L 19.203125 -3.796875 C 17.546875 -1.972656 15.234375 -1.0625 12.265625 -1.0625 C 10.253906 -1.0625 8.410156 -1.5 6.734375 -2.375 C 5.066406 -3.257812 3.742188 -4.503906 2.765625 -6.109375 C 1.785156 -7.710938 1.296875 -9.5625 1.296875 -11.65625 C 1.296875 -13.75 1.785156 -15.597656 2.765625 -17.203125 C 3.742188 -18.804688 5.066406 -20.050781 6.734375 -20.9375 C 8.410156 -21.820312 10.253906 -22.265625 12.265625 -22.265625 C 15.453125 -22.265625 17.875 -21.21875 19.53125 -19.125 L 19.53125 -21.9375 Z M 13.53125 -6.28125 C 15.21875 -6.28125 16.597656 -6.773438 17.671875 -7.765625 C 18.742188 -8.753906 19.28125 -10.050781 19.28125 -11.65625 C 19.28125 -13.257812 18.742188 -14.554688 17.671875 -15.546875 C 16.597656 -16.546875 15.21875 -17.046875 13.53125 -17.046875 C 11.84375 -17.046875 10.457031 -16.546875 9.375 -15.546875 C 8.289062 -14.554688 7.75 -13.257812 7.75 -11.65625 C 7.75 -10.050781 8.289062 -8.753906 9.375 -7.765625 C 10.457031 -6.773438 11.84375 -6.28125 13.53125 -6.28125 Z M 13.53125 -6.28125 "/></g></g></g><g fill="#ffffff" fill-opacity="1"><g transform="translate(173.191994, 40.672239)"><g><path d="M 11.78125 -22.265625 C 15.175781 -22.265625 17.785156 -21.453125 19.609375 -19.828125 C 21.429688 -18.210938 22.34375 -15.773438 22.34375 -12.515625 L 22.34375 0 L 16.390625 0 L 16.390625 -2.734375 C 15.191406 -0.691406 12.960938 0.328125 9.703125 0.328125 C 8.015625 0.328125 6.550781 0.0390625 5.3125 -0.53125 C 4.082031 -1.101562 3.140625 -1.890625 2.484375 -2.890625 C 1.835938 -3.898438 1.515625 -5.039062 1.515625 -6.3125 C 1.515625 -8.351562 2.28125 -9.957031 3.8125 -11.125 C 5.34375 -12.289062 7.710938 -12.875 10.921875 -12.875 L 15.984375 -12.875 C 15.984375 -14.269531 15.5625 -15.335938 14.71875 -16.078125 C 13.875 -16.828125 12.609375 -17.203125 10.921875 -17.203125 C 9.753906 -17.203125 8.601562 -17.019531 7.46875 -16.65625 C 6.34375 -16.289062 5.390625 -15.796875 4.609375 -15.171875 L 2.328125 -19.609375 C 3.523438 -20.453125 4.957031 -21.101562 6.625 -21.5625 C 8.289062 -22.03125 10.007812 -22.265625 11.78125 -22.265625 Z M 11.296875 -3.953125 C 12.378906 -3.953125 13.34375 -4.203125 14.1875 -4.703125 C 15.03125 -5.210938 15.628906 -5.957031 15.984375 -6.9375 L 15.984375 -9.171875 L 11.625 -9.171875 C 9.007812 -9.171875 7.703125 -8.316406 7.703125 -6.609375 C 7.703125 -5.785156 8.019531 -5.132812 8.65625 -4.65625 C 9.300781 -4.1875 10.179688 -3.953125 11.296875 -3.953125 Z M 11.296875 -3.953125 "/></g></g></g><g fill="#ffffff" fill-opacity="1"><g transform="translate(198.334076, 40.672239)"><g><path d="M 16.265625 -22.265625 C 18.984375 -22.265625 21.175781 -21.445312 22.84375 -19.8125 C 24.519531 -18.175781 25.359375 -15.757812 25.359375 -12.5625 L 25.359375 0 L 19 0 L 19 -11.578125 C 19 -13.316406 18.617188 -14.613281 17.859375 -15.46875 C 17.097656 -16.320312 15.992188 -16.75 14.546875 -16.75 C 12.941406 -16.75 11.664062 -16.253906 10.71875 -15.265625 C 9.769531 -14.273438 9.296875 -12.800781 9.296875 -10.84375 L 9.296875 0 L 2.9375 0 L 2.9375 -21.9375 L 9.015625 -21.9375 L 9.015625 -19.359375 C 9.847656 -20.285156 10.890625 -21 12.140625 -21.5 C 13.390625 -22.007812 14.765625 -22.265625 16.265625 -22.265625 Z M 16.265625 -22.265625 "/></g></g></g><g fill="#ffffff" fill-opacity="1"><g transform="translate(226.491589, 40.672239)"><g/></g></g><g fill="#ffffff" fill-opacity="1"><g transform="translate(238.023537, 40.672239)"><g><path d="M 15.734375 -28.53125 C 18.265625 -28.53125 20.457031 -28.109375 22.3125 -27.265625 C 24.175781 -26.429688 25.609375 -25.238281 26.609375 -23.6875 C 27.617188 -22.132812 28.125 -20.300781 28.125 -18.1875 C 28.125 -16.09375 27.617188 -14.265625 26.609375 -12.703125 C 25.609375 -11.140625 24.175781 -9.941406 22.3125 -9.109375 C 20.457031 -8.285156 18.265625 -7.875 15.734375 -7.875 L 9.984375 -7.875 L 9.984375 0 L 3.390625 0 L 3.390625 -28.53125 Z M 15.375 -13.25 C 17.351562 -13.25 18.859375 -13.675781 19.890625 -14.53125 C 20.921875 -15.382812 21.4375 -16.601562 21.4375 -18.1875 C 21.4375 -19.789062 20.921875 -21.019531 19.890625 -21.875 C 18.859375 -22.726562 17.351562 -23.15625 15.375 -23.15625 L 9.984375 -23.15625 L 9.984375 -13.25 Z M 15.375 -13.25 "/></g></g></g><g fill="#ffffff" fill-opacity="1"><g transform="translate(267.444084, 40.672239)"><g><path d="M 9.015625 -19.03125 C 9.773438 -20.09375 10.796875 -20.894531 12.078125 -21.4375 C 13.367188 -21.988281 14.859375 -22.265625 16.546875 -22.265625 L 16.546875 -16.390625 C 15.835938 -16.441406 15.363281 -16.46875 15.125 -16.46875 C 13.300781 -16.46875 11.875 -15.957031 10.84375 -14.9375 C 9.8125 -13.914062 9.296875 -12.390625 9.296875 -10.359375 L 9.296875 0 L 2.9375 0 L 2.9375 -21.9375 L 9.015625 -21.9375 Z M 9.015625 -19.03125 "/></g></g></g><g fill="#ffffff" fill-opacity="1"><g transform="translate(284.639961, 40.672239)"><g><path d="M 13.375 0.328125 C 11.0625 0.328125 8.988281 -0.148438 7.15625 -1.109375 C 5.320312 -2.078125 3.882812 -3.414062 2.84375 -5.125 C 1.8125 -6.84375 1.296875 -8.789062 1.296875 -10.96875 C 1.296875 -13.144531 1.8125 -15.085938 2.84375 -16.796875 C 3.882812 -18.503906 5.320312 -19.84375 7.15625 -20.8125 C 8.988281 -21.78125 11.0625 -22.265625 13.375 -22.265625 C 15.6875 -22.265625 17.75 -21.78125 19.5625 -20.8125 C 21.382812 -19.84375 22.8125 -18.503906 23.84375 -16.796875 C 24.875 -15.085938 25.390625 -13.144531 25.390625 -10.96875 C 25.390625 -8.789062 24.875 -6.84375 23.84375 -5.125 C 22.8125 -3.414062 21.382812 -2.078125 19.5625 -1.109375 C 17.75 -0.148438 15.6875 0.328125 13.375 0.328125 Z M 13.375 -4.890625 C 15 -4.890625 16.332031 -5.4375 17.375 -6.53125 C 18.425781 -7.632812 18.953125 -9.113281 18.953125 -10.96875 C 18.953125 -12.8125 18.425781 -14.285156 17.375 -15.390625 C 16.332031 -16.492188 15 -17.046875 13.375 -17.046875 C 11.738281 -17.046875 10.390625 -16.492188 9.328125 -15.390625 C 8.273438 -14.285156 7.75 -12.8125 7.75 -10.96875 C 7.75 -9.113281 8.273438 -7.632812 9.328125 -6.53125 C 10.390625 -5.4375 11.738281 -4.890625 13.375 -4.890625 Z M 13.375 -4.890625 "/></g></g></g><g fill="#ffffff" fill-opacity="1"><g transform="translate(311.330497, 40.672239)"><g><path d="M 25.5625 -21.9375 L 25.5625 -3.671875 C 25.5625 0.347656 24.515625 3.335938 22.421875 5.296875 C 20.328125 7.253906 17.269531 8.234375 13.25 8.234375 C 11.125 8.234375 9.109375 7.972656 7.203125 7.453125 C 5.304688 6.941406 3.734375 6.195312 2.484375 5.21875 L 5.015625 0.65625 C 5.941406 1.414062 7.109375 2.019531 8.515625 2.46875 C 9.929688 2.914062 11.347656 3.140625 12.765625 3.140625 C 14.960938 3.140625 16.582031 2.640625 17.625 1.640625 C 18.675781 0.648438 19.203125 -0.847656 19.203125 -2.859375 L 19.203125 -3.796875 C 17.546875 -1.972656 15.234375 -1.0625 12.265625 -1.0625 C 10.253906 -1.0625 8.410156 -1.5 6.734375 -2.375 C 5.066406 -3.257812 3.742188 -4.503906 2.765625 -6.109375 C 1.785156 -7.710938 1.296875 -9.5625 1.296875 -11.65625 C 1.296875 -13.75 1.785156 -15.597656 2.765625 -17.203125 C 3.742188 -18.804688 5.066406 -20.050781 6.734375 -20.9375 C 8.410156 -21.820312 10.253906 -22.265625 12.265625 -22.265625 C 15.453125 -22.265625 17.875 -21.21875 19.53125 -19.125 L 19.53125 -21.9375 Z M 13.53125 -6.28125 C 15.21875 -6.28125 16.597656 -6.773438 17.671875 -7.765625 C 18.742188 -8.753906 19.28125 -10.050781 19.28125 -11.65625 C 19.28125 -13.257812 18.742188 -14.554688 17.671875 -15.546875 C 16.597656 -16.546875 15.21875 -17.046875 13.53125 -17.046875 C 11.84375 -17.046875 10.457031 -16.546875 9.375 -15.546875 C 8.289062 -14.554688 7.75 -13.257812 7.75 -11.65625 C 7.75 -10.050781 8.289062 -8.753906 9.375 -7.765625 C 10.457031 -6.773438 11.84375 -6.28125 13.53125 -6.28125 Z M 13.53125 -6.28125 "/></g></g></g><g fill="#ffffff" fill-opacity="1"><g transform="translate(339.854746, 40.672239)"><g><path d="M 9.015625 -19.03125 C 9.773438 -20.09375 10.796875 -20.894531 12.078125 -21.4375 C 13.367188 -21.988281 14.859375 -22.265625 16.546875 -22.265625 L 16.546875 -16.390625 C 15.835938 -16.441406 15.363281 -16.46875 15.125 -16.46875 C 13.300781 -16.46875 11.875 -15.957031 10.84375 -14.9375 C 9.8125 -13.914062 9.296875 -12.390625 9.296875 -10.359375 L 9.296875 0 L 2.9375 0 L 2.9375 -21.9375 L 9.015625 -21.9375 Z M 9.015625 -19.03125 "/></g></g></g><g fill="#ffffff" fill-opacity="1"><g transform="translate(357.132157, 40.672239)"><g><path d="M 11.78125 -22.265625 C 15.175781 -22.265625 17.785156 -21.453125 19.609375 -19.828125 C 21.429688 -18.210938 22.34375 -15.773438 22.34375 -12.515625 L 22.34375 0 L 16.390625 0 L 16.390625 -2.734375 C 15.191406 -0.691406 12.960938 0.328125 9.703125 0.328125 C 8.015625 0.328125 6.550781 0.0390625 5.3125 -0.53125 C 4.082031 -1.101562 3.140625 -1.890625 2.484375 -2.890625 C 1.835938 -3.898438 1.515625 -5.039062 1.515625 -6.3125 C 1.515625 -8.351562 2.28125 -9.957031 3.8125 -11.125 C 5.34375 -12.289062 7.710938 -12.875 10.921875 -12.875 L 15.984375 -12.875 C 15.984375 -14.269531 15.5625 -15.335938 14.71875 -16.078125 C 13.875 -16.828125 12.609375 -17.203125 10.921875 -17.203125 C 9.753906 -17.203125 8.601562 -17.019531 7.46875 -16.65625 C 6.34375 -16.289062 5.390625 -15.796875 4.609375 -15.171875 L 2.328125 -19.609375 C 3.523438 -20.453125 4.957031 -21.101562 6.625 -21.5625 C 8.289062 -22.03125 10.007812 -22.265625 11.78125 -22.265625 Z M 11.296875 -3.953125 C 12.378906 -3.953125 13.34375 -4.203125 14.1875 -4.703125 C 15.03125 -5.210938 15.628906 -5.957031 15.984375 -6.9375 L 15.984375 -9.171875 L 11.625 -9.171875 C 9.007812 -9.171875 7.703125 -8.316406 7.703125 -6.609375 C 7.703125 -5.785156 8.019531 -5.132812 8.65625 -4.65625 C 9.300781 -4.1875 10.179688 -3.953125 11.296875 -3.953125 Z M 11.296875 -3.953125 "/></g></g></g><g fill="#ffffff" fill-opacity="1"><g transform="translate(382.274256, 40.672239)"><g><path d="M 31.015625 -22.265625 C 33.765625 -22.265625 35.945312 -21.453125 37.5625 -19.828125 C 39.175781 -18.210938 39.984375 -15.789062 39.984375 -12.5625 L 39.984375 0 L 33.625 0 L 33.625 -11.578125 C 33.625 -13.316406 33.265625 -14.613281 32.546875 -15.46875 C 31.828125 -16.320312 30.800781 -16.75 29.46875 -16.75 C 27.976562 -16.75 26.796875 -16.265625 25.921875 -15.296875 C 25.054688 -14.335938 24.625 -12.90625 24.625 -11 L 24.625 0 L 18.265625 0 L 18.265625 -11.578125 C 18.265625 -15.023438 16.878906 -16.75 14.109375 -16.75 C 12.640625 -16.75 11.46875 -16.265625 10.59375 -15.296875 C 9.726562 -14.335938 9.296875 -12.90625 9.296875 -11 L 9.296875 0 L 2.9375 0 L 2.9375 -21.9375 L 9.015625 -21.9375 L 9.015625 -19.40625 C 9.828125 -20.332031 10.820312 -21.039062 12 -21.53125 C 13.1875 -22.019531 14.488281 -22.265625 15.90625 -22.265625 C 17.445312 -22.265625 18.84375 -21.957031 20.09375 -21.34375 C 21.34375 -20.726562 22.347656 -19.835938 23.109375 -18.671875 C 24.003906 -19.804688 25.140625 -20.6875 26.515625 -21.3125 C 27.890625 -21.945312 29.390625 -22.265625 31.015625 -22.265625 Z M 31.015625 -22.265625 "/></g></g></g><g fill="#ffffff" fill-opacity="1"><g transform="translate(0.131386, 97.20951)"><g><path d="M 15.734375 -28.53125 C 18.265625 -28.53125 20.457031 -28.109375 22.3125 -27.265625 C 24.175781 -26.429688 25.609375 -25.238281 26.609375 -23.6875 C 27.617188 -22.132812 28.125 -20.300781 28.125 -18.1875 C 28.125 -16.09375 27.617188 -14.265625 26.609375 -12.703125 C 25.609375 -11.140625 24.175781 -9.941406 22.3125 -9.109375 C 20.457031 -8.285156 18.265625 -7.875 15.734375 -7.875 L 9.984375 -7.875 L 9.984375 0 L 3.390625 0 L 3.390625 -28.53125 Z M 15.375 -13.25 C 17.351562 -13.25 18.859375 -13.675781 19.890625 -14.53125 C 20.921875 -15.382812 21.4375 -16.601562 21.4375 -18.1875 C 21.4375 -19.789062 20.921875 -21.019531 19.890625 -21.875 C 18.859375 -22.726562 17.351562 -23.15625 15.375 -23.15625 L 9.984375 -23.15625 L 9.984375 -13.25 Z M 15.375 -13.25 "/></g></g></g><g fill="#ffffff" fill-opacity="1"><g transform="translate(29.551933, 97.20951)"><g><path d="M 9.015625 -19.03125 C 9.773438 -20.09375 10.796875 -20.894531 12.078125 -21.4375 C 13.367188 -21.988281 14.859375 -22.265625 16.546875 -22.265625 L 16.546875 -16.390625 C 15.835938 -16.441406 15.363281 -16.46875 15.125 -16.46875 C 13.300781 -16.46875 11.875 -15.957031 10.84375 -14.9375 C 9.8125 -13.914062 9.296875 -12.390625 9.296875 -10.359375 L 9.296875 0 L 2.9375 0 L 2.9375 -21.9375 L 9.015625 -21.9375 Z M 9.015625 -19.03125 "/></g></g></g><g fill="#ffffff" fill-opacity="1"><g transform="translate(46.951644, 97.20951)"><g><path d="M 2.9375 -21.9375 L 9.296875 -21.9375 L 9.296875 0 L 2.9375 0 Z M 6.109375 -24.984375 C 4.941406 -24.984375 3.988281 -25.320312 3.25 -26 C 2.519531 -26.6875 2.15625 -27.53125 2.15625 -28.53125 C 2.15625 -29.539062 2.519531 -30.382812 3.25 -31.0625 C 3.988281 -31.738281 4.941406 -32.078125 6.109375 -32.078125 C 7.273438 -32.078125 8.222656 -31.75 8.953125 -31.09375 C 9.691406 -30.445312 10.0625 -29.632812 10.0625 -28.65625 C 10.0625 -27.59375 9.691406 -26.710938 8.953125 -26.015625 C 8.222656 -25.328125 7.273438 -24.984375 6.109375 -24.984375 Z M 6.109375 -24.984375 "/></g></g></g><g fill="#ffffff" fill-opacity="1"><g transform="translate(59.217062, 97.20951)"><g><path d="M 13.375 0.328125 C 11.0625 0.328125 8.988281 -0.148438 7.15625 -1.109375 C 5.320312 -2.078125 3.882812 -3.414062 2.84375 -5.125 C 1.8125 -6.84375 1.296875 -8.789062 1.296875 -10.96875 C 1.296875 -13.144531 1.8125 -15.085938 2.84375 -16.796875 C 3.882812 -18.503906 5.320312 -19.84375 7.15625 -20.8125 C 8.988281 -21.78125 11.0625 -22.265625 13.375 -22.265625 C 15.6875 -22.265625 17.75 -21.78125 19.5625 -20.8125 C 21.382812 -19.84375 22.8125 -18.503906 23.84375 -16.796875 C 24.875 -15.085938 25.390625 -13.144531 25.390625 -10.96875 C 25.390625 -8.789062 24.875 -6.84375 23.84375 -5.125 C 22.8125 -3.414062 21.382812 -2.078125 19.5625 -1.109375 C 17.75 -0.148438 15.6875 0.328125 13.375 0.328125 Z M 13.375 -4.890625 C 15 -4.890625 16.332031 -5.4375 17.375 -6.53125 C 18.425781 -7.632812 18.953125 -9.113281 18.953125 -10.96875 C 18.953125 -12.8125 18.425781 -14.285156 17.375 -15.390625 C 16.332031 -16.492188 15 -17.046875 13.375 -17.046875 C 11.738281 -17.046875 10.390625 -16.492188 9.328125 -15.390625 C 8.273438 -14.285156 7.75 -12.8125 7.75 -10.96875 C 7.75 -9.113281 8.273438 -7.632812 9.328125 -6.53125 C 10.390625 -5.4375 11.738281 -4.890625 13.375 -4.890625 Z M 13.375 -4.890625 "/></g></g></g><g fill="#ffffff" fill-opacity="1"><g transform="translate(85.907598, 97.20951)"><g><path d="M 9.015625 -19.03125 C 9.773438 -20.09375 10.796875 -20.894531 12.078125 -21.4375 C 13.367188 -21.988281 14.859375 -22.265625 16.546875 -22.265625 L 16.546875 -16.390625 C 15.835938 -16.441406 15.363281 -16.46875 15.125 -16.46875 C 13.300781 -16.46875 11.875 -15.957031 10.84375 -14.9375 C 9.8125 -13.914062 9.296875 -12.390625 9.296875 -10.359375 L 9.296875 0 L 2.9375 0 L 2.9375 -21.9375 L 9.015625 -21.9375 Z M 9.015625 -19.03125 "/></g></g></g><g fill="#ffffff" fill-opacity="1"><g transform="translate(103.307308, 97.20951)"><g><path d="M 2.9375 -21.9375 L 9.296875 -21.9375 L 9.296875 0 L 2.9375 0 Z M 6.109375 -24.984375 C 4.941406 -24.984375 3.988281 -25.320312 3.25 -26 C 2.519531 -26.6875 2.15625 -27.53125 2.15625 -28.53125 C 2.15625 -29.539062 2.519531 -30.382812 3.25 -31.0625 C 3.988281 -31.738281 4.941406 -32.078125 6.109375 -32.078125 C 7.273438 -32.078125 8.222656 -31.75 8.953125 -31.09375 C 9.691406 -30.445312 10.0625 -29.632812 10.0625 -28.65625 C 10.0625 -27.59375 9.691406 -26.710938 8.953125 -26.015625 C 8.222656 -25.328125 7.273438 -24.984375 6.109375 -24.984375 Z M 6.109375 -24.984375 "/></g></g></g><g fill="#ffffff" fill-opacity="1"><g transform="translate(115.572727, 97.20951)"><g><path d="M 17.078125 -1.0625 C 16.453125 -0.59375 15.679688 -0.242188 14.765625 -0.015625 C 13.859375 0.210938 12.90625 0.328125 11.90625 0.328125 C 9.289062 0.328125 7.269531 -0.335938 5.84375 -1.671875 C 4.414062 -3.003906 3.703125 -4.960938 3.703125 -7.546875 L 3.703125 -16.546875 L 0.328125 -16.546875 L 0.328125 -21.4375 L 3.703125 -21.4375 L 3.703125 -26.78125 L 10.0625 -26.78125 L 10.0625 -21.4375 L 15.53125 -21.4375 L 15.53125 -16.546875 L 10.0625 -16.546875 L 10.0625 -7.625 C 10.0625 -6.695312 10.300781 -5.984375 10.78125 -5.484375 C 11.257812 -4.984375 11.929688 -4.734375 12.796875 -4.734375 C 13.804688 -4.734375 14.664062 -5.003906 15.375 -5.546875 Z M 17.078125 -1.0625 "/></g></g></g><g fill="#ffffff" fill-opacity="1"><g transform="translate(133.298516, 97.20951)"><g><path d="M 11.78125 -22.265625 C 15.175781 -22.265625 17.785156 -21.453125 19.609375 -19.828125 C 21.429688 -18.210938 22.34375 -15.773438 22.34375 -12.515625 L 22.34375 0 L 16.390625 0 L 16.390625 -2.734375 C 15.191406 -0.691406 12.960938 0.328125 9.703125 0.328125 C 8.015625 0.328125 6.550781 0.0390625 5.3125 -0.53125 C 4.082031 -1.101562 3.140625 -1.890625 2.484375 -2.890625 C 1.835938 -3.898438 1.515625 -5.039062 1.515625 -6.3125 C 1.515625 -8.351562 2.28125 -9.957031 3.8125 -11.125 C 5.34375 -12.289062 7.710938 -12.875 10.921875 -12.875 L 15.984375 -12.875 C 15.984375 -14.269531 15.5625 -15.335938 14.71875 -16.078125 C 13.875 -16.828125 12.609375 -17.203125 10.921875 -17.203125 C 9.753906 -17.203125 8.601562 -17.019531 7.46875 -16.65625 C 6.34375 -16.289062 5.390625 -15.796875 4.609375 -15.171875 L 2.328125 -19.609375 C 3.523438 -20.453125 4.957031 -21.101562 6.625 -21.5625 C 8.289062 -22.03125 10.007812 -22.265625 11.78125 -22.265625 Z M 11.296875 -3.953125 C 12.378906 -3.953125 13.34375 -4.203125 14.1875 -4.703125 C 15.03125 -5.210938 15.628906 -5.957031 15.984375 -6.9375 L 15.984375 -9.171875 L 11.625 -9.171875 C 9.007812 -9.171875 7.703125 -8.316406 7.703125 -6.609375 C 7.703125 -5.785156 8.019531 -5.132812 8.65625 -4.65625 C 9.300781 -4.1875 10.179688 -3.953125 11.296875 -3.953125 Z M 11.296875 -3.953125 "/></g></g></g><g fill="#ffffff" fill-opacity="1"><g transform="translate(158.440597, 97.20951)"><g><path d="M 10.3125 0.328125 C 8.488281 0.328125 6.707031 0.101562 4.96875 -0.34375 C 3.226562 -0.789062 1.84375 -1.351562 0.8125 -2.03125 L 2.9375 -6.609375 C 3.914062 -5.984375 5.097656 -5.472656 6.484375 -5.078125 C 7.867188 -4.679688 9.226562 -4.484375 10.5625 -4.484375 C 13.25 -4.484375 14.59375 -5.148438 14.59375 -6.484375 C 14.59375 -7.109375 14.222656 -7.554688 13.484375 -7.828125 C 12.753906 -8.097656 11.628906 -8.328125 10.109375 -8.515625 C 8.316406 -8.785156 6.832031 -9.097656 5.65625 -9.453125 C 4.488281 -9.804688 3.476562 -10.429688 2.625 -11.328125 C 1.769531 -12.222656 1.34375 -13.503906 1.34375 -15.171875 C 1.34375 -16.554688 1.742188 -17.785156 2.546875 -18.859375 C 3.347656 -19.929688 4.515625 -20.765625 6.046875 -21.359375 C 7.585938 -21.960938 9.40625 -22.265625 11.5 -22.265625 C 13.039062 -22.265625 14.578125 -22.09375 16.109375 -21.75 C 17.648438 -21.40625 18.925781 -20.9375 19.9375 -20.34375 L 17.8125 -15.8125 C 15.882812 -16.90625 13.78125 -17.453125 11.5 -17.453125 C 10.132812 -17.453125 9.113281 -17.257812 8.4375 -16.875 C 7.757812 -16.5 7.421875 -16.007812 7.421875 -15.40625 C 7.421875 -14.726562 7.785156 -14.253906 8.515625 -13.984375 C 9.253906 -13.710938 10.425781 -13.453125 12.03125 -13.203125 C 13.820312 -12.910156 15.285156 -12.59375 16.421875 -12.25 C 17.566406 -11.90625 18.5625 -11.285156 19.40625 -10.390625 C 20.25 -9.492188 20.671875 -8.242188 20.671875 -6.640625 C 20.671875 -5.285156 20.257812 -4.078125 19.4375 -3.015625 C 18.625 -1.953125 17.4375 -1.128906 15.875 -0.546875 C 14.3125 0.0351562 12.457031 0.328125 10.3125 0.328125 Z M 10.3125 0.328125 "/></g></g></g><g fill="#ffffff" fill-opacity="1"><g transform="translate(180.078283, 97.20951)"><g/></g></g><g fill="#ffffff" fill-opacity="1"><g transform="translate(191.610231, 97.20951)"><g><path d="M 29.5625 -28.53125 L 29.5625 0 L 24.140625 0 L 9.90625 -17.328125 L 9.90625 0 L 3.390625 0 L 3.390625 -28.53125 L 8.84375 -28.53125 L 23.03125 -11.203125 L 23.03125 -28.53125 Z M 29.5625 -28.53125 "/></g></g></g><g fill="#ffffff" fill-opacity="1"><g transform="translate(224.535357, 97.20951)"><g><path d="M 11.78125 -22.265625 C 15.175781 -22.265625 17.785156 -21.453125 19.609375 -19.828125 C 21.429688 -18.210938 22.34375 -15.773438 22.34375 -12.515625 L 22.34375 0 L 16.390625 0 L 16.390625 -2.734375 C 15.191406 -0.691406 12.960938 0.328125 9.703125 0.328125 C 8.015625 0.328125 6.550781 0.0390625 5.3125 -0.53125 C 4.082031 -1.101562 3.140625 -1.890625 2.484375 -2.890625 C 1.835938 -3.898438 1.515625 -5.039062 1.515625 -6.3125 C 1.515625 -8.351562 2.28125 -9.957031 3.8125 -11.125 C 5.34375 -12.289062 7.710938 -12.875 10.921875 -12.875 L 15.984375 -12.875 C 15.984375 -14.269531 15.5625 -15.335938 14.71875 -16.078125 C 13.875 -16.828125 12.609375 -17.203125 10.921875 -17.203125 C 9.753906 -17.203125 8.601562 -17.019531 7.46875 -16.65625 C 6.34375 -16.289062 5.390625 -15.796875 4.609375 -15.171875 L 2.328125 -19.609375 C 3.523438 -20.453125 4.957031 -21.101562 6.625 -21.5625 C 8.289062 -22.03125 10.007812 -22.265625 11.78125 -22.265625 Z M 11.296875 -3.953125 C 12.378906 -3.953125 13.34375 -4.203125 14.1875 -4.703125 C 15.03125 -5.210938 15.628906 -5.957031 15.984375 -6.9375 L 15.984375 -9.171875 L 11.625 -9.171875 C 9.007812 -9.171875 7.703125 -8.316406 7.703125 -6.609375 C 7.703125 -5.785156 8.019531 -5.132812 8.65625 -4.65625 C 9.300781 -4.1875 10.179688 -3.953125 11.296875 -3.953125 Z M 11.296875 -3.953125 "/></g></g></g><g fill="#ffffff" fill-opacity="1"><g transform="translate(249.677438, 97.20951)"><g><path d="M 10.3125 0.328125 C 8.488281 0.328125 6.707031 0.101562 4.96875 -0.34375 C 3.226562 -0.789062 1.84375 -1.351562 0.8125 -2.03125 L 2.9375 -6.609375 C 3.914062 -5.984375 5.097656 -5.472656 6.484375 -5.078125 C 7.867188 -4.679688 9.226562 -4.484375 10.5625 -4.484375 C 13.25 -4.484375 14.59375 -5.148438 14.59375 -6.484375 C 14.59375 -7.109375 14.222656 -7.554688 13.484375 -7.828125 C 12.753906 -8.097656 11.628906 -8.328125 10.109375 -8.515625 C 8.316406 -8.785156 6.832031 -9.097656 5.65625 -9.453125 C 4.488281 -9.804688 3.476562 -10.429688 2.625 -11.328125 C 1.769531 -12.222656 1.34375 -13.503906 1.34375 -15.171875 C 1.34375 -16.554688 1.742188 -17.785156 2.546875 -18.859375 C 3.347656 -19.929688 4.515625 -20.765625 6.046875 -21.359375 C 7.585938 -21.960938 9.40625 -22.265625 11.5 -22.265625 C 13.039062 -22.265625 14.578125 -22.09375 16.109375 -21.75 C 17.648438 -21.40625 18.925781 -20.9375 19.9375 -20.34375 L 17.8125 -15.8125 C 15.882812 -16.90625 13.78125 -17.453125 11.5 -17.453125 C 10.132812 -17.453125 9.113281 -17.257812 8.4375 -16.875 C 7.757812 -16.5 7.421875 -16.007812 7.421875 -15.40625 C 7.421875 -14.726562 7.785156 -14.253906 8.515625 -13.984375 C 9.253906 -13.710938 10.425781 -13.453125 12.03125 -13.203125 C 13.820312 -12.910156 15.285156 -12.59375 16.421875 -12.25 C 17.566406 -11.90625 18.5625 -11.285156 19.40625 -10.390625 C 20.25 -9.492188 20.671875 -8.242188 20.671875 -6.640625 C 20.671875 -5.285156 20.257812 -4.078125 19.4375 -3.015625 C 18.625 -1.953125 17.4375 -1.128906 15.875 -0.546875 C 14.3125 0.0351562 12.457031 0.328125 10.3125 0.328125 Z M 10.3125 0.328125 "/></g></g></g><g fill="#ffffff" fill-opacity="1"><g transform="translate(271.315123, 97.20951)"><g><path d="M 2.9375 -21.9375 L 9.296875 -21.9375 L 9.296875 0 L 2.9375 0 Z M 6.109375 -24.984375 C 4.941406 -24.984375 3.988281 -25.320312 3.25 -26 C 2.519531 -26.6875 2.15625 -27.53125 2.15625 -28.53125 C 2.15625 -29.539062 2.519531 -30.382812 3.25 -31.0625 C 3.988281 -31.738281 4.941406 -32.078125 6.109375 -32.078125 C 7.273438 -32.078125 8.222656 -31.75 8.953125 -31.09375 C 9.691406 -30.445312 10.0625 -29.632812 10.0625 -28.65625 C 10.0625 -27.59375 9.691406 -26.710938 8.953125 -26.015625 C 8.222656 -25.328125 7.273438 -24.984375 6.109375 -24.984375 Z M 6.109375 -24.984375 "/></g></g></g><g fill="#ffffff" fill-opacity="1"><g transform="translate(283.580542, 97.20951)"><g><path d="M 13.375 0.328125 C 11.0625 0.328125 8.988281 -0.148438 7.15625 -1.109375 C 5.320312 -2.078125 3.882812 -3.414062 2.84375 -5.125 C 1.8125 -6.84375 1.296875 -8.789062 1.296875 -10.96875 C 1.296875 -13.144531 1.8125 -15.085938 2.84375 -16.796875 C 3.882812 -18.503906 5.320312 -19.84375 7.15625 -20.8125 C 8.988281 -21.78125 11.0625 -22.265625 13.375 -22.265625 C 15.6875 -22.265625 17.75 -21.78125 19.5625 -20.8125 C 21.382812 -19.84375 22.8125 -18.503906 23.84375 -16.796875 C 24.875 -15.085938 25.390625 -13.144531 25.390625 -10.96875 C 25.390625 -8.789062 24.875 -6.84375 23.84375 -5.125 C 22.8125 -3.414062 21.382812 -2.078125 19.5625 -1.109375 C 17.75 -0.148438 15.6875 0.328125 13.375 0.328125 Z M 13.375 -4.890625 C 15 -4.890625 16.332031 -5.4375 17.375 -6.53125 C 18.425781 -7.632812 18.953125 -9.113281 18.953125 -10.96875 C 18.953125 -12.8125 18.425781 -14.285156 17.375 -15.390625 C 16.332031 -16.492188 15 -17.046875 13.375 -17.046875 C 11.738281 -17.046875 10.390625 -16.492188 9.328125 -15.390625 C 8.273438 -14.285156 7.75 -12.8125 7.75 -10.96875 C 7.75 -9.113281 8.273438 -7.632812 9.328125 -6.53125 C 10.390625 -5.4375 11.738281 -4.890625 13.375 -4.890625 Z M 13.375 -4.890625 "/></g></g></g><g fill="#ffffff" fill-opacity="1"><g transform="translate(310.271078, 97.20951)"><g><path d="M 16.265625 -22.265625 C 18.984375 -22.265625 21.175781 -21.445312 22.84375 -19.8125 C 24.519531 -18.175781 25.359375 -15.757812 25.359375 -12.5625 L 25.359375 0 L 19 0 L 19 -11.578125 C 19 -13.316406 18.617188 -14.613281 17.859375 -15.46875 C 17.097656 -16.320312 15.992188 -16.75 14.546875 -16.75 C 12.941406 -16.75 11.664062 -16.253906 10.71875 -15.265625 C 9.769531 -14.273438 9.296875 -12.800781 9.296875 -10.84375 L 9.296875 0 L 2.9375 0 L 2.9375 -21.9375 L 9.015625 -21.9375 L 9.015625 -19.359375 C 9.847656 -20.285156 10.890625 -21 12.140625 -21.5 C 13.390625 -22.007812 14.765625 -22.265625 16.265625 -22.265625 Z M 16.265625 -22.265625 "/></g></g></g><g fill="#ffffff" fill-opacity="1"><g transform="translate(338.428591, 97.20951)"><g><path d="M 11.78125 -22.265625 C 15.175781 -22.265625 17.785156 -21.453125 19.609375 -19.828125 C 21.429688 -18.210938 22.34375 -15.773438 22.34375 -12.515625 L 22.34375 0 L 16.390625 0 L 16.390625 -2.734375 C 15.191406 -0.691406 12.960938 0.328125 9.703125 0.328125 C 8.015625 0.328125 6.550781 0.0390625 5.3125 -0.53125 C 4.082031 -1.101562 3.140625 -1.890625 2.484375 -2.890625 C 1.835938 -3.898438 1.515625 -5.039062 1.515625 -6.3125 C 1.515625 -8.351562 2.28125 -9.957031 3.8125 -11.125 C 5.34375 -12.289062 7.710938 -12.875 10.921875 -12.875 L 15.984375 -12.875 C 15.984375 -14.269531 15.5625 -15.335938 14.71875 -16.078125 C 13.875 -16.828125 12.609375 -17.203125 10.921875 -17.203125 C 9.753906 -17.203125 8.601562 -17.019531 7.46875 -16.65625 C 6.34375 -16.289062 5.390625 -15.796875 4.609375 -15.171875 L 2.328125 -19.609375 C 3.523438 -20.453125 4.957031 -21.101562 6.625 -21.5625 C 8.289062 -22.03125 10.007812 -22.265625 11.78125 -22.265625 Z M 11.296875 -3.953125 C 12.378906 -3.953125 13.34375 -4.203125 14.1875 -4.703125 C 15.03125 -5.210938 15.628906 -5.957031 15.984375 -6.9375 L 15.984375 -9.171875 L 11.625 -9.171875 C 9.007812 -9.171875 7.703125 -8.316406 7.703125 -6.609375 C 7.703125 -5.785156 8.019531 -5.132812 8.65625 -4.65625 C 9.300781 -4.1875 10.179688 -3.953125 11.296875 -3.953125 Z M 11.296875 -3.953125 "/></g></g></g><g fill="#ffffff" fill-opacity="1"><g transform="translate(363.57069, 97.20951)"><g><path d="M 2.9375 -30.25 L 9.296875 -30.25 L 9.296875 0 L 2.9375 0 Z M 2.9375 -30.25 "/></g></g></g><g fill="#ffffff" fill-opacity="1"><g transform="translate(375.83609, 97.20951)"><g/></g></g><g fill="#ffffff" fill-opacity="1"><g transform="translate(387.36802, 97.20951)"><g><path d="M 3.390625 -28.53125 L 9.984375 -28.53125 L 9.984375 -5.375 L 24.296875 -5.375 L 24.296875 0 L 3.390625 0 Z M 3.390625 -28.53125 "/></g></g></g><g fill="#ffffff" fill-opacity="1"><g transform="translate(412.224991, 97.20951)"><g><path d="M 11.78125 -22.265625 C 15.175781 -22.265625 17.785156 -21.453125 19.609375 -19.828125 C 21.429688 -18.210938 22.34375 -15.773438 22.34375 -12.515625 L 22.34375 0 L 16.390625 0 L 16.390625 -2.734375 C 15.191406 -0.691406 12.960938 0.328125 9.703125 0.328125 C 8.015625 0.328125 6.550781 0.0390625 5.3125 -0.53125 C 4.082031 -1.101562 3.140625 -1.890625 2.484375 -2.890625 C 1.835938 -3.898438 1.515625 -5.039062 1.515625 -6.3125 C 1.515625 -8.351562 2.28125 -9.957031 3.8125 -11.125 C 5.34375 -12.289062 7.710938 -12.875 10.921875 -12.875 L 15.984375 -12.875 C 15.984375 -14.269531 15.5625 -15.335938 14.71875 -16.078125 C 13.875 -16.828125 12.609375 -17.203125 10.921875 -17.203125 C 9.753906 -17.203125 8.601562 -17.019531 7.46875 -16.65625 C 6.34375 -16.289062 5.390625 -15.796875 4.609375 -15.171875 L 2.328125 -19.609375 C 3.523438 -20.453125 4.957031 -21.101562 6.625 -21.5625 C 8.289062 -22.03125 10.007812 -22.265625 11.78125 -22.265625 Z M 11.296875 -3.953125 C 12.378906 -3.953125 13.34375 -4.203125 14.1875 -4.703125 C 15.03125 -5.210938 15.628906 -5.957031 15.984375 -6.9375 L 15.984375 -9.171875 L 11.625 -9.171875 C 9.007812 -9.171875 7.703125 -8.316406 7.703125 -6.609375 C 7.703125 -5.785156 8.019531 -5.132812 8.65625 -4.65625 C 9.300781 -4.1875 10.179688 -3.953125 11.296875 -3.953125 Z M 11.296875 -3.953125 "/></g></g></g><g fill="#ffffff" fill-opacity="1"><g transform="translate(437.367053, 97.20951)"><g><path d="M 2.9375 -21.9375 L 9.296875 -21.9375 L 9.296875 0 L 2.9375 0 Z M 6.109375 -24.984375 C 4.941406 -24.984375 3.988281 -25.320312 3.25 -26 C 2.519531 -26.6875 2.15625 -27.53125 2.15625 -28.53125 C 2.15625 -29.539062 2.519531 -30.382812 3.25 -31.0625 C 3.988281 -31.738281 4.941406 -32.078125 6.109375 -32.078125 C 7.273438 -32.078125 8.222656 -31.75 8.953125 -31.09375 C 9.691406 -30.445312 10.0625 -29.632812 10.0625 -28.65625 C 10.0625 -27.59375 9.691406 -26.710938 8.953125 -26.015625 C 8.222656 -25.328125 7.273438 -24.984375 6.109375 -24.984375 Z M 6.109375 -24.984375 "/></g></g></g><g fill="#ffffff" fill-opacity="1"><g transform="translate(449.63249, 97.20951)"><g><path d="M 16.265625 -22.265625 C 18.984375 -22.265625 21.175781 -21.445312 22.84375 -19.8125 C 24.519531 -18.175781 25.359375 -15.757812 25.359375 -12.5625 L 25.359375 0 L 19 0 L 19 -11.578125 C 19 -13.316406 18.617188 -14.613281 17.859375 -15.46875 C 17.097656 -16.320312 15.992188 -16.75 14.546875 -16.75 C 12.941406 -16.75 11.664062 -16.253906 10.71875 -15.265625 C 9.769531 -14.273438 9.296875 -12.800781 9.296875 -10.84375 L 9.296875 0 L 2.9375 0 L 2.9375 -21.9375 L 9.015625 -21.9375 L 9.015625 -19.359375 C 9.847656 -20.285156 10.890625 -21 12.140625 -21.5 C 13.390625 -22.007812 14.765625 -22.265625 16.265625 -22.265625 Z M 16.265625 -22.265625 "/></g></g></g><g fill="#ffffff" fill-opacity="1"><g transform="translate(477.790003, 97.20951)"><g><path d="M 16.265625 -22.265625 C 18.984375 -22.265625 21.175781 -21.445312 22.84375 -19.8125 C 24.519531 -18.175781 25.359375 -15.757812 25.359375 -12.5625 L 25.359375 0 L 19 0 L 19 -11.578125 C 19 -13.316406 18.617188 -14.613281 17.859375 -15.46875 C 17.097656 -16.320312 15.992188 -16.75 14.546875 -16.75 C 12.941406 -16.75 11.664062 -16.253906 10.71875 -15.265625 C 9.769531 -14.273438 9.296875 -12.800781 9.296875 -10.84375 L 9.296875 0 L 2.9375 0 L 2.9375 -21.9375 L 9.015625 -21.9375 L 9.015625 -19.359375 C 9.847656 -20.285156 10.890625 -21 12.140625 -21.5 C 13.390625 -22.007812 14.765625 -22.265625 16.265625 -22.265625 Z M 16.265625 -22.265625 "/></g></g></g><g fill="#ffffff" fill-opacity="1"><g transform="translate(505.53985, 97.20951)"><g><path d="M 24.703125 -21.9375 L 14.796875 1.34375 C 13.796875 3.875 12.550781 5.65625 11.0625 6.6875 C 9.582031 7.71875 7.796875 8.234375 5.703125 8.234375 C 4.566406 8.234375 3.441406 8.054688 2.328125 7.703125 C 1.210938 7.347656 0.300781 6.859375 -0.40625 6.234375 L 1.921875 1.71875 C 2.410156 2.144531 2.972656 2.476562 3.609375 2.71875 C 4.242188 2.96875 4.875 3.09375 5.5 3.09375 C 6.375 3.09375 7.082031 2.878906 7.625 2.453125 C 8.164062 2.035156 8.65625 1.335938 9.09375 0.359375 L 9.171875 0.15625 L -0.328125 -21.9375 L 6.234375 -21.9375 L 12.390625 -7.046875 L 18.59375 -21.9375 Z M 24.703125 -21.9375 "/></g></g></g><g fill="#ffffff" fill-opacity="1"><g transform="translate(529.173893, 97.20951)"><g><path d="M 11.78125 -22.265625 C 15.175781 -22.265625 17.785156 -21.453125 19.609375 -19.828125 C 21.429688 -18.210938 22.34375 -15.773438 22.34375 -12.515625 L 22.34375 0 L 16.390625 0 L 16.390625 -2.734375 C 15.191406 -0.691406 12.960938 0.328125 9.703125 0.328125 C 8.015625 0.328125 6.550781 0.0390625 5.3125 -0.53125 C 4.082031 -1.101562 3.140625 -1.890625 2.484375 -2.890625 C 1.835938 -3.898438 1.515625 -5.039062 1.515625 -6.3125 C 1.515625 -8.351562 2.28125 -9.957031 3.8125 -11.125 C 5.34375 -12.289062 7.710938 -12.875 10.921875 -12.875 L 15.984375 -12.875 C 15.984375 -14.269531 15.5625 -15.335938 14.71875 -16.078125 C 13.875 -16.828125 12.609375 -17.203125 10.921875 -17.203125 C 9.753906 -17.203125 8.601562 -17.019531 7.46875 -16.65625 C 6.34375 -16.289062 5.390625 -15.796875 4.609375 -15.171875 L 2.328125 -19.609375 C 3.523438 -20.453125 4.957031 -21.101562 6.625 -21.5625 C 8.289062 -22.03125 10.007812 -22.265625 11.78125 -22.265625 Z M 11.296875 -3.953125 C 12.378906 -3.953125 13.34375 -4.203125 14.1875 -4.703125 C 15.03125 -5.210938 15.628906 -5.957031 15.984375 -6.9375 L 15.984375 -9.171875 L 11.625 -9.171875 C 9.007812 -9.171875 7.703125 -8.316406 7.703125 -6.609375 C 7.703125 -5.785156 8.019531 -5.132812 8.65625 -4.65625 C 9.300781 -4.1875 10.179688 -3.953125 11.296875 -3.953125 Z M 11.296875 -3.953125 "/></g></g></g></g></g><g transform="matrix(1, 0, 0, 1, 301, 19)"><g clip-path="url(#fc3df1f9fb)"><g fill="#0a457b" fill-opacity="1"><g transform="translate(0.586676, 66.944339)"><g><path d="M 48.796875 -10.546875 L 40.625 -10.546875 L 40.625 0 L 29.28125 0 L 29.28125 -10.546875 L 2.21875 -10.546875 L 2.21875 -18.375 L 25.90625 -50.234375 L 38.109375 -50.234375 L 16.140625 -20.015625 L 29.640625 -20.015625 L 29.640625 -29.421875 L 40.625 -29.421875 L 40.625 -20.015625 L 48.796875 -20.015625 Z M 48.796875 -10.546875 "/></g></g></g></g></g></svg>