<svg xmlns="http://www.w3.org/2000/svg" xmlns:xlink="http://www.w3.org/1999/xlink" width="1152" zoomAndPan="magnify" viewBox="0 0 864 253.499997" height="338" preserveAspectRatio="xMidYMid meet" version="1.0"><defs><g/><clipPath id="3a2689ee77"><path d="M 0.851562 0 L 863 0 L 863 252.578125 L 0.851562 252.578125 Z M 0.851562 0 " clip-rule="nonzero"/></clipPath><clipPath id="4ad4e37977"><path d="M 33.035156 0 L 830.683594 0 C 848.460938 0 862.871094 14.410156 862.871094 32.1875 L 862.871094 220.390625 C 862.871094 238.167969 848.460938 252.578125 830.683594 252.578125 L 33.035156 252.578125 C 15.261719 252.578125 0.851562 238.167969 0.851562 220.390625 L 0.851562 32.1875 C 0.851562 14.410156 15.261719 0 33.035156 0 Z M 33.035156 0 " clip-rule="nonzero"/></clipPath><clipPath id="5fba607dac"><path d="M 0.851562 0 L 862.910156 0 L 862.910156 252.578125 L 0.851562 252.578125 Z M 0.851562 0 " clip-rule="nonzero"/></clipPath><clipPath id="d24397564f"><path d="M 33.035156 0 L 830.683594 0 C 848.460938 0 862.871094 14.410156 862.871094 32.1875 L 862.871094 220.390625 C 862.871094 238.167969 848.460938 252.578125 830.683594 252.578125 L 33.035156 252.578125 C 15.261719 252.578125 0.851562 238.167969 0.851562 220.390625 L 0.851562 32.1875 C 0.851562 14.410156 15.261719 0 33.035156 0 Z M 33.035156 0 " clip-rule="nonzero"/></clipPath><clipPath id="c717ede535"><rect x="0" width="863" y="0" height="253"/></clipPath><clipPath id="2ba4890eb4"><path d="M 271.121094 26.824219 L 862.964844 26.824219 L 862.964844 103.464844 L 271.121094 103.464844 Z M 271.121094 26.824219 " clip-rule="nonzero"/></clipPath><clipPath id="741989055d"><path d="M 309.4375 26.824219 L 824.550781 26.824219 C 834.714844 26.824219 844.460938 30.863281 851.648438 38.050781 C 858.832031 45.234375 862.871094 54.980469 862.871094 65.144531 C 862.871094 75.308594 858.832031 85.054688 851.648438 92.238281 C 844.460938 99.425781 834.714844 103.464844 824.550781 103.464844 L 309.4375 103.464844 C 299.277344 103.464844 289.527344 99.425781 282.34375 92.238281 C 275.15625 85.054688 271.121094 75.308594 271.121094 65.144531 C 271.121094 54.980469 275.15625 45.234375 282.34375 38.050781 C 289.527344 30.863281 299.277344 26.824219 309.4375 26.824219 Z M 309.4375 26.824219 " clip-rule="nonzero"/></clipPath><clipPath id="32e1c2b33b"><path d="M 0.121094 0.824219 L 591.910156 0.824219 L 591.910156 77.464844 L 0.121094 77.464844 Z M 0.121094 0.824219 " clip-rule="nonzero"/></clipPath><clipPath id="15fbe020ea"><path d="M 38.4375 0.824219 L 553.550781 0.824219 C 563.714844 0.824219 573.460938 4.863281 580.648438 12.050781 C 587.832031 19.234375 591.871094 28.980469 591.871094 39.144531 C 591.871094 49.308594 587.832031 59.054688 580.648438 66.238281 C 573.460938 73.425781 563.714844 77.464844 553.550781 77.464844 L 38.4375 77.464844 C 28.277344 77.464844 18.527344 73.425781 11.34375 66.238281 C 4.15625 59.054688 0.121094 49.308594 0.121094 39.144531 C 0.121094 28.980469 4.15625 19.234375 11.34375 12.050781 C 18.527344 4.863281 28.277344 0.824219 38.4375 0.824219 Z M 38.4375 0.824219 " clip-rule="nonzero"/></clipPath><clipPath id="f17f14b1c6"><rect x="0" width="592" y="0" height="78"/></clipPath><clipPath id="e5af1aa864"><path d="M 35.152344 26.824219 L 230.519531 26.824219 L 230.519531 219.945312 L 35.152344 219.945312 Z M 35.152344 26.824219 " clip-rule="nonzero"/></clipPath><clipPath id="1dc65f39fc"><rect x="0" width="398" y="0" height="109"/></clipPath><clipPath id="14eb0cf352"><rect x="0" width="30" y="0" height="88"/></clipPath></defs><g clip-path="url(#3a2689ee77)"><g clip-path="url(#4ad4e37977)"><g transform="matrix(1, 0, 0, 1, 0, 0)"><g clip-path="url(#c717ede535)"><g clip-path="url(#5fba607dac)"><g clip-path="url(#d24397564f)"><path fill="#0a457b" d="M 0.851562 0 L 863.164062 0 L 863.164062 252.578125 L 0.851562 252.578125 Z M 0.851562 0 " fill-opacity="1" fill-rule="nonzero"/></g></g></g></g></g></g><g clip-path="url(#2ba4890eb4)"><g clip-path="url(#741989055d)"><g transform="matrix(1, 0, 0, 1, 271, 26)"><g clip-path="url(#f17f14b1c6)"><g clip-path="url(#32e1c2b33b)"><g clip-path="url(#15fbe020ea)"><path fill="#68ab3d" d="M 0.121094 0.824219 L 591.964844 0.824219 L 591.964844 77.464844 L 0.121094 77.464844 Z M 0.121094 0.824219 " fill-opacity="1" fill-rule="nonzero"/></g></g></g></g></g></g><g clip-path="url(#e5af1aa864)"><path fill="#ffffff" d="M 58.328125 220.097656 L 207.734375 220.097656 L 207.734375 210.265625 L 57.632812 210.265625 L 57.632812 220.097656 Z M 95.480469 111.523438 L 169.882812 111.523438 L 132.683594 84.734375 Z M 63.859375 111.523438 L 86.367188 111.523438 L 131.132812 79.292969 C 132.089844 78.585938 133.382812 78.636719 134.292969 79.332031 L 179 111.523438 L 201.507812 111.523438 L 132.683594 61.960938 Z M 60.324219 126.242188 L 207.734375 126.242188 L 207.734375 116.863281 L 57.632812 116.863281 L 57.632812 126.242188 Z M 168.359375 131.582031 L 168.359375 138.976562 L 196.613281 138.976562 L 196.613281 131.582031 Z M 68.753906 131.582031 L 68.753906 138.976562 L 97.007812 138.976562 L 97.007812 131.582031 Z M 97.007812 204.925781 L 97.007812 197.515625 L 68.75 197.515625 L 68.75 204.925781 Z M 69.703125 192.175781 L 69.703125 144.332031 L 66.078125 144.332031 C 64.601562 144.332031 63.414062 143.132812 63.414062 141.65625 L 63.414062 131.582031 L 35.152344 131.582031 L 35.152344 220.101562 L 52.285156 220.101562 L 52.285156 207.59375 C 52.285156 206.113281 53.484375 204.929688 54.960938 204.929688 L 63.417969 204.929688 L 63.417969 194.855469 C 63.417969 193.375 64.605469 192.179688 66.082031 192.179688 L 69.703125 192.179688 Z M 90.710938 192.175781 L 90.710938 144.332031 L 75.042969 144.332031 L 75.042969 192.175781 Z M 196.613281 204.925781 L 196.613281 197.515625 L 168.355469 197.515625 L 168.355469 204.925781 Z M 169.304688 192.175781 L 169.304688 144.332031 L 165.679688 144.332031 C 164.199219 144.332031 163.015625 143.132812 163.015625 141.65625 L 163.015625 131.582031 L 102.347656 131.582031 L 102.347656 141.65625 C 102.347656 143.132812 101.148438 144.332031 99.671875 144.332031 L 96.058594 144.332031 L 96.058594 192.175781 L 99.671875 192.175781 C 101.148438 192.175781 102.347656 193.371094 102.347656 194.851562 L 102.347656 204.925781 L 163.015625 204.925781 L 163.015625 194.851562 C 163.015625 193.371094 164.199219 192.175781 165.679688 192.175781 Z M 190.3125 192.175781 L 190.3125 144.332031 L 174.644531 144.332031 L 174.644531 192.175781 Z M 195.664062 144.332031 L 195.664062 192.175781 L 199.277344 192.175781 C 200.753906 192.175781 201.953125 193.371094 201.953125 194.851562 L 201.953125 204.925781 L 210.410156 204.925781 C 211.886719 204.925781 213.074219 206.109375 213.074219 207.585938 L 213.074219 220.097656 L 230.214844 220.097656 L 230.214844 131.582031 L 201.949219 131.582031 L 201.949219 141.65625 C 201.949219 143.132812 200.75 144.332031 199.273438 144.332031 Z M 154.488281 160.578125 L 132.621094 151.957031 L 110.746094 160.578125 L 115.679688 162.523438 C 115.78125 162.550781 115.894531 162.597656 115.996094 162.648438 L 132.621094 169.1875 L 149.234375 162.648438 C 149.335938 162.597656 149.445312 162.546875 149.550781 162.523438 Z M 147.707031 168.984375 L 133.578125 174.539062 C 132.933594 174.792969 132.242188 174.777344 131.644531 174.539062 L 117.519531 168.984375 L 117.519531 177.875 C 117.519531 178.34375 121.078125 178.90625 125.625 179.386719 C 127.773438 179.601562 130.167969 179.71875 132.617188 179.71875 C 135.054688 179.71875 137.453125 179.601562 139.601562 179.386719 C 144.144531 178.90625 147.707031 178.34375 147.707031 177.875 Z M 163.335938 162.722656 L 163.335938 182.140625 C 163.335938 183.621094 162.140625 184.804688 160.660156 184.804688 C 159.183594 184.804688 157.984375 183.621094 157.984375 182.140625 L 157.984375 164.933594 L 153.050781 166.878906 L 153.050781 177.875 C 153.050781 181.726562 147.394531 183.933594 140.148438 184.691406 C 137.726562 184.933594 135.148438 185.058594 132.625 185.058594 C 130.085938 185.058594 127.511719 184.933594 125.089844 184.691406 C 117.84375 183.933594 112.1875 181.726562 112.1875 177.875 L 112.1875 166.878906 L 102.507812 163.066406 C 101.144531 162.523438 100.464844 160.984375 100.992188 159.605469 C 101.28125 158.886719 101.839844 158.355469 102.507812 158.09375 L 131.65625 146.601562 C 132.300781 146.347656 132.992188 146.375 133.589844 146.601562 L 162.734375 158.09375 C 164.097656 158.621094 164.78125 160.175781 164.25 161.550781 C 164.039062 162.042969 163.730469 162.433594 163.335938 162.722656 Z M 132.683594 26.941406 L 161.859375 26.941406 C 163.335938 26.941406 164.535156 28.140625 164.535156 29.621094 L 164.535156 48.707031 C 164.535156 50.183594 163.335938 51.382812 161.859375 51.382812 L 135.347656 51.382812 L 135.347656 57.898438 C 135.347656 59.378906 134.164062 60.574219 132.683594 60.574219 C 131.207031 60.574219 130.007812 59.378906 130.007812 57.898438 L 130.007812 29.613281 C 130.007812 28.140625 131.207031 26.941406 132.683594 26.941406 Z M 41.679688 151.980469 C 41.679688 150.503906 42.875 149.320312 44.355469 149.320312 C 45.832031 149.320312 47.03125 150.503906 47.03125 151.980469 L 47.03125 185.953125 C 47.03125 187.429688 45.832031 188.617188 44.355469 188.617188 C 42.875 188.617188 41.679688 187.429688 41.679688 185.953125 Z M 202.46875 151.980469 C 202.46875 150.503906 203.652344 149.320312 205.132812 149.320312 C 206.609375 149.320312 207.808594 150.503906 207.808594 151.980469 L 207.808594 185.953125 C 207.808594 187.429688 206.609375 188.617188 205.132812 188.617188 C 203.652344 188.617188 202.46875 187.429688 202.46875 185.953125 Z M 218.335938 151.980469 C 218.335938 150.503906 219.535156 149.320312 221.011719 149.320312 C 222.492188 149.320312 223.675781 150.503906 223.675781 151.980469 L 223.675781 185.953125 C 223.675781 187.429688 222.492188 188.617188 221.011719 188.617188 C 219.535156 188.617188 218.335938 187.429688 218.335938 185.953125 Z M 57.558594 151.980469 C 57.558594 150.503906 58.757812 149.320312 60.222656 149.320312 C 61.699219 149.320312 62.898438 150.503906 62.898438 151.980469 L 62.898438 185.953125 C 62.898438 187.429688 61.699219 188.617188 60.222656 188.617188 C 58.757812 188.617188 57.558594 187.429688 57.558594 185.953125 Z M 57.558594 151.980469 " fill-opacity="1" fill-rule="nonzero"/></g><g transform="matrix(1, 0, 0, 1, 271, 115)"><g clip-path="url(#1dc65f39fc)"><g fill="#ffffff" fill-opacity="1"><g transform="translate(0.119574, 40.667914)"><g><path d="M 17.046875 0.484375 C 14.128906 0.484375 11.492188 -0.144531 9.140625 -1.40625 C 6.796875 -2.664062 4.953125 -4.414062 3.609375 -6.65625 C 2.265625 -8.90625 1.59375 -11.441406 1.59375 -14.265625 C 1.59375 -17.085938 2.265625 -19.617188 3.609375 -21.859375 C 4.953125 -24.109375 6.796875 -25.863281 9.140625 -27.125 C 11.492188 -28.394531 14.140625 -29.03125 17.078125 -29.03125 C 19.554688 -29.03125 21.789062 -28.59375 23.78125 -27.71875 C 25.78125 -26.851562 27.460938 -25.601562 28.828125 -23.96875 L 24.578125 -20.0625 C 22.648438 -22.289062 20.257812 -23.40625 17.40625 -23.40625 C 15.632812 -23.40625 14.054688 -23.015625 12.671875 -22.234375 C 11.285156 -21.460938 10.207031 -20.382812 9.4375 -19 C 8.664062 -17.613281 8.28125 -16.035156 8.28125 -14.265625 C 8.28125 -12.503906 8.664062 -10.925781 9.4375 -9.53125 C 10.207031 -8.144531 11.285156 -7.066406 12.671875 -6.296875 C 14.054688 -5.523438 15.632812 -5.140625 17.40625 -5.140625 C 20.257812 -5.140625 22.648438 -6.265625 24.578125 -8.515625 L 28.828125 -4.609375 C 27.460938 -2.953125 25.773438 -1.6875 23.765625 -0.8125 C 21.753906 0.0507812 19.515625 0.484375 17.046875 0.484375 Z M 17.046875 0.484375 "/></g></g></g><g fill="#ffffff" fill-opacity="1"><g transform="translate(29.82547, 40.667914)"><g><path d="M 11.78125 -22.265625 C 15.175781 -22.265625 17.785156 -21.453125 19.609375 -19.828125 C 21.429688 -18.210938 22.34375 -15.773438 22.34375 -12.515625 L 22.34375 0 L 16.390625 0 L 16.390625 -2.734375 C 15.191406 -0.691406 12.960938 0.328125 9.703125 0.328125 C 8.015625 0.328125 6.550781 0.0390625 5.3125 -0.53125 C 4.082031 -1.101562 3.140625 -1.890625 2.484375 -2.890625 C 1.835938 -3.898438 1.515625 -5.039062 1.515625 -6.3125 C 1.515625 -8.351562 2.28125 -9.957031 3.8125 -11.125 C 5.34375 -12.289062 7.710938 -12.875 10.921875 -12.875 L 15.984375 -12.875 C 15.984375 -14.269531 15.5625 -15.335938 14.71875 -16.078125 C 13.875 -16.828125 12.609375 -17.203125 10.921875 -17.203125 C 9.753906 -17.203125 8.601562 -17.019531 7.46875 -16.65625 C 6.34375 -16.289062 5.390625 -15.796875 4.609375 -15.171875 L 2.328125 -19.609375 C 3.523438 -20.453125 4.957031 -21.101562 6.625 -21.5625 C 8.289062 -22.03125 10.007812 -22.265625 11.78125 -22.265625 Z M 11.296875 -3.953125 C 12.378906 -3.953125 13.34375 -4.203125 14.1875 -4.703125 C 15.03125 -5.210938 15.628906 -5.957031 15.984375 -6.9375 L 15.984375 -9.171875 L 11.625 -9.171875 C 9.007812 -9.171875 7.703125 -8.316406 7.703125 -6.609375 C 7.703125 -5.785156 8.019531 -5.132812 8.65625 -4.65625 C 9.300781 -4.1875 10.179688 -3.953125 11.296875 -3.953125 Z M 11.296875 -3.953125 "/></g></g></g><g fill="#ffffff" fill-opacity="1"><g transform="translate(54.967551, 40.667914)"><g><path d="M 15.90625 -22.265625 C 17.9375 -22.265625 19.785156 -21.789062 21.453125 -20.84375 C 23.128906 -19.90625 24.441406 -18.585938 25.390625 -16.890625 C 26.347656 -15.191406 26.828125 -13.21875 26.828125 -10.96875 C 26.828125 -8.707031 26.347656 -6.726562 25.390625 -5.03125 C 24.441406 -3.332031 23.128906 -2.015625 21.453125 -1.078125 C 19.785156 -0.140625 17.9375 0.328125 15.90625 0.328125 C 13.101562 0.328125 10.898438 -0.554688 9.296875 -2.328125 L 9.296875 7.90625 L 2.9375 7.90625 L 2.9375 -21.9375 L 9.015625 -21.9375 L 9.015625 -19.40625 C 10.585938 -21.3125 12.882812 -22.265625 15.90625 -22.265625 Z M 14.796875 -4.890625 C 16.429688 -4.890625 17.769531 -5.4375 18.8125 -6.53125 C 19.851562 -7.632812 20.375 -9.113281 20.375 -10.96875 C 20.375 -12.8125 19.851562 -14.285156 18.8125 -15.390625 C 17.769531 -16.492188 16.429688 -17.046875 14.796875 -17.046875 C 13.171875 -17.046875 11.832031 -16.492188 10.78125 -15.390625 C 9.738281 -14.285156 9.21875 -12.8125 9.21875 -10.96875 C 9.21875 -9.113281 9.738281 -7.632812 10.78125 -6.53125 C 11.832031 -5.4375 13.171875 -4.890625 14.796875 -4.890625 Z M 14.796875 -4.890625 "/></g></g></g><g fill="#ffffff" fill-opacity="1"><g transform="translate(82.717416, 40.667914)"><g><path d="M 11.78125 -22.265625 C 15.175781 -22.265625 17.785156 -21.453125 19.609375 -19.828125 C 21.429688 -18.210938 22.34375 -15.773438 22.34375 -12.515625 L 22.34375 0 L 16.390625 0 L 16.390625 -2.734375 C 15.191406 -0.691406 12.960938 0.328125 9.703125 0.328125 C 8.015625 0.328125 6.550781 0.0390625 5.3125 -0.53125 C 4.082031 -1.101562 3.140625 -1.890625 2.484375 -2.890625 C 1.835938 -3.898438 1.515625 -5.039062 1.515625 -6.3125 C 1.515625 -8.351562 2.28125 -9.957031 3.8125 -11.125 C 5.34375 -12.289062 7.710938 -12.875 10.921875 -12.875 L 15.984375 -12.875 C 15.984375 -14.269531 15.5625 -15.335938 14.71875 -16.078125 C 13.875 -16.828125 12.609375 -17.203125 10.921875 -17.203125 C 9.753906 -17.203125 8.601562 -17.019531 7.46875 -16.65625 C 6.34375 -16.289062 5.390625 -15.796875 4.609375 -15.171875 L 2.328125 -19.609375 C 3.523438 -20.453125 4.957031 -21.101562 6.625 -21.5625 C 8.289062 -22.03125 10.007812 -22.265625 11.78125 -22.265625 Z M 11.296875 -3.953125 C 12.378906 -3.953125 13.34375 -4.203125 14.1875 -4.703125 C 15.03125 -5.210938 15.628906 -5.957031 15.984375 -6.9375 L 15.984375 -9.171875 L 11.625 -9.171875 C 9.007812 -9.171875 7.703125 -8.316406 7.703125 -6.609375 C 7.703125 -5.785156 8.019531 -5.132812 8.65625 -4.65625 C 9.300781 -4.1875 10.179688 -3.953125 11.296875 -3.953125 Z M 11.296875 -3.953125 "/></g></g></g><g fill="#ffffff" fill-opacity="1"><g transform="translate(107.859497, 40.667914)"><g><path d="M 2.9375 -21.9375 L 9.296875 -21.9375 L 9.296875 0 L 2.9375 0 Z M 6.109375 -24.984375 C 4.941406 -24.984375 3.988281 -25.320312 3.25 -26 C 2.519531 -26.6875 2.15625 -27.53125 2.15625 -28.53125 C 2.15625 -29.539062 2.519531 -30.382812 3.25 -31.0625 C 3.988281 -31.738281 4.941406 -32.078125 6.109375 -32.078125 C 7.273438 -32.078125 8.222656 -31.75 8.953125 -31.09375 C 9.691406 -30.445312 10.0625 -29.632812 10.0625 -28.65625 C 10.0625 -27.59375 9.691406 -26.710938 8.953125 -26.015625 C 8.222656 -25.328125 7.273438 -24.984375 6.109375 -24.984375 Z M 6.109375 -24.984375 "/></g></g></g><g fill="#ffffff" fill-opacity="1"><g transform="translate(120.124916, 40.667914)"><g><path d="M 11.78125 -22.265625 C 15.175781 -22.265625 17.785156 -21.453125 19.609375 -19.828125 C 21.429688 -18.210938 22.34375 -15.773438 22.34375 -12.515625 L 22.34375 0 L 16.390625 0 L 16.390625 -2.734375 C 15.191406 -0.691406 12.960938 0.328125 9.703125 0.328125 C 8.015625 0.328125 6.550781 0.0390625 5.3125 -0.53125 C 4.082031 -1.101562 3.140625 -1.890625 2.484375 -2.890625 C 1.835938 -3.898438 1.515625 -5.039062 1.515625 -6.3125 C 1.515625 -8.351562 2.28125 -9.957031 3.8125 -11.125 C 5.34375 -12.289062 7.710938 -12.875 10.921875 -12.875 L 15.984375 -12.875 C 15.984375 -14.269531 15.5625 -15.335938 14.71875 -16.078125 C 13.875 -16.828125 12.609375 -17.203125 10.921875 -17.203125 C 9.753906 -17.203125 8.601562 -17.019531 7.46875 -16.65625 C 6.34375 -16.289062 5.390625 -15.796875 4.609375 -15.171875 L 2.328125 -19.609375 C 3.523438 -20.453125 4.957031 -21.101562 6.625 -21.5625 C 8.289062 -22.03125 10.007812 -22.265625 11.78125 -22.265625 Z M 11.296875 -3.953125 C 12.378906 -3.953125 13.34375 -4.203125 14.1875 -4.703125 C 15.03125 -5.210938 15.628906 -5.957031 15.984375 -6.9375 L 15.984375 -9.171875 L 11.625 -9.171875 C 9.007812 -9.171875 7.703125 -8.316406 7.703125 -6.609375 C 7.703125 -5.785156 8.019531 -5.132812 8.65625 -4.65625 C 9.300781 -4.1875 10.179688 -3.953125 11.296875 -3.953125 Z M 11.296875 -3.953125 "/></g></g></g><g fill="#ffffff" fill-opacity="1"><g transform="translate(145.266997, 40.667914)"><g><path d="M 16.265625 -22.265625 C 18.984375 -22.265625 21.175781 -21.445312 22.84375 -19.8125 C 24.519531 -18.175781 25.359375 -15.757812 25.359375 -12.5625 L 25.359375 0 L 19 0 L 19 -11.578125 C 19 -13.316406 18.617188 -14.613281 17.859375 -15.46875 C 17.097656 -16.320312 15.992188 -16.75 14.546875 -16.75 C 12.941406 -16.75 11.664062 -16.253906 10.71875 -15.265625 C 9.769531 -14.273438 9.296875 -12.800781 9.296875 -10.84375 L 9.296875 0 L 2.9375 0 L 2.9375 -21.9375 L 9.015625 -21.9375 L 9.015625 -19.359375 C 9.847656 -20.285156 10.890625 -21 12.140625 -21.5 C 13.390625 -22.007812 14.765625 -22.265625 16.265625 -22.265625 Z M 16.265625 -22.265625 "/></g></g></g><g fill="#ffffff" fill-opacity="1"><g transform="translate(173.42451, 40.667914)"><g/></g></g><g fill="#ffffff" fill-opacity="1"><g transform="translate(184.956458, 40.667914)"><g><path d="M 15.734375 -28.53125 C 18.265625 -28.53125 20.457031 -28.109375 22.3125 -27.265625 C 24.175781 -26.429688 25.609375 -25.238281 26.609375 -23.6875 C 27.617188 -22.132812 28.125 -20.300781 28.125 -18.1875 C 28.125 -16.09375 27.617188 -14.265625 26.609375 -12.703125 C 25.609375 -11.140625 24.175781 -9.941406 22.3125 -9.109375 C 20.457031 -8.285156 18.265625 -7.875 15.734375 -7.875 L 9.984375 -7.875 L 9.984375 0 L 3.390625 0 L 3.390625 -28.53125 Z M 15.375 -13.25 C 17.351562 -13.25 18.859375 -13.675781 19.890625 -14.53125 C 20.921875 -15.382812 21.4375 -16.601562 21.4375 -18.1875 C 21.4375 -19.789062 20.921875 -21.019531 19.890625 -21.875 C 18.859375 -22.726562 17.351562 -23.15625 15.375 -23.15625 L 9.984375 -23.15625 L 9.984375 -13.25 Z M 15.375 -13.25 "/></g></g></g><g fill="#ffffff" fill-opacity="1"><g transform="translate(214.377006, 40.667914)"><g><path d="M 9.015625 -19.03125 C 9.773438 -20.09375 10.796875 -20.894531 12.078125 -21.4375 C 13.367188 -21.988281 14.859375 -22.265625 16.546875 -22.265625 L 16.546875 -16.390625 C 15.835938 -16.441406 15.363281 -16.46875 15.125 -16.46875 C 13.300781 -16.46875 11.875 -15.957031 10.84375 -14.9375 C 9.8125 -13.914062 9.296875 -12.390625 9.296875 -10.359375 L 9.296875 0 L 2.9375 0 L 2.9375 -21.9375 L 9.015625 -21.9375 Z M 9.015625 -19.03125 "/></g></g></g><g fill="#ffffff" fill-opacity="1"><g transform="translate(231.572883, 40.667914)"><g><path d="M 13.375 0.328125 C 11.0625 0.328125 8.988281 -0.148438 7.15625 -1.109375 C 5.320312 -2.078125 3.882812 -3.414062 2.84375 -5.125 C 1.8125 -6.84375 1.296875 -8.789062 1.296875 -10.96875 C 1.296875 -13.144531 1.8125 -15.085938 2.84375 -16.796875 C 3.882812 -18.503906 5.320312 -19.84375 7.15625 -20.8125 C 8.988281 -21.78125 11.0625 -22.265625 13.375 -22.265625 C 15.6875 -22.265625 17.75 -21.78125 19.5625 -20.8125 C 21.382812 -19.84375 22.8125 -18.503906 23.84375 -16.796875 C 24.875 -15.085938 25.390625 -13.144531 25.390625 -10.96875 C 25.390625 -8.789062 24.875 -6.84375 23.84375 -5.125 C 22.8125 -3.414062 21.382812 -2.078125 19.5625 -1.109375 C 17.75 -0.148438 15.6875 0.328125 13.375 0.328125 Z M 13.375 -4.890625 C 15 -4.890625 16.332031 -5.4375 17.375 -6.53125 C 18.425781 -7.632812 18.953125 -9.113281 18.953125 -10.96875 C 18.953125 -12.8125 18.425781 -14.285156 17.375 -15.390625 C 16.332031 -16.492188 15 -17.046875 13.375 -17.046875 C 11.738281 -17.046875 10.390625 -16.492188 9.328125 -15.390625 C 8.273438 -14.285156 7.75 -12.8125 7.75 -10.96875 C 7.75 -9.113281 8.273438 -7.632812 9.328125 -6.53125 C 10.390625 -5.4375 11.738281 -4.890625 13.375 -4.890625 Z M 13.375 -4.890625 "/></g></g></g><g fill="#ffffff" fill-opacity="1"><g transform="translate(258.263419, 40.667914)"><g><path d="M 25.5625 -21.9375 L 25.5625 -3.671875 C 25.5625 0.347656 24.515625 3.335938 22.421875 5.296875 C 20.328125 7.253906 17.269531 8.234375 13.25 8.234375 C 11.125 8.234375 9.109375 7.972656 7.203125 7.453125 C 5.304688 6.941406 3.734375 6.195312 2.484375 5.21875 L 5.015625 0.65625 C 5.941406 1.414062 7.109375 2.019531 8.515625 2.46875 C 9.929688 2.914062 11.347656 3.140625 12.765625 3.140625 C 14.960938 3.140625 16.582031 2.640625 17.625 1.640625 C 18.675781 0.648438 19.203125 -0.847656 19.203125 -2.859375 L 19.203125 -3.796875 C 17.546875 -1.972656 15.234375 -1.0625 12.265625 -1.0625 C 10.253906 -1.0625 8.410156 -1.5 6.734375 -2.375 C 5.066406 -3.257812 3.742188 -4.503906 2.765625 -6.109375 C 1.785156 -7.710938 1.296875 -9.5625 1.296875 -11.65625 C 1.296875 -13.75 1.785156 -15.597656 2.765625 -17.203125 C 3.742188 -18.804688 5.066406 -20.050781 6.734375 -20.9375 C 8.410156 -21.820312 10.253906 -22.265625 12.265625 -22.265625 C 15.453125 -22.265625 17.875 -21.21875 19.53125 -19.125 L 19.53125 -21.9375 Z M 13.53125 -6.28125 C 15.21875 -6.28125 16.597656 -6.773438 17.671875 -7.765625 C 18.742188 -8.753906 19.28125 -10.050781 19.28125 -11.65625 C 19.28125 -13.257812 18.742188 -14.554688 17.671875 -15.546875 C 16.597656 -16.546875 15.21875 -17.046875 13.53125 -17.046875 C 11.84375 -17.046875 10.457031 -16.546875 9.375 -15.546875 C 8.289062 -14.554688 7.75 -13.257812 7.75 -11.65625 C 7.75 -10.050781 8.289062 -8.753906 9.375 -7.765625 C 10.457031 -6.773438 11.84375 -6.28125 13.53125 -6.28125 Z M 13.53125 -6.28125 "/></g></g></g><g fill="#ffffff" fill-opacity="1"><g transform="translate(286.787668, 40.667914)"><g><path d="M 9.015625 -19.03125 C 9.773438 -20.09375 10.796875 -20.894531 12.078125 -21.4375 C 13.367188 -21.988281 14.859375 -22.265625 16.546875 -22.265625 L 16.546875 -16.390625 C 15.835938 -16.441406 15.363281 -16.46875 15.125 -16.46875 C 13.300781 -16.46875 11.875 -15.957031 10.84375 -14.9375 C 9.8125 -13.914062 9.296875 -12.390625 9.296875 -10.359375 L 9.296875 0 L 2.9375 0 L 2.9375 -21.9375 L 9.015625 -21.9375 Z M 9.015625 -19.03125 "/></g></g></g><g fill="#ffffff" fill-opacity="1"><g transform="translate(304.065078, 40.667914)"><g><path d="M 11.78125 -22.265625 C 15.175781 -22.265625 17.785156 -21.453125 19.609375 -19.828125 C 21.429688 -18.210938 22.34375 -15.773438 22.34375 -12.515625 L 22.34375 0 L 16.390625 0 L 16.390625 -2.734375 C 15.191406 -0.691406 12.960938 0.328125 9.703125 0.328125 C 8.015625 0.328125 6.550781 0.0390625 5.3125 -0.53125 C 4.082031 -1.101562 3.140625 -1.890625 2.484375 -2.890625 C 1.835938 -3.898438 1.515625 -5.039062 1.515625 -6.3125 C 1.515625 -8.351562 2.28125 -9.957031 3.8125 -11.125 C 5.34375 -12.289062 7.710938 -12.875 10.921875 -12.875 L 15.984375 -12.875 C 15.984375 -14.269531 15.5625 -15.335938 14.71875 -16.078125 C 13.875 -16.828125 12.609375 -17.203125 10.921875 -17.203125 C 9.753906 -17.203125 8.601562 -17.019531 7.46875 -16.65625 C 6.34375 -16.289062 5.390625 -15.796875 4.609375 -15.171875 L 2.328125 -19.609375 C 3.523438 -20.453125 4.957031 -21.101562 6.625 -21.5625 C 8.289062 -22.03125 10.007812 -22.265625 11.78125 -22.265625 Z M 11.296875 -3.953125 C 12.378906 -3.953125 13.34375 -4.203125 14.1875 -4.703125 C 15.03125 -5.210938 15.628906 -5.957031 15.984375 -6.9375 L 15.984375 -9.171875 L 11.625 -9.171875 C 9.007812 -9.171875 7.703125 -8.316406 7.703125 -6.609375 C 7.703125 -5.785156 8.019531 -5.132812 8.65625 -4.65625 C 9.300781 -4.1875 10.179688 -3.953125 11.296875 -3.953125 Z M 11.296875 -3.953125 "/></g></g></g><g fill="#ffffff" fill-opacity="1"><g transform="translate(329.20714, 40.667914)"><g><path d="M 31.015625 -22.265625 C 33.765625 -22.265625 35.945312 -21.453125 37.5625 -19.828125 C 39.175781 -18.210938 39.984375 -15.789062 39.984375 -12.5625 L 39.984375 0 L 33.625 0 L 33.625 -11.578125 C 33.625 -13.316406 33.265625 -14.613281 32.546875 -15.46875 C 31.828125 -16.320312 30.800781 -16.75 29.46875 -16.75 C 27.976562 -16.75 26.796875 -16.265625 25.921875 -15.296875 C 25.054688 -14.335938 24.625 -12.90625 24.625 -11 L 24.625 0 L 18.265625 0 L 18.265625 -11.578125 C 18.265625 -15.023438 16.878906 -16.75 14.109375 -16.75 C 12.640625 -16.75 11.46875 -16.265625 10.59375 -15.296875 C 9.726562 -14.335938 9.296875 -12.90625 9.296875 -11 L 9.296875 0 L 2.9375 0 L 2.9375 -21.9375 L 9.015625 -21.9375 L 9.015625 -19.40625 C 9.828125 -20.332031 10.820312 -21.039062 12 -21.53125 C 13.1875 -22.019531 14.488281 -22.265625 15.90625 -22.265625 C 17.445312 -22.265625 18.84375 -21.957031 20.09375 -21.34375 C 21.34375 -20.726562 22.347656 -19.835938 23.109375 -18.671875 C 24.003906 -19.804688 25.140625 -20.6875 26.515625 -21.3125 C 27.890625 -21.945312 29.390625 -22.265625 31.015625 -22.265625 Z M 31.015625 -22.265625 "/></g></g></g><g fill="#ffffff" fill-opacity="1"><g transform="translate(0.119574, 97.205185)"><g><path d="M 15.734375 -28.53125 C 18.265625 -28.53125 20.457031 -28.109375 22.3125 -27.265625 C 24.175781 -26.429688 25.609375 -25.238281 26.609375 -23.6875 C 27.617188 -22.132812 28.125 -20.300781 28.125 -18.1875 C 28.125 -16.09375 27.617188 -14.265625 26.609375 -12.703125 C 25.609375 -11.140625 24.175781 -9.941406 22.3125 -9.109375 C 20.457031 -8.285156 18.265625 -7.875 15.734375 -7.875 L 9.984375 -7.875 L 9.984375 0 L 3.390625 0 L 3.390625 -28.53125 Z M 15.375 -13.25 C 17.351562 -13.25 18.859375 -13.675781 19.890625 -14.53125 C 20.921875 -15.382812 21.4375 -16.601562 21.4375 -18.1875 C 21.4375 -19.789062 20.921875 -21.019531 19.890625 -21.875 C 18.859375 -22.726562 17.351562 -23.15625 15.375 -23.15625 L 9.984375 -23.15625 L 9.984375 -13.25 Z M 15.375 -13.25 "/></g></g></g><g fill="#ffffff" fill-opacity="1"><g transform="translate(29.499355, 97.205185)"><g><path d="M 24.421875 -10.890625 C 24.421875 -10.804688 24.378906 -10.234375 24.296875 -9.171875 L 7.703125 -9.171875 C 8.003906 -7.816406 8.710938 -6.742188 9.828125 -5.953125 C 10.941406 -5.160156 12.328125 -4.765625 13.984375 -4.765625 C 15.117188 -4.765625 16.128906 -4.929688 17.015625 -5.265625 C 17.898438 -5.609375 18.722656 -6.148438 19.484375 -6.890625 L 22.875 -3.21875 C 20.800781 -0.851562 17.78125 0.328125 13.8125 0.328125 C 11.34375 0.328125 9.15625 -0.148438 7.25 -1.109375 C 5.351562 -2.078125 3.882812 -3.414062 2.84375 -5.125 C 1.8125 -6.84375 1.296875 -8.789062 1.296875 -10.96875 C 1.296875 -13.113281 1.804688 -15.046875 2.828125 -16.765625 C 3.847656 -18.492188 5.25 -19.84375 7.03125 -20.8125 C 8.8125 -21.78125 10.800781 -22.265625 13 -22.265625 C 15.144531 -22.265625 17.085938 -21.800781 18.828125 -20.875 C 20.566406 -19.945312 21.929688 -18.617188 22.921875 -16.890625 C 23.921875 -15.171875 24.421875 -13.171875 24.421875 -10.890625 Z M 13.046875 -17.453125 C 11.609375 -17.453125 10.398438 -17.039062 9.421875 -16.21875 C 8.441406 -15.40625 7.84375 -14.289062 7.625 -12.875 L 18.421875 -12.875 C 18.203125 -14.269531 17.601562 -15.378906 16.625 -16.203125 C 15.65625 -17.035156 14.460938 -17.453125 13.046875 -17.453125 Z M 13.046875 -17.453125 "/></g></g></g><g fill="#ffffff" fill-opacity="1"><g transform="translate(55.211931, 97.205185)"><g><path d="M 16.265625 -22.265625 C 18.984375 -22.265625 21.175781 -21.445312 22.84375 -19.8125 C 24.519531 -18.175781 25.359375 -15.757812 25.359375 -12.5625 L 25.359375 0 L 19 0 L 19 -11.578125 C 19 -13.316406 18.617188 -14.613281 17.859375 -15.46875 C 17.097656 -16.320312 15.992188 -16.75 14.546875 -16.75 C 12.941406 -16.75 11.664062 -16.253906 10.71875 -15.265625 C 9.769531 -14.273438 9.296875 -12.800781 9.296875 -10.84375 L 9.296875 0 L 2.9375 0 L 2.9375 -21.9375 L 9.015625 -21.9375 L 9.015625 -19.359375 C 9.847656 -20.285156 10.890625 -21 12.140625 -21.5 C 13.390625 -22.007812 14.765625 -22.265625 16.265625 -22.265625 Z M 16.265625 -22.265625 "/></g></g></g><g fill="#ffffff" fill-opacity="1"><g transform="translate(83.614045, 97.205185)"><g><path d="M 25.28125 -30.25 L 25.28125 0 L 19.203125 0 L 19.203125 -2.53125 C 17.628906 -0.625 15.347656 0.328125 12.359375 0.328125 C 10.285156 0.328125 8.410156 -0.132812 6.734375 -1.0625 C 5.066406 -1.988281 3.757812 -3.304688 2.8125 -5.015625 C 1.863281 -6.722656 1.390625 -8.707031 1.390625 -10.96875 C 1.390625 -13.21875 1.863281 -15.195312 2.8125 -16.90625 C 3.757812 -18.625 5.066406 -19.945312 6.734375 -20.875 C 8.410156 -21.800781 10.285156 -22.265625 12.359375 -22.265625 C 15.148438 -22.265625 17.335938 -21.378906 18.921875 -19.609375 L 18.921875 -30.25 Z M 13.453125 -4.890625 C 15.054688 -4.890625 16.382812 -5.4375 17.4375 -6.53125 C 18.5 -7.632812 19.03125 -9.113281 19.03125 -10.96875 C 19.03125 -12.8125 18.5 -14.285156 17.4375 -15.390625 C 16.382812 -16.492188 15.054688 -17.046875 13.453125 -17.046875 C 11.816406 -17.046875 10.46875 -16.492188 9.40625 -15.390625 C 8.351562 -14.285156 7.828125 -12.8125 7.828125 -10.96875 C 7.828125 -9.113281 8.351562 -7.632812 9.40625 -6.53125 C 10.46875 -5.4375 11.816406 -4.890625 13.453125 -4.890625 Z M 13.453125 -4.890625 "/></g></g></g><g fill="#ffffff" fill-opacity="1"><g transform="translate(111.812307, 97.205185)"><g><path d="M 2.9375 -21.9375 L 9.296875 -21.9375 L 9.296875 0 L 2.9375 0 Z M 6.109375 -24.984375 C 4.941406 -24.984375 3.988281 -25.320312 3.25 -26 C 2.519531 -26.6875 2.15625 -27.53125 2.15625 -28.53125 C 2.15625 -29.539062 2.519531 -30.382812 3.25 -31.0625 C 3.988281 -31.738281 4.941406 -32.078125 6.109375 -32.078125 C 7.273438 -32.078125 8.222656 -31.75 8.953125 -31.09375 C 9.691406 -30.445312 10.0625 -29.632812 10.0625 -28.65625 C 10.0625 -27.59375 9.691406 -26.710938 8.953125 -26.015625 C 8.222656 -25.328125 7.273438 -24.984375 6.109375 -24.984375 Z M 6.109375 -24.984375 "/></g></g></g><g fill="#ffffff" fill-opacity="1"><g transform="translate(124.077725, 97.205185)"><g><path d="M 25.28125 -30.25 L 25.28125 0 L 19.203125 0 L 19.203125 -2.53125 C 17.628906 -0.625 15.347656 0.328125 12.359375 0.328125 C 10.285156 0.328125 8.410156 -0.132812 6.734375 -1.0625 C 5.066406 -1.988281 3.757812 -3.304688 2.8125 -5.015625 C 1.863281 -6.722656 1.390625 -8.707031 1.390625 -10.96875 C 1.390625 -13.21875 1.863281 -15.195312 2.8125 -16.90625 C 3.757812 -18.625 5.066406 -19.945312 6.734375 -20.875 C 8.410156 -21.800781 10.285156 -22.265625 12.359375 -22.265625 C 15.148438 -22.265625 17.335938 -21.378906 18.921875 -19.609375 L 18.921875 -30.25 Z M 13.453125 -4.890625 C 15.054688 -4.890625 16.382812 -5.4375 17.4375 -6.53125 C 18.5 -7.632812 19.03125 -9.113281 19.03125 -10.96875 C 19.03125 -12.8125 18.5 -14.285156 17.4375 -15.390625 C 16.382812 -16.492188 15.054688 -17.046875 13.453125 -17.046875 C 11.816406 -17.046875 10.46875 -16.492188 9.40625 -15.390625 C 8.351562 -14.285156 7.828125 -12.8125 7.828125 -10.96875 C 7.828125 -9.113281 8.351562 -7.632812 9.40625 -6.53125 C 10.46875 -5.4375 11.816406 -4.890625 13.453125 -4.890625 Z M 13.453125 -4.890625 "/></g></g></g><g fill="#ffffff" fill-opacity="1"><g transform="translate(152.275987, 97.205185)"><g><path d="M 2.9375 -21.9375 L 9.296875 -21.9375 L 9.296875 0 L 2.9375 0 Z M 6.109375 -24.984375 C 4.941406 -24.984375 3.988281 -25.320312 3.25 -26 C 2.519531 -26.6875 2.15625 -27.53125 2.15625 -28.53125 C 2.15625 -29.539062 2.519531 -30.382812 3.25 -31.0625 C 3.988281 -31.738281 4.941406 -32.078125 6.109375 -32.078125 C 7.273438 -32.078125 8.222656 -31.75 8.953125 -31.09375 C 9.691406 -30.445312 10.0625 -29.632812 10.0625 -28.65625 C 10.0625 -27.59375 9.691406 -26.710938 8.953125 -26.015625 C 8.222656 -25.328125 7.273438 -24.984375 6.109375 -24.984375 Z M 6.109375 -24.984375 "/></g></g></g><g fill="#ffffff" fill-opacity="1"><g transform="translate(164.541406, 97.205185)"><g><path d="M 12.359375 -8.59375 L 9.296875 -5.578125 L 9.296875 0 L 2.9375 0 L 2.9375 -30.25 L 9.296875 -30.25 L 9.296875 -13.125 L 18.59375 -21.9375 L 26.171875 -21.9375 L 17.046875 -12.640625 L 26.984375 0 L 19.28125 0 Z M 12.359375 -8.59375 "/></g></g></g><g fill="#ffffff" fill-opacity="1"><g transform="translate(191.028035, 97.205185)"><g><path d="M 11.78125 -22.265625 C 15.175781 -22.265625 17.785156 -21.453125 19.609375 -19.828125 C 21.429688 -18.210938 22.34375 -15.773438 22.34375 -12.515625 L 22.34375 0 L 16.390625 0 L 16.390625 -2.734375 C 15.191406 -0.691406 12.960938 0.328125 9.703125 0.328125 C 8.015625 0.328125 6.550781 0.0390625 5.3125 -0.53125 C 4.082031 -1.101562 3.140625 -1.890625 2.484375 -2.890625 C 1.835938 -3.898438 1.515625 -5.039062 1.515625 -6.3125 C 1.515625 -8.351562 2.28125 -9.957031 3.8125 -11.125 C 5.34375 -12.289062 7.710938 -12.875 10.921875 -12.875 L 15.984375 -12.875 C 15.984375 -14.269531 15.5625 -15.335938 14.71875 -16.078125 C 13.875 -16.828125 12.609375 -17.203125 10.921875 -17.203125 C 9.753906 -17.203125 8.601562 -17.019531 7.46875 -16.65625 C 6.34375 -16.289062 5.390625 -15.796875 4.609375 -15.171875 L 2.328125 -19.609375 C 3.523438 -20.453125 4.957031 -21.101562 6.625 -21.5625 C 8.289062 -22.03125 10.007812 -22.265625 11.78125 -22.265625 Z M 11.296875 -3.953125 C 12.378906 -3.953125 13.34375 -4.203125 14.1875 -4.703125 C 15.03125 -5.210938 15.628906 -5.957031 15.984375 -6.9375 L 15.984375 -9.171875 L 11.625 -9.171875 C 9.007812 -9.171875 7.703125 -8.316406 7.703125 -6.609375 C 7.703125 -5.785156 8.019531 -5.132812 8.65625 -4.65625 C 9.300781 -4.1875 10.179688 -3.953125 11.296875 -3.953125 Z M 11.296875 -3.953125 "/></g></g></g><g fill="#ffffff" fill-opacity="1"><g transform="translate(216.170116, 97.205185)"><g><path d="M 16.265625 -22.265625 C 18.984375 -22.265625 21.175781 -21.445312 22.84375 -19.8125 C 24.519531 -18.175781 25.359375 -15.757812 25.359375 -12.5625 L 25.359375 0 L 19 0 L 19 -11.578125 C 19 -13.316406 18.617188 -14.613281 17.859375 -15.46875 C 17.097656 -16.320312 15.992188 -16.75 14.546875 -16.75 C 12.941406 -16.75 11.664062 -16.253906 10.71875 -15.265625 C 9.769531 -14.273438 9.296875 -12.800781 9.296875 -10.84375 L 9.296875 0 L 2.9375 0 L 2.9375 -21.9375 L 9.015625 -21.9375 L 9.015625 -19.359375 C 9.847656 -20.285156 10.890625 -21 12.140625 -21.5 C 13.390625 -22.007812 14.765625 -22.265625 16.265625 -22.265625 Z M 16.265625 -22.265625 "/></g></g></g><g fill="#ffffff" fill-opacity="1"><g transform="translate(244.327629, 97.205185)"><g/></g></g><g fill="#ffffff" fill-opacity="1"><g transform="translate(255.859577, 97.205185)"><g><path d="M 30.8125 -28.53125 L 18.46875 0 L 11.9375 0 L -0.359375 -28.53125 L 6.765625 -28.53125 L 15.453125 -8.15625 L 24.25 -28.53125 Z M 30.8125 -28.53125 "/></g></g></g><g fill="#ffffff" fill-opacity="1"><g transform="translate(284.016081, 97.205185)"><g><path d="M 13.375 0.328125 C 11.0625 0.328125 8.988281 -0.148438 7.15625 -1.109375 C 5.320312 -2.078125 3.882812 -3.414062 2.84375 -5.125 C 1.8125 -6.84375 1.296875 -8.789062 1.296875 -10.96875 C 1.296875 -13.144531 1.8125 -15.085938 2.84375 -16.796875 C 3.882812 -18.503906 5.320312 -19.84375 7.15625 -20.8125 C 8.988281 -21.78125 11.0625 -22.265625 13.375 -22.265625 C 15.6875 -22.265625 17.75 -21.78125 19.5625 -20.8125 C 21.382812 -19.84375 22.8125 -18.503906 23.84375 -16.796875 C 24.875 -15.085938 25.390625 -13.144531 25.390625 -10.96875 C 25.390625 -8.789062 24.875 -6.84375 23.84375 -5.125 C 22.8125 -3.414062 21.382812 -2.078125 19.5625 -1.109375 C 17.75 -0.148438 15.6875 0.328125 13.375 0.328125 Z M 13.375 -4.890625 C 15 -4.890625 16.332031 -5.4375 17.375 -6.53125 C 18.425781 -7.632812 18.953125 -9.113281 18.953125 -10.96875 C 18.953125 -12.8125 18.425781 -14.285156 17.375 -15.390625 C 16.332031 -16.492188 15 -17.046875 13.375 -17.046875 C 11.738281 -17.046875 10.390625 -16.492188 9.328125 -15.390625 C 8.273438 -14.285156 7.75 -12.8125 7.75 -10.96875 C 7.75 -9.113281 8.273438 -7.632812 9.328125 -6.53125 C 10.390625 -5.4375 11.738281 -4.890625 13.375 -4.890625 Z M 13.375 -4.890625 "/></g></g></g><g fill="#ffffff" fill-opacity="1"><g transform="translate(310.706617, 97.205185)"><g><path d="M 12.359375 -8.59375 L 9.296875 -5.578125 L 9.296875 0 L 2.9375 0 L 2.9375 -30.25 L 9.296875 -30.25 L 9.296875 -13.125 L 18.59375 -21.9375 L 26.171875 -21.9375 L 17.046875 -12.640625 L 26.984375 0 L 19.28125 0 Z M 12.359375 -8.59375 "/></g></g></g><g fill="#ffffff" fill-opacity="1"><g transform="translate(337.193228, 97.205185)"><g><path d="M 11.78125 -22.265625 C 15.175781 -22.265625 17.785156 -21.453125 19.609375 -19.828125 C 21.429688 -18.210938 22.34375 -15.773438 22.34375 -12.515625 L 22.34375 0 L 16.390625 0 L 16.390625 -2.734375 C 15.191406 -0.691406 12.960938 0.328125 9.703125 0.328125 C 8.015625 0.328125 6.550781 0.0390625 5.3125 -0.53125 C 4.082031 -1.101562 3.140625 -1.890625 2.484375 -2.890625 C 1.835938 -3.898438 1.515625 -5.039062 1.515625 -6.3125 C 1.515625 -8.351562 2.28125 -9.957031 3.8125 -11.125 C 5.34375 -12.289062 7.710938 -12.875 10.921875 -12.875 L 15.984375 -12.875 C 15.984375 -14.269531 15.5625 -15.335938 14.71875 -16.078125 C 13.875 -16.828125 12.609375 -17.203125 10.921875 -17.203125 C 9.753906 -17.203125 8.601562 -17.019531 7.46875 -16.65625 C 6.34375 -16.289062 5.390625 -15.796875 4.609375 -15.171875 L 2.328125 -19.609375 C 3.523438 -20.453125 4.957031 -21.101562 6.625 -21.5625 C 8.289062 -22.03125 10.007812 -22.265625 11.78125 -22.265625 Z M 11.296875 -3.953125 C 12.378906 -3.953125 13.34375 -4.203125 14.1875 -4.703125 C 15.03125 -5.210938 15.628906 -5.957031 15.984375 -6.9375 L 15.984375 -9.171875 L 11.625 -9.171875 C 9.007812 -9.171875 7.703125 -8.316406 7.703125 -6.609375 C 7.703125 -5.785156 8.019531 -5.132812 8.65625 -4.65625 C 9.300781 -4.1875 10.179688 -3.953125 11.296875 -3.953125 Z M 11.296875 -3.953125 "/></g></g></g><g fill="#ffffff" fill-opacity="1"><g transform="translate(362.335327, 97.205185)"><g><path d="M 10.3125 0.328125 C 8.488281 0.328125 6.707031 0.101562 4.96875 -0.34375 C 3.226562 -0.789062 1.84375 -1.351562 0.8125 -2.03125 L 2.9375 -6.609375 C 3.914062 -5.984375 5.097656 -5.472656 6.484375 -5.078125 C 7.867188 -4.679688 9.226562 -4.484375 10.5625 -4.484375 C 13.25 -4.484375 14.59375 -5.148438 14.59375 -6.484375 C 14.59375 -7.109375 14.222656 -7.554688 13.484375 -7.828125 C 12.753906 -8.097656 11.628906 -8.328125 10.109375 -8.515625 C 8.316406 -8.785156 6.832031 -9.097656 5.65625 -9.453125 C 4.488281 -9.804688 3.476562 -10.429688 2.625 -11.328125 C 1.769531 -12.222656 1.34375 -13.503906 1.34375 -15.171875 C 1.34375 -16.554688 1.742188 -17.785156 2.546875 -18.859375 C 3.347656 -19.929688 4.515625 -20.765625 6.046875 -21.359375 C 7.585938 -21.960938 9.40625 -22.265625 11.5 -22.265625 C 13.039062 -22.265625 14.578125 -22.09375 16.109375 -21.75 C 17.648438 -21.40625 18.925781 -20.9375 19.9375 -20.34375 L 17.8125 -15.8125 C 15.882812 -16.90625 13.78125 -17.453125 11.5 -17.453125 C 10.132812 -17.453125 9.113281 -17.257812 8.4375 -16.875 C 7.757812 -16.5 7.421875 -16.007812 7.421875 -15.40625 C 7.421875 -14.726562 7.785156 -14.253906 8.515625 -13.984375 C 9.253906 -13.710938 10.425781 -13.453125 12.03125 -13.203125 C 13.820312 -12.910156 15.285156 -12.59375 16.421875 -12.25 C 17.566406 -11.90625 18.5625 -11.285156 19.40625 -10.390625 C 20.25 -9.492188 20.671875 -8.242188 20.671875 -6.640625 C 20.671875 -5.285156 20.257812 -4.078125 19.4375 -3.015625 C 18.625 -1.953125 17.4375 -1.128906 15.875 -0.546875 C 14.3125 0.0351562 12.457031 0.328125 10.3125 0.328125 Z M 10.3125 0.328125 "/></g></g></g><g fill="#ffffff" fill-opacity="1"><g transform="translate(383.972994, 97.205185)"><g><path d="M 2.9375 -21.9375 L 9.296875 -21.9375 L 9.296875 0 L 2.9375 0 Z M 6.109375 -24.984375 C 4.941406 -24.984375 3.988281 -25.320312 3.25 -26 C 2.519531 -26.6875 2.15625 -27.53125 2.15625 -28.53125 C 2.15625 -29.539062 2.519531 -30.382812 3.25 -31.0625 C 3.988281 -31.738281 4.941406 -32.078125 6.109375 -32.078125 C 7.273438 -32.078125 8.222656 -31.75 8.953125 -31.09375 C 9.691406 -30.445312 10.0625 -29.632812 10.0625 -28.65625 C 10.0625 -27.59375 9.691406 -26.710938 8.953125 -26.015625 C 8.222656 -25.328125 7.273438 -24.984375 6.109375 -24.984375 Z M 6.109375 -24.984375 "/></g></g></g></g></g><g transform="matrix(1, 0, 0, 1, 311, 20)"><g clip-path="url(#14eb0cf352)"><g fill="#0a457b" fill-opacity="1"><g transform="translate(1.232203, 66.940018)"><g><path d="M 22.171875 -50.234375 L 22.171875 0 L 10.546875 0 L 10.546875 -40.90625 L 0.5 -40.90625 L 0.5 -50.234375 Z M 22.171875 -50.234375 "/></g></g></g></g></g></svg>