<svg xmlns="http://www.w3.org/2000/svg" xmlns:xlink="http://www.w3.org/1999/xlink" width="1152" zoomAndPan="magnify" viewBox="0 0 864 253.499997" height="338" preserveAspectRatio="xMidYMid meet" version="1.0"><defs><g/><clipPath id="909674baad"><path d="M 0.851562 0 L 863 0 L 863 252.578125 L 0.851562 252.578125 Z M 0.851562 0 " clip-rule="nonzero"/></clipPath><clipPath id="6ea861fb38"><path d="M 33.035156 0 L 830.683594 0 C 848.460938 0 862.871094 14.410156 862.871094 32.1875 L 862.871094 220.390625 C 862.871094 238.167969 848.460938 252.578125 830.683594 252.578125 L 33.035156 252.578125 C 15.261719 252.578125 0.851562 238.167969 0.851562 220.390625 L 0.851562 32.1875 C 0.851562 14.410156 15.261719 0 33.035156 0 Z M 33.035156 0 " clip-rule="nonzero"/></clipPath><clipPath id="fa6caa6ac2"><path d="M 0.851562 0 L 862.910156 0 L 862.910156 252.578125 L 0.851562 252.578125 Z M 0.851562 0 " clip-rule="nonzero"/></clipPath><clipPath id="94d0fcb0b9"><path d="M 33.035156 0 L 830.683594 0 C 848.460938 0 862.871094 14.410156 862.871094 32.1875 L 862.871094 220.390625 C 862.871094 238.167969 848.460938 252.578125 830.683594 252.578125 L 33.035156 252.578125 C 15.261719 252.578125 0.851562 238.167969 0.851562 220.390625 L 0.851562 32.1875 C 0.851562 14.410156 15.261719 0 33.035156 0 Z M 33.035156 0 " clip-rule="nonzero"/></clipPath><clipPath id="67818d6672"><rect x="0" width="863" y="0" height="253"/></clipPath><clipPath id="17a7b203c1"><path d="M 271.121094 26.824219 L 862.964844 26.824219 L 862.964844 103.464844 L 271.121094 103.464844 Z M 271.121094 26.824219 " clip-rule="nonzero"/></clipPath><clipPath id="a83706b559"><path d="M 309.4375 26.824219 L 824.550781 26.824219 C 834.714844 26.824219 844.460938 30.863281 851.648438 38.050781 C 858.832031 45.234375 862.871094 54.980469 862.871094 65.144531 C 862.871094 75.308594 858.832031 85.054688 851.648438 92.238281 C 844.460938 99.425781 834.714844 103.464844 824.550781 103.464844 L 309.4375 103.464844 C 299.277344 103.464844 289.527344 99.425781 282.34375 92.238281 C 275.15625 85.054688 271.121094 75.308594 271.121094 65.144531 C 271.121094 54.980469 275.15625 45.234375 282.34375 38.050781 C 289.527344 30.863281 299.277344 26.824219 309.4375 26.824219 Z M 309.4375 26.824219 " clip-rule="nonzero"/></clipPath><clipPath id="bb8f01d4ec"><path d="M 0.121094 0.824219 L 591.910156 0.824219 L 591.910156 77.464844 L 0.121094 77.464844 Z M 0.121094 0.824219 " clip-rule="nonzero"/></clipPath><clipPath id="f931b2200a"><path d="M 38.4375 0.824219 L 553.550781 0.824219 C 563.714844 0.824219 573.460938 4.863281 580.648438 12.050781 C 587.832031 19.234375 591.871094 28.980469 591.871094 39.144531 C 591.871094 49.308594 587.832031 59.054688 580.648438 66.238281 C 573.460938 73.425781 563.714844 77.464844 553.550781 77.464844 L 38.4375 77.464844 C 28.277344 77.464844 18.527344 73.425781 11.34375 66.238281 C 4.15625 59.054688 0.121094 49.308594 0.121094 39.144531 C 0.121094 28.980469 4.15625 19.234375 11.34375 12.050781 C 18.527344 4.863281 28.277344 0.824219 38.4375 0.824219 Z M 38.4375 0.824219 " clip-rule="nonzero"/></clipPath><clipPath id="149ff93496"><rect x="0" width="592" y="0" height="78"/></clipPath><clipPath id="14a53328db"><path d="M 81 121 L 184 121 L 184 214.34375 L 81 214.34375 Z M 81 121 " clip-rule="nonzero"/></clipPath><clipPath id="99d5af5749"><path d="M 179 80 L 225.46875 80 L 225.46875 100 L 179 100 Z M 179 80 " clip-rule="nonzero"/></clipPath><clipPath id="f4a9711757"><path d="M 39.835938 80 L 87 80 L 87 100 L 39.835938 100 Z M 39.835938 80 " clip-rule="nonzero"/></clipPath><clipPath id="be6694ea20"><path d="M 0.0390625 68 L 26 68 L 26 98 L 0.0390625 98 Z M 0.0390625 68 " clip-rule="nonzero"/></clipPath><clipPath id="1625148d91"><rect x="0" width="392" y="0" height="109"/></clipPath><clipPath id="ca825fc222"><rect x="0" width="45" y="0" height="88"/></clipPath></defs><g clip-path="url(#909674baad)"><g clip-path="url(#6ea861fb38)"><g transform="matrix(1, 0, 0, 1, 0, 0)"><g clip-path="url(#67818d6672)"><g clip-path="url(#fa6caa6ac2)"><g clip-path="url(#94d0fcb0b9)"><path fill="#0a457b" d="M 0.851562 0 L 863.164062 0 L 863.164062 252.578125 L 0.851562 252.578125 Z M 0.851562 0 " fill-opacity="1" fill-rule="nonzero"/></g></g></g></g></g></g><g clip-path="url(#17a7b203c1)"><g clip-path="url(#a83706b559)"><g transform="matrix(1, 0, 0, 1, 271, 26)"><g clip-path="url(#149ff93496)"><g clip-path="url(#bb8f01d4ec)"><g clip-path="url(#f931b2200a)"><path fill="#68ab3d" d="M 0.121094 0.824219 L 591.964844 0.824219 L 591.964844 77.464844 L 0.121094 77.464844 Z M 0.121094 0.824219 " fill-opacity="1" fill-rule="nonzero"/></g></g></g></g></g></g><path fill="#ffffff" d="M 170.554688 100.011719 C 171.945312 99.667969 172.90625 98.433594 172.90625 97.007812 L 172.90625 83.519531 C 172.90625 82.09375 171.945312 80.859375 170.554688 80.515625 L 164.179688 78.910156 C 163.808594 77.917969 163.40625 76.960938 162.972656 76.03125 L 166.378906 70.367188 C 167.089844 69.164062 166.902344 67.585938 165.914062 66.59375 L 156.351562 57.035156 C 155.363281 56.042969 153.785156 55.859375 152.578125 56.570312 L 146.914062 59.972656 C 145.988281 59.539062 145.027344 59.136719 144.039062 58.765625 L 142.429688 52.390625 C 142.089844 51 140.851562 50.039062 139.429688 50.039062 L 125.9375 50.039062 C 124.515625 50.039062 123.277344 51 122.9375 52.390625 L 121.328125 58.765625 C 120.335938 59.136719 119.378906 59.539062 118.449219 59.972656 L 112.789062 56.570312 C 111.582031 55.859375 110.003906 56.042969 109.011719 57.035156 L 99.453125 66.59375 C 98.460938 67.585938 98.277344 69.164062 98.988281 70.367188 L 102.390625 76.03125 C 101.957031 76.960938 101.554688 77.917969 101.183594 78.910156 L 94.8125 80.515625 C 93.417969 80.859375 92.460938 82.09375 92.460938 83.519531 L 92.460938 97.007812 C 92.460938 98.433594 93.417969 99.667969 94.8125 100.011719 L 101.183594 101.617188 C 101.554688 102.609375 101.957031 103.566406 102.390625 104.496094 L 98.988281 110.160156 C 98.277344 111.363281 98.460938 112.941406 99.453125 113.933594 L 109.011719 123.492188 C 110.003906 124.484375 111.582031 124.667969 112.789062 123.957031 L 118.449219 120.554688 C 119.378906 120.988281 120.335938 121.390625 121.328125 121.761719 L 122.9375 128.136719 C 123.277344 129.527344 124.515625 130.488281 125.9375 130.488281 L 139.429688 130.488281 C 140.851562 130.488281 142.089844 129.527344 142.429688 128.136719 L 144.039062 121.761719 C 145.027344 121.390625 145.988281 120.988281 146.914062 120.554688 L 152.578125 123.957031 C 153.785156 124.667969 155.363281 124.484375 156.351562 123.492188 L 165.914062 113.933594 C 166.902344 112.941406 167.089844 111.363281 166.378906 110.160156 L 162.972656 104.496094 C 163.40625 103.566406 163.808594 102.609375 164.179688 101.617188 Z M 161.023438 96.019531 C 159.941406 96.296875 159.105469 97.101562 158.796875 98.121094 C 158.269531 99.886719 157.558594 101.589844 156.722656 103.164062 C 156.199219 104.125 156.230469 105.300781 156.785156 106.230469 L 159.816406 111.273438 L 153.691406 117.398438 L 148.648438 114.367188 C 147.71875 113.808594 146.542969 113.777344 145.585938 114.304688 C 144.007812 115.140625 142.304688 115.851562 140.542969 116.378906 C 139.519531 116.6875 138.714844 117.523438 138.4375 118.605469 L 137.015625 124.296875 L 128.351562 124.296875 L 126.929688 118.605469 C 126.648438 117.523438 125.84375 116.6875 124.824219 116.378906 C 123.058594 115.851562 121.359375 115.140625 119.78125 114.304688 C 118.820312 113.777344 117.644531 113.808594 116.71875 114.367188 L 111.675781 117.398438 L 105.546875 111.273438 L 108.578125 106.230469 C 109.136719 105.300781 109.167969 104.125 108.640625 103.164062 C 107.804688 101.589844 107.09375 99.886719 106.570312 98.121094 C 106.257812 97.101562 105.425781 96.296875 104.339844 96.019531 L 98.648438 94.59375 L 98.648438 85.933594 L 104.339844 84.507812 C 105.425781 84.230469 106.257812 83.425781 106.570312 82.40625 C 107.09375 80.640625 107.804688 78.9375 108.640625 77.363281 C 109.167969 76.402344 109.136719 75.226562 108.578125 74.296875 L 105.546875 69.253906 L 111.675781 63.128906 L 116.71875 66.160156 C 117.644531 66.71875 118.820312 66.75 119.78125 66.222656 C 121.359375 65.386719 123.058594 64.675781 124.824219 64.148438 C 125.84375 63.839844 126.648438 63.003906 126.929688 61.921875 L 128.351562 56.230469 L 137.015625 56.230469 L 138.4375 61.921875 C 138.714844 63.003906 139.519531 63.839844 140.542969 64.148438 C 142.304688 64.675781 144.007812 65.386719 145.585938 66.222656 C 146.542969 66.75 147.71875 66.71875 148.648438 66.160156 L 153.691406 63.128906 L 159.816406 69.253906 L 156.785156 74.296875 C 156.230469 75.226562 156.199219 76.402344 156.722656 77.363281 C 157.558594 78.9375 158.269531 80.640625 158.796875 82.40625 C 159.105469 83.425781 159.941406 84.230469 161.023438 84.507812 L 166.71875 85.933594 L 166.71875 94.59375 Z M 161.023438 96.019531 " fill-opacity="1" fill-rule="nonzero"/><path fill="#ffffff" d="M 151.246094 90.265625 C 151.246094 90.871094 151.21875 91.476562 151.15625 92.082031 C 151.097656 92.6875 151.007812 93.289062 150.890625 93.886719 C 150.773438 94.480469 150.625 95.070312 150.449219 95.652344 C 150.269531 96.234375 150.066406 96.804688 149.832031 97.367188 C 149.601562 97.929688 149.339844 98.480469 149.054688 99.015625 C 148.769531 99.550781 148.457031 100.070312 148.117188 100.578125 C 147.78125 101.082031 147.417969 101.570312 147.03125 102.039062 C 146.648438 102.511719 146.238281 102.960938 145.808594 103.390625 C 145.378906 103.820312 144.929688 104.226562 144.460938 104.613281 C 143.988281 105 143.503906 105.363281 142.996094 105.699219 C 142.492188 106.039062 141.96875 106.347656 141.433594 106.636719 C 140.898438 106.921875 140.347656 107.183594 139.785156 107.414062 C 139.226562 107.648438 138.652344 107.851562 138.070312 108.027344 C 137.488281 108.207031 136.902344 108.351562 136.304688 108.472656 C 135.707031 108.589844 135.109375 108.679688 134.503906 108.738281 C 133.898438 108.796875 133.289062 108.828125 132.683594 108.828125 C 132.074219 108.828125 131.46875 108.796875 130.863281 108.738281 C 130.257812 108.679688 129.65625 108.589844 129.0625 108.472656 C 128.464844 108.351562 127.875 108.207031 127.292969 108.027344 C 126.710938 107.851562 126.140625 107.648438 125.578125 107.414062 C 125.015625 107.183594 124.46875 106.921875 123.929688 106.636719 C 123.394531 106.347656 122.875 106.039062 122.367188 105.699219 C 121.863281 105.363281 121.375 105 120.90625 104.613281 C 120.4375 104.226562 119.984375 103.820312 119.554688 103.390625 C 119.125 102.960938 118.71875 102.511719 118.332031 102.039062 C 117.945312 101.570312 117.585938 101.082031 117.246094 100.578125 C 116.910156 100.070312 116.597656 99.550781 116.308594 99.015625 C 116.023438 98.480469 115.765625 97.929688 115.53125 97.367188 C 115.300781 96.804688 115.09375 96.234375 114.917969 95.652344 C 114.742188 95.070312 114.59375 94.480469 114.476562 93.886719 C 114.355469 93.289062 114.265625 92.6875 114.207031 92.082031 C 114.148438 91.476562 114.117188 90.871094 114.117188 90.265625 C 114.117188 89.65625 114.148438 89.050781 114.207031 88.445312 C 114.265625 87.839844 114.355469 87.238281 114.476562 86.640625 C 114.59375 86.046875 114.742188 85.457031 114.917969 84.875 C 115.09375 84.292969 115.300781 83.722656 115.53125 83.160156 C 115.765625 82.597656 116.023438 82.046875 116.308594 81.511719 C 116.597656 80.976562 116.910156 80.457031 117.246094 79.949219 C 117.585938 79.445312 117.945312 78.957031 118.332031 78.488281 C 118.71875 78.015625 119.125 77.566406 119.554688 77.136719 C 119.984375 76.707031 120.4375 76.300781 120.90625 75.914062 C 121.375 75.527344 121.863281 75.164062 122.367188 74.828125 C 122.875 74.488281 123.394531 74.179688 123.929688 73.890625 C 124.46875 73.605469 125.015625 73.34375 125.578125 73.113281 C 126.140625 72.878906 126.710938 72.675781 127.292969 72.5 C 127.875 72.320312 128.464844 72.175781 129.0625 72.054688 C 129.65625 71.9375 130.257812 71.847656 130.863281 71.789062 C 131.46875 71.730469 132.074219 71.699219 132.683594 71.699219 C 133.289062 71.699219 133.898438 71.730469 134.503906 71.789062 C 135.109375 71.847656 135.707031 71.9375 136.304688 72.054688 C 136.902344 72.175781 137.488281 72.320312 138.070312 72.5 C 138.652344 72.675781 139.226562 72.878906 139.785156 73.113281 C 140.347656 73.34375 140.898438 73.605469 141.433594 73.890625 C 141.96875 74.179688 142.492188 74.488281 142.996094 74.828125 C 143.503906 75.164062 143.988281 75.527344 144.460938 75.914062 C 144.929688 76.300781 145.378906 76.707031 145.808594 77.136719 C 146.238281 77.566406 146.648438 78.015625 147.03125 78.488281 C 147.417969 78.957031 147.78125 79.445312 148.117188 79.949219 C 148.457031 80.457031 148.769531 80.976562 149.054688 81.511719 C 149.339844 82.046875 149.601562 82.597656 149.832031 83.160156 C 150.066406 83.722656 150.269531 84.292969 150.449219 84.875 C 150.625 85.457031 150.773438 86.046875 150.890625 86.640625 C 151.007812 87.238281 151.097656 87.839844 151.15625 88.445312 C 151.21875 89.050781 151.246094 89.65625 151.246094 90.265625 Z M 151.246094 90.265625 " fill-opacity="1" fill-rule="nonzero"/><g clip-path="url(#14a53328db)"><path fill="#ffffff" d="M 178.195312 122.503906 C 174.917969 127.175781 170.957031 131.289062 166.40625 134.726562 C 159.601562 139.921875 155.363281 147.347656 154.496094 155.488281 L 110.871094 155.488281 C 110.003906 147.378906 105.734375 139.921875 98.894531 134.695312 C 94.378906 131.261719 90.417969 127.175781 87.167969 122.503906 C 86.179688 121.113281 84.261719 120.769531 82.835938 121.761719 C 81.445312 122.75 81.105469 124.667969 82.09375 126.09375 C 85.714844 131.230469 90.140625 135.808594 95.152344 139.613281 C 100.441406 143.667969 103.753906 149.328125 104.621094 155.488281 C 99.605469 155.609375 95.554688 159.726562 95.554688 164.769531 C 95.554688 169.8125 99.730469 174.050781 104.835938 174.050781 L 104.835938 180.238281 L 101.742188 180.238281 C 100.039062 180.238281 98.648438 181.601562 98.648438 183.332031 C 98.648438 185.066406 100.039062 186.425781 101.742188 186.425781 L 104.835938 186.425781 L 104.835938 189.519531 C 104.835938 194.625 109.011719 198.804688 114.117188 198.804688 L 117.210938 198.804688 C 117.210938 207.3125 124.144531 214.273438 132.683594 214.273438 C 141.222656 214.273438 148.152344 207.3125 148.152344 198.804688 L 151.246094 198.804688 C 156.351562 198.804688 160.527344 194.625 160.527344 189.519531 L 160.527344 186.425781 L 163.625 186.425781 C 165.324219 186.425781 166.71875 185.035156 166.71875 183.332031 C 166.71875 181.632812 165.324219 180.238281 163.625 180.238281 L 160.527344 180.238281 L 160.527344 174.050781 C 165.632812 174.050781 169.8125 169.875 169.8125 164.769531 C 169.8125 159.664062 165.757812 155.609375 160.746094 155.488281 C 161.582031 149.328125 164.890625 143.667969 170.152344 139.675781 C 175.195312 135.839844 179.621094 131.261719 183.269531 126.09375 C 184.261719 124.667969 183.921875 122.75 182.527344 121.761719 C 181.105469 120.800781 179.1875 121.113281 178.195312 122.503906 Z M 154.339844 189.519531 C 154.339844 191.222656 152.949219 192.613281 151.246094 192.613281 L 114.117188 192.613281 C 112.417969 192.613281 111.023438 191.222656 111.023438 189.519531 L 111.023438 186.425781 L 154.339844 186.425781 Z M 154.339844 180.238281 L 111.023438 180.238281 L 111.023438 174.050781 L 154.339844 174.050781 Z M 154.339844 180.238281 " fill-opacity="1" fill-rule="nonzero"/></g><path fill="#ffffff" d="M 87.480469 58.023438 C 96.699219 45.214844 110.871094 36.859375 126.308594 35.160156 C 146.390625 32.898438 166.160156 41.65625 177.917969 58.023438 C 178.535156 58.859375 179.464844 59.324219 180.425781 59.324219 C 181.042969 59.324219 181.691406 59.136719 182.21875 58.734375 C 183.609375 57.746094 183.921875 55.796875 182.929688 54.402344 C 169.902344 36.242188 147.96875 26.496094 125.628906 29 C 108.457031 30.890625 92.707031 40.171875 82.464844 54.402344 C 81.476562 55.796875 81.785156 57.714844 83.179688 58.734375 C 84.570312 59.726562 86.488281 59.414062 87.507812 58.023438 Z M 87.480469 58.023438 " fill-opacity="1" fill-rule="nonzero"/><g clip-path="url(#99d5af5749)"><path fill="#ffffff" d="M 216.222656 80.980469 C 212.199219 80.980469 208.796875 83.582031 207.496094 87.167969 L 182.1875 87.167969 C 180.484375 87.167969 179.09375 88.5625 179.09375 90.265625 C 179.09375 91.964844 180.484375 93.359375 182.1875 93.359375 L 207.496094 93.359375 C 208.796875 96.945312 212.199219 99.546875 216.222656 99.546875 C 221.328125 99.546875 225.503906 95.367188 225.503906 90.265625 C 225.503906 85.160156 221.328125 80.980469 216.222656 80.980469 Z M 216.222656 80.980469 " fill-opacity="1" fill-rule="nonzero"/></g><path fill="#ffffff" d="M 176 65.511719 C 174.296875 65.511719 172.90625 66.902344 172.90625 68.605469 C 172.90625 70.308594 174.296875 71.699219 176 71.699219 L 197.65625 71.699219 C 198.742188 71.699219 199.761719 71.140625 200.320312 70.183594 L 205.082031 62.230469 C 205.671875 62.355469 206.289062 62.417969 206.941406 62.417969 C 212.046875 62.417969 216.222656 58.238281 216.222656 53.136719 C 216.222656 48.03125 212.046875 43.851562 206.941406 43.851562 C 201.835938 43.851562 197.65625 48.03125 197.65625 53.136719 C 197.65625 55.363281 198.492188 57.40625 199.792969 58.984375 L 195.894531 65.511719 Z M 176 65.511719 " fill-opacity="1" fill-rule="nonzero"/><path fill="#ffffff" d="M 206.941406 118.109375 C 206.289062 118.109375 205.671875 118.171875 205.082031 118.296875 L 200.320312 110.34375 C 199.761719 109.386719 198.742188 108.828125 197.65625 108.828125 L 176 108.828125 C 174.296875 108.828125 172.90625 110.21875 172.90625 111.921875 C 172.90625 113.625 174.296875 115.015625 176 115.015625 L 195.894531 115.015625 L 199.792969 121.542969 C 198.492188 123.121094 197.65625 125.164062 197.65625 127.390625 C 197.65625 132.496094 201.835938 136.675781 206.941406 136.675781 C 212.046875 136.675781 216.222656 132.496094 216.222656 127.390625 C 216.222656 122.289062 212.046875 118.109375 206.941406 118.109375 Z M 206.941406 118.109375 " fill-opacity="1" fill-rule="nonzero"/><g clip-path="url(#f4a9711757)"><path fill="#ffffff" d="M 57.867188 93.359375 L 83.179688 93.359375 C 84.878906 93.359375 86.273438 91.964844 86.273438 90.265625 C 86.273438 88.5625 84.878906 87.167969 83.179688 87.167969 L 57.867188 87.167969 C 56.570312 83.582031 53.164062 80.980469 49.144531 80.980469 C 44.039062 80.980469 39.859375 85.160156 39.859375 90.265625 C 39.859375 95.367188 44.039062 99.546875 49.144531 99.546875 C 53.164062 99.546875 56.570312 96.945312 57.867188 93.359375 Z M 57.867188 93.359375 " fill-opacity="1" fill-rule="nonzero"/></g><path fill="#ffffff" d="M 89.367188 115.015625 C 91.066406 115.015625 92.460938 113.625 92.460938 111.921875 C 92.460938 110.21875 91.066406 108.828125 89.367188 108.828125 L 67.707031 108.828125 C 66.625 108.828125 65.605469 109.386719 65.046875 110.34375 L 60.28125 118.296875 C 59.695312 118.171875 59.074219 118.109375 58.425781 118.109375 C 53.320312 118.109375 49.144531 122.289062 49.144531 127.390625 C 49.144531 132.496094 53.320312 136.675781 58.425781 136.675781 C 63.53125 136.675781 67.707031 132.496094 67.707031 127.390625 C 67.707031 125.164062 66.871094 123.121094 65.574219 121.542969 L 69.472656 115.015625 Z M 89.367188 115.015625 " fill-opacity="1" fill-rule="nonzero"/><path fill="#ffffff" d="M 58.425781 62.417969 C 59.074219 62.417969 59.695312 62.355469 60.28125 62.230469 L 65.046875 70.183594 C 65.605469 71.140625 66.625 71.699219 67.707031 71.699219 L 89.367188 71.699219 C 91.066406 71.699219 92.460938 70.308594 92.460938 68.605469 C 92.460938 66.902344 91.066406 65.511719 89.367188 65.511719 L 69.472656 65.511719 L 65.574219 58.984375 C 66.871094 57.40625 67.707031 55.363281 67.707031 53.136719 C 67.707031 48.03125 63.53125 43.851562 58.425781 43.851562 C 53.320312 43.851562 49.144531 48.03125 49.144531 53.136719 C 49.144531 58.238281 53.320312 62.417969 58.425781 62.417969 Z M 58.425781 62.417969 " fill-opacity="1" fill-rule="nonzero"/><g transform="matrix(1, 0, 0, 1, 271, 115)"><g clip-path="url(#1625148d91)"><g fill="#ffffff" fill-opacity="1"><g transform="translate(0.119574, 40.667914)"><g><path d="M 15.734375 -28.53125 C 18.265625 -28.53125 20.457031 -28.109375 22.3125 -27.265625 C 24.175781 -26.429688 25.609375 -25.238281 26.609375 -23.6875 C 27.617188 -22.132812 28.125 -20.300781 28.125 -18.1875 C 28.125 -16.09375 27.617188 -14.265625 26.609375 -12.703125 C 25.609375 -11.140625 24.175781 -9.941406 22.3125 -9.109375 C 20.457031 -8.285156 18.265625 -7.875 15.734375 -7.875 L 9.984375 -7.875 L 9.984375 0 L 3.390625 0 L 3.390625 -28.53125 Z M 15.375 -13.25 C 17.351562 -13.25 18.859375 -13.675781 19.890625 -14.53125 C 20.921875 -15.382812 21.4375 -16.601562 21.4375 -18.1875 C 21.4375 -19.789062 20.921875 -21.019531 19.890625 -21.875 C 18.859375 -22.726562 17.351562 -23.15625 15.375 -23.15625 L 9.984375 -23.15625 L 9.984375 -13.25 Z M 15.375 -13.25 "/></g></g></g><g fill="#ffffff" fill-opacity="1"><g transform="translate(29.540122, 40.667914)"><g><path d="M 9.015625 -19.03125 C 9.773438 -20.09375 10.796875 -20.894531 12.078125 -21.4375 C 13.367188 -21.988281 14.859375 -22.265625 16.546875 -22.265625 L 16.546875 -16.390625 C 15.835938 -16.441406 15.363281 -16.46875 15.125 -16.46875 C 13.300781 -16.46875 11.875 -15.957031 10.84375 -14.9375 C 9.8125 -13.914062 9.296875 -12.390625 9.296875 -10.359375 L 9.296875 0 L 2.9375 0 L 2.9375 -21.9375 L 9.015625 -21.9375 Z M 9.015625 -19.03125 "/></g></g></g><g fill="#ffffff" fill-opacity="1"><g transform="translate(46.735999, 40.667914)"><g><path d="M 13.375 0.328125 C 11.0625 0.328125 8.988281 -0.148438 7.15625 -1.109375 C 5.320312 -2.078125 3.882812 -3.414062 2.84375 -5.125 C 1.8125 -6.84375 1.296875 -8.789062 1.296875 -10.96875 C 1.296875 -13.144531 1.8125 -15.085938 2.84375 -16.796875 C 3.882812 -18.503906 5.320312 -19.84375 7.15625 -20.8125 C 8.988281 -21.78125 11.0625 -22.265625 13.375 -22.265625 C 15.6875 -22.265625 17.75 -21.78125 19.5625 -20.8125 C 21.382812 -19.84375 22.8125 -18.503906 23.84375 -16.796875 C 24.875 -15.085938 25.390625 -13.144531 25.390625 -10.96875 C 25.390625 -8.789062 24.875 -6.84375 23.84375 -5.125 C 22.8125 -3.414062 21.382812 -2.078125 19.5625 -1.109375 C 17.75 -0.148438 15.6875 0.328125 13.375 0.328125 Z M 13.375 -4.890625 C 15 -4.890625 16.332031 -5.4375 17.375 -6.53125 C 18.425781 -7.632812 18.953125 -9.113281 18.953125 -10.96875 C 18.953125 -12.8125 18.425781 -14.285156 17.375 -15.390625 C 16.332031 -16.492188 15 -17.046875 13.375 -17.046875 C 11.738281 -17.046875 10.390625 -16.492188 9.328125 -15.390625 C 8.273438 -14.285156 7.75 -12.8125 7.75 -10.96875 C 7.75 -9.113281 8.273438 -7.632812 9.328125 -6.53125 C 10.390625 -5.4375 11.738281 -4.890625 13.375 -4.890625 Z M 13.375 -4.890625 "/></g></g></g><g fill="#ffffff" fill-opacity="1"><g transform="translate(73.426535, 40.667914)"><g><path d="M 25.5625 -21.9375 L 25.5625 -3.671875 C 25.5625 0.347656 24.515625 3.335938 22.421875 5.296875 C 20.328125 7.253906 17.269531 8.234375 13.25 8.234375 C 11.125 8.234375 9.109375 7.972656 7.203125 7.453125 C 5.304688 6.941406 3.734375 6.195312 2.484375 5.21875 L 5.015625 0.65625 C 5.941406 1.414062 7.109375 2.019531 8.515625 2.46875 C 9.929688 2.914062 11.347656 3.140625 12.765625 3.140625 C 14.960938 3.140625 16.582031 2.640625 17.625 1.640625 C 18.675781 0.648438 19.203125 -0.847656 19.203125 -2.859375 L 19.203125 -3.796875 C 17.546875 -1.972656 15.234375 -1.0625 12.265625 -1.0625 C 10.253906 -1.0625 8.410156 -1.5 6.734375 -2.375 C 5.066406 -3.257812 3.742188 -4.503906 2.765625 -6.109375 C 1.785156 -7.710938 1.296875 -9.5625 1.296875 -11.65625 C 1.296875 -13.75 1.785156 -15.597656 2.765625 -17.203125 C 3.742188 -18.804688 5.066406 -20.050781 6.734375 -20.9375 C 8.410156 -21.820312 10.253906 -22.265625 12.265625 -22.265625 C 15.453125 -22.265625 17.875 -21.21875 19.53125 -19.125 L 19.53125 -21.9375 Z M 13.53125 -6.28125 C 15.21875 -6.28125 16.597656 -6.773438 17.671875 -7.765625 C 18.742188 -8.753906 19.28125 -10.050781 19.28125 -11.65625 C 19.28125 -13.257812 18.742188 -14.554688 17.671875 -15.546875 C 16.597656 -16.546875 15.21875 -17.046875 13.53125 -17.046875 C 11.84375 -17.046875 10.457031 -16.546875 9.375 -15.546875 C 8.289062 -14.554688 7.75 -13.257812 7.75 -11.65625 C 7.75 -10.050781 8.289062 -8.753906 9.375 -7.765625 C 10.457031 -6.773438 11.84375 -6.28125 13.53125 -6.28125 Z M 13.53125 -6.28125 "/></g></g></g><g fill="#ffffff" fill-opacity="1"><g transform="translate(101.950784, 40.667914)"><g><path d="M 9.015625 -19.03125 C 9.773438 -20.09375 10.796875 -20.894531 12.078125 -21.4375 C 13.367188 -21.988281 14.859375 -22.265625 16.546875 -22.265625 L 16.546875 -16.390625 C 15.835938 -16.441406 15.363281 -16.46875 15.125 -16.46875 C 13.300781 -16.46875 11.875 -15.957031 10.84375 -14.9375 C 9.8125 -13.914062 9.296875 -12.390625 9.296875 -10.359375 L 9.296875 0 L 2.9375 0 L 2.9375 -21.9375 L 9.015625 -21.9375 Z M 9.015625 -19.03125 "/></g></g></g><g fill="#ffffff" fill-opacity="1"><g transform="translate(119.228194, 40.667914)"><g><path d="M 11.78125 -22.265625 C 15.175781 -22.265625 17.785156 -21.453125 19.609375 -19.828125 C 21.429688 -18.210938 22.34375 -15.773438 22.34375 -12.515625 L 22.34375 0 L 16.390625 0 L 16.390625 -2.734375 C 15.191406 -0.691406 12.960938 0.328125 9.703125 0.328125 C 8.015625 0.328125 6.550781 0.0390625 5.3125 -0.53125 C 4.082031 -1.101562 3.140625 -1.890625 2.484375 -2.890625 C 1.835938 -3.898438 1.515625 -5.039062 1.515625 -6.3125 C 1.515625 -8.351562 2.28125 -9.957031 3.8125 -11.125 C 5.34375 -12.289062 7.710938 -12.875 10.921875 -12.875 L 15.984375 -12.875 C 15.984375 -14.269531 15.5625 -15.335938 14.71875 -16.078125 C 13.875 -16.828125 12.609375 -17.203125 10.921875 -17.203125 C 9.753906 -17.203125 8.601562 -17.019531 7.46875 -16.65625 C 6.34375 -16.289062 5.390625 -15.796875 4.609375 -15.171875 L 2.328125 -19.609375 C 3.523438 -20.453125 4.957031 -21.101562 6.625 -21.5625 C 8.289062 -22.03125 10.007812 -22.265625 11.78125 -22.265625 Z M 11.296875 -3.953125 C 12.378906 -3.953125 13.34375 -4.203125 14.1875 -4.703125 C 15.03125 -5.210938 15.628906 -5.957031 15.984375 -6.9375 L 15.984375 -9.171875 L 11.625 -9.171875 C 9.007812 -9.171875 7.703125 -8.316406 7.703125 -6.609375 C 7.703125 -5.785156 8.019531 -5.132812 8.65625 -4.65625 C 9.300781 -4.1875 10.179688 -3.953125 11.296875 -3.953125 Z M 11.296875 -3.953125 "/></g></g></g><g fill="#ffffff" fill-opacity="1"><g transform="translate(144.370275, 40.667914)"><g><path d="M 31.015625 -22.265625 C 33.765625 -22.265625 35.945312 -21.453125 37.5625 -19.828125 C 39.175781 -18.210938 39.984375 -15.789062 39.984375 -12.5625 L 39.984375 0 L 33.625 0 L 33.625 -11.578125 C 33.625 -13.316406 33.265625 -14.613281 32.546875 -15.46875 C 31.828125 -16.320312 30.800781 -16.75 29.46875 -16.75 C 27.976562 -16.75 26.796875 -16.265625 25.921875 -15.296875 C 25.054688 -14.335938 24.625 -12.90625 24.625 -11 L 24.625 0 L 18.265625 0 L 18.265625 -11.578125 C 18.265625 -15.023438 16.878906 -16.75 14.109375 -16.75 C 12.640625 -16.75 11.46875 -16.265625 10.59375 -15.296875 C 9.726562 -14.335938 9.296875 -12.90625 9.296875 -11 L 9.296875 0 L 2.9375 0 L 2.9375 -21.9375 L 9.015625 -21.9375 L 9.015625 -19.40625 C 9.828125 -20.332031 10.820312 -21.039062 12 -21.53125 C 13.1875 -22.019531 14.488281 -22.265625 15.90625 -22.265625 C 17.445312 -22.265625 18.84375 -21.957031 20.09375 -21.34375 C 21.34375 -20.726562 22.347656 -19.835938 23.109375 -18.671875 C 24.003906 -19.804688 25.140625 -20.6875 26.515625 -21.3125 C 27.890625 -21.945312 29.390625 -22.265625 31.015625 -22.265625 Z M 31.015625 -22.265625 "/></g></g></g><g fill="#ffffff" fill-opacity="1"><g transform="translate(187.115899, 40.667914)"><g/></g></g><g fill="#ffffff" fill-opacity="1"><g transform="translate(198.647848, 40.667914)"><g><path d="M 12.765625 0.484375 C 10.503906 0.484375 8.320312 0.179688 6.21875 -0.421875 C 4.113281 -1.035156 2.421875 -1.832031 1.140625 -2.8125 L 3.390625 -7.78125 C 4.609375 -6.882812 6.054688 -6.164062 7.734375 -5.625 C 9.421875 -5.082031 11.109375 -4.8125 12.796875 -4.8125 C 14.671875 -4.8125 16.054688 -5.085938 16.953125 -5.640625 C 17.847656 -6.203125 18.296875 -6.945312 18.296875 -7.875 C 18.296875 -8.550781 18.03125 -9.113281 17.5 -9.5625 C 16.976562 -10.007812 16.300781 -10.367188 15.46875 -10.640625 C 14.644531 -10.910156 13.523438 -11.207031 12.109375 -11.53125 C 9.929688 -12.050781 8.148438 -12.566406 6.765625 -13.078125 C 5.378906 -13.597656 4.191406 -14.425781 3.203125 -15.5625 C 2.210938 -16.707031 1.71875 -18.234375 1.71875 -20.140625 C 1.71875 -21.796875 2.164062 -23.296875 3.0625 -24.640625 C 3.957031 -25.984375 5.304688 -27.050781 7.109375 -27.84375 C 8.921875 -28.632812 11.128906 -29.03125 13.734375 -29.03125 C 15.554688 -29.03125 17.335938 -28.8125 19.078125 -28.375 C 20.816406 -27.9375 22.335938 -27.3125 23.640625 -26.5 L 21.609375 -21.484375 C 18.972656 -22.972656 16.335938 -23.71875 13.703125 -23.71875 C 11.847656 -23.71875 10.476562 -23.421875 9.59375 -22.828125 C 8.71875 -22.234375 8.28125 -21.445312 8.28125 -20.46875 C 8.28125 -19.488281 8.785156 -18.757812 9.796875 -18.28125 C 10.816406 -17.800781 12.375 -17.332031 14.46875 -16.875 C 16.644531 -16.363281 18.425781 -15.847656 19.8125 -15.328125 C 21.195312 -14.804688 22.382812 -13.988281 23.375 -12.875 C 24.363281 -11.757812 24.859375 -10.253906 24.859375 -8.359375 C 24.859375 -6.722656 24.40625 -5.234375 23.5 -3.890625 C 22.59375 -2.546875 21.226562 -1.476562 19.40625 -0.6875 C 17.582031 0.09375 15.367188 0.484375 12.765625 0.484375 Z M 12.765625 0.484375 "/></g></g></g><g fill="#ffffff" fill-opacity="1"><g transform="translate(224.645662, 40.667914)"><g><path d="M 17.078125 -1.0625 C 16.453125 -0.59375 15.679688 -0.242188 14.765625 -0.015625 C 13.859375 0.210938 12.90625 0.328125 11.90625 0.328125 C 9.289062 0.328125 7.269531 -0.335938 5.84375 -1.671875 C 4.414062 -3.003906 3.703125 -4.960938 3.703125 -7.546875 L 3.703125 -16.546875 L 0.328125 -16.546875 L 0.328125 -21.4375 L 3.703125 -21.4375 L 3.703125 -26.78125 L 10.0625 -26.78125 L 10.0625 -21.4375 L 15.53125 -21.4375 L 15.53125 -16.546875 L 10.0625 -16.546875 L 10.0625 -7.625 C 10.0625 -6.695312 10.300781 -5.984375 10.78125 -5.484375 C 11.257812 -4.984375 11.929688 -4.734375 12.796875 -4.734375 C 13.804688 -4.734375 14.664062 -5.003906 15.375 -5.546875 Z M 17.078125 -1.0625 "/></g></g></g><g fill="#ffffff" fill-opacity="1"><g transform="translate(242.371452, 40.667914)"><g><path d="M 9.015625 -19.03125 C 9.773438 -20.09375 10.796875 -20.894531 12.078125 -21.4375 C 13.367188 -21.988281 14.859375 -22.265625 16.546875 -22.265625 L 16.546875 -16.390625 C 15.835938 -16.441406 15.363281 -16.46875 15.125 -16.46875 C 13.300781 -16.46875 11.875 -15.957031 10.84375 -14.9375 C 9.8125 -13.914062 9.296875 -12.390625 9.296875 -10.359375 L 9.296875 0 L 2.9375 0 L 2.9375 -21.9375 L 9.015625 -21.9375 Z M 9.015625 -19.03125 "/></g></g></g><g fill="#ffffff" fill-opacity="1"><g transform="translate(259.648862, 40.667914)"><g><path d="M 11.78125 -22.265625 C 15.175781 -22.265625 17.785156 -21.453125 19.609375 -19.828125 C 21.429688 -18.210938 22.34375 -15.773438 22.34375 -12.515625 L 22.34375 0 L 16.390625 0 L 16.390625 -2.734375 C 15.191406 -0.691406 12.960938 0.328125 9.703125 0.328125 C 8.015625 0.328125 6.550781 0.0390625 5.3125 -0.53125 C 4.082031 -1.101562 3.140625 -1.890625 2.484375 -2.890625 C 1.835938 -3.898438 1.515625 -5.039062 1.515625 -6.3125 C 1.515625 -8.351562 2.28125 -9.957031 3.8125 -11.125 C 5.34375 -12.289062 7.710938 -12.875 10.921875 -12.875 L 15.984375 -12.875 C 15.984375 -14.269531 15.5625 -15.335938 14.71875 -16.078125 C 13.875 -16.828125 12.609375 -17.203125 10.921875 -17.203125 C 9.753906 -17.203125 8.601562 -17.019531 7.46875 -16.65625 C 6.34375 -16.289062 5.390625 -15.796875 4.609375 -15.171875 L 2.328125 -19.609375 C 3.523438 -20.453125 4.957031 -21.101562 6.625 -21.5625 C 8.289062 -22.03125 10.007812 -22.265625 11.78125 -22.265625 Z M 11.296875 -3.953125 C 12.378906 -3.953125 13.34375 -4.203125 14.1875 -4.703125 C 15.03125 -5.210938 15.628906 -5.957031 15.984375 -6.9375 L 15.984375 -9.171875 L 11.625 -9.171875 C 9.007812 -9.171875 7.703125 -8.316406 7.703125 -6.609375 C 7.703125 -5.785156 8.019531 -5.132812 8.65625 -4.65625 C 9.300781 -4.1875 10.179688 -3.953125 11.296875 -3.953125 Z M 11.296875 -3.953125 "/></g></g></g><g fill="#ffffff" fill-opacity="1"><g transform="translate(284.790943, 40.667914)"><g><path d="M 17.078125 -1.0625 C 16.453125 -0.59375 15.679688 -0.242188 14.765625 -0.015625 C 13.859375 0.210938 12.90625 0.328125 11.90625 0.328125 C 9.289062 0.328125 7.269531 -0.335938 5.84375 -1.671875 C 4.414062 -3.003906 3.703125 -4.960938 3.703125 -7.546875 L 3.703125 -16.546875 L 0.328125 -16.546875 L 0.328125 -21.4375 L 3.703125 -21.4375 L 3.703125 -26.78125 L 10.0625 -26.78125 L 10.0625 -21.4375 L 15.53125 -21.4375 L 15.53125 -16.546875 L 10.0625 -16.546875 L 10.0625 -7.625 C 10.0625 -6.695312 10.300781 -5.984375 10.78125 -5.484375 C 11.257812 -4.984375 11.929688 -4.734375 12.796875 -4.734375 C 13.804688 -4.734375 14.664062 -5.003906 15.375 -5.546875 Z M 17.078125 -1.0625 "/></g></g></g><g fill="#ffffff" fill-opacity="1"><g transform="translate(301.823698, 40.667914)"><g><path d="M 24.421875 -10.890625 C 24.421875 -10.804688 24.378906 -10.234375 24.296875 -9.171875 L 7.703125 -9.171875 C 8.003906 -7.816406 8.710938 -6.742188 9.828125 -5.953125 C 10.941406 -5.160156 12.328125 -4.765625 13.984375 -4.765625 C 15.117188 -4.765625 16.128906 -4.929688 17.015625 -5.265625 C 17.898438 -5.609375 18.722656 -6.148438 19.484375 -6.890625 L 22.875 -3.21875 C 20.800781 -0.851562 17.78125 0.328125 13.8125 0.328125 C 11.34375 0.328125 9.15625 -0.148438 7.25 -1.109375 C 5.351562 -2.078125 3.882812 -3.414062 2.84375 -5.125 C 1.8125 -6.84375 1.296875 -8.789062 1.296875 -10.96875 C 1.296875 -13.113281 1.804688 -15.046875 2.828125 -16.765625 C 3.847656 -18.492188 5.25 -19.84375 7.03125 -20.8125 C 8.8125 -21.78125 10.800781 -22.265625 13 -22.265625 C 15.144531 -22.265625 17.085938 -21.800781 18.828125 -20.875 C 20.566406 -19.945312 21.929688 -18.617188 22.921875 -16.890625 C 23.921875 -15.171875 24.421875 -13.171875 24.421875 -10.890625 Z M 13.046875 -17.453125 C 11.609375 -17.453125 10.398438 -17.039062 9.421875 -16.21875 C 8.441406 -15.40625 7.84375 -14.289062 7.625 -12.875 L 18.421875 -12.875 C 18.203125 -14.269531 17.601562 -15.378906 16.625 -16.203125 C 15.65625 -17.035156 14.460938 -17.453125 13.046875 -17.453125 Z M 13.046875 -17.453125 "/></g></g></g><g fill="#ffffff" fill-opacity="1"><g transform="translate(327.536274, 40.667914)"><g><path d="M 25.5625 -21.9375 L 25.5625 -3.671875 C 25.5625 0.347656 24.515625 3.335938 22.421875 5.296875 C 20.328125 7.253906 17.269531 8.234375 13.25 8.234375 C 11.125 8.234375 9.109375 7.972656 7.203125 7.453125 C 5.304688 6.941406 3.734375 6.195312 2.484375 5.21875 L 5.015625 0.65625 C 5.941406 1.414062 7.109375 2.019531 8.515625 2.46875 C 9.929688 2.914062 11.347656 3.140625 12.765625 3.140625 C 14.960938 3.140625 16.582031 2.640625 17.625 1.640625 C 18.675781 0.648438 19.203125 -0.847656 19.203125 -2.859375 L 19.203125 -3.796875 C 17.546875 -1.972656 15.234375 -1.0625 12.265625 -1.0625 C 10.253906 -1.0625 8.410156 -1.5 6.734375 -2.375 C 5.066406 -3.257812 3.742188 -4.503906 2.765625 -6.109375 C 1.785156 -7.710938 1.296875 -9.5625 1.296875 -11.65625 C 1.296875 -13.75 1.785156 -15.597656 2.765625 -17.203125 C 3.742188 -18.804688 5.066406 -20.050781 6.734375 -20.9375 C 8.410156 -21.820312 10.253906 -22.265625 12.265625 -22.265625 C 15.453125 -22.265625 17.875 -21.21875 19.53125 -19.125 L 19.53125 -21.9375 Z M 13.53125 -6.28125 C 15.21875 -6.28125 16.597656 -6.773438 17.671875 -7.765625 C 18.742188 -8.753906 19.28125 -10.050781 19.28125 -11.65625 C 19.28125 -13.257812 18.742188 -14.554688 17.671875 -15.546875 C 16.597656 -16.546875 15.21875 -17.046875 13.53125 -17.046875 C 11.84375 -17.046875 10.457031 -16.546875 9.375 -15.546875 C 8.289062 -14.554688 7.75 -13.257812 7.75 -11.65625 C 7.75 -10.050781 8.289062 -8.753906 9.375 -7.765625 C 10.457031 -6.773438 11.84375 -6.28125 13.53125 -6.28125 Z M 13.53125 -6.28125 "/></g></g></g><g fill="#ffffff" fill-opacity="1"><g transform="translate(356.060523, 40.667914)"><g><path d="M 2.9375 -21.9375 L 9.296875 -21.9375 L 9.296875 0 L 2.9375 0 Z M 6.109375 -24.984375 C 4.941406 -24.984375 3.988281 -25.320312 3.25 -26 C 2.519531 -26.6875 2.15625 -27.53125 2.15625 -28.53125 C 2.15625 -29.539062 2.519531 -30.382812 3.25 -31.0625 C 3.988281 -31.738281 4.941406 -32.078125 6.109375 -32.078125 C 7.273438 -32.078125 8.222656 -31.75 8.953125 -31.09375 C 9.691406 -30.445312 10.0625 -29.632812 10.0625 -28.65625 C 10.0625 -27.59375 9.691406 -26.710938 8.953125 -26.015625 C 8.222656 -25.328125 7.273438 -24.984375 6.109375 -24.984375 Z M 6.109375 -24.984375 "/></g></g></g><g fill="#ffffff" fill-opacity="1"><g transform="translate(368.325923, 40.667914)"><g><path d="M 10.3125 0.328125 C 8.488281 0.328125 6.707031 0.101562 4.96875 -0.34375 C 3.226562 -0.789062 1.84375 -1.351562 0.8125 -2.03125 L 2.9375 -6.609375 C 3.914062 -5.984375 5.097656 -5.472656 6.484375 -5.078125 C 7.867188 -4.679688 9.226562 -4.484375 10.5625 -4.484375 C 13.25 -4.484375 14.59375 -5.148438 14.59375 -6.484375 C 14.59375 -7.109375 14.222656 -7.554688 13.484375 -7.828125 C 12.753906 -8.097656 11.628906 -8.328125 10.109375 -8.515625 C 8.316406 -8.785156 6.832031 -9.097656 5.65625 -9.453125 C 4.488281 -9.804688 3.476562 -10.429688 2.625 -11.328125 C 1.769531 -12.222656 1.34375 -13.503906 1.34375 -15.171875 C 1.34375 -16.554688 1.742188 -17.785156 2.546875 -18.859375 C 3.347656 -19.929688 4.515625 -20.765625 6.046875 -21.359375 C 7.585938 -21.960938 9.40625 -22.265625 11.5 -22.265625 C 13.039062 -22.265625 14.578125 -22.09375 16.109375 -21.75 C 17.648438 -21.40625 18.925781 -20.9375 19.9375 -20.34375 L 17.8125 -15.8125 C 15.882812 -16.90625 13.78125 -17.453125 11.5 -17.453125 C 10.132812 -17.453125 9.113281 -17.257812 8.4375 -16.875 C 7.757812 -16.5 7.421875 -16.007812 7.421875 -15.40625 C 7.421875 -14.726562 7.785156 -14.253906 8.515625 -13.984375 C 9.253906 -13.710938 10.425781 -13.453125 12.03125 -13.203125 C 13.820312 -12.910156 15.285156 -12.59375 16.421875 -12.25 C 17.566406 -11.90625 18.5625 -11.285156 19.40625 -10.390625 C 20.25 -9.492188 20.671875 -8.242188 20.671875 -6.640625 C 20.671875 -5.285156 20.257812 -4.078125 19.4375 -3.015625 C 18.625 -1.953125 17.4375 -1.128906 15.875 -0.546875 C 14.3125 0.0351562 12.457031 0.328125 10.3125 0.328125 Z M 10.3125 0.328125 "/></g></g></g><g clip-path="url(#be6694ea20)"><g fill="#ffffff" fill-opacity="1"><g transform="translate(0.119574, 97.205185)"><g><path d="M 9.296875 -23.15625 L 0.15625 -23.15625 L 0.15625 -28.53125 L 25.03125 -28.53125 L 25.03125 -23.15625 L 15.90625 -23.15625 L 15.90625 0 L 9.296875 0 Z M 9.296875 -23.15625 "/></g></g></g></g><g fill="#ffffff" fill-opacity="1"><g transform="translate(24.201702, 97.205185)"><g><path d="M 11.78125 -22.265625 C 15.175781 -22.265625 17.785156 -21.453125 19.609375 -19.828125 C 21.429688 -18.210938 22.34375 -15.773438 22.34375 -12.515625 L 22.34375 0 L 16.390625 0 L 16.390625 -2.734375 C 15.191406 -0.691406 12.960938 0.328125 9.703125 0.328125 C 8.015625 0.328125 6.550781 0.0390625 5.3125 -0.53125 C 4.082031 -1.101562 3.140625 -1.890625 2.484375 -2.890625 C 1.835938 -3.898438 1.515625 -5.039062 1.515625 -6.3125 C 1.515625 -8.351562 2.28125 -9.957031 3.8125 -11.125 C 5.34375 -12.289062 7.710938 -12.875 10.921875 -12.875 L 15.984375 -12.875 C 15.984375 -14.269531 15.5625 -15.335938 14.71875 -16.078125 C 13.875 -16.828125 12.609375 -17.203125 10.921875 -17.203125 C 9.753906 -17.203125 8.601562 -17.019531 7.46875 -16.65625 C 6.34375 -16.289062 5.390625 -15.796875 4.609375 -15.171875 L 2.328125 -19.609375 C 3.523438 -20.453125 4.957031 -21.101562 6.625 -21.5625 C 8.289062 -22.03125 10.007812 -22.265625 11.78125 -22.265625 Z M 11.296875 -3.953125 C 12.378906 -3.953125 13.34375 -4.203125 14.1875 -4.703125 C 15.03125 -5.210938 15.628906 -5.957031 15.984375 -6.9375 L 15.984375 -9.171875 L 11.625 -9.171875 C 9.007812 -9.171875 7.703125 -8.316406 7.703125 -6.609375 C 7.703125 -5.785156 8.019531 -5.132812 8.65625 -4.65625 C 9.300781 -4.1875 10.179688 -3.953125 11.296875 -3.953125 Z M 11.296875 -3.953125 "/></g></g></g><g fill="#ffffff" fill-opacity="1"><g transform="translate(49.343783, 97.205185)"><g><path d="M 16.265625 -22.265625 C 18.984375 -22.265625 21.175781 -21.445312 22.84375 -19.8125 C 24.519531 -18.175781 25.359375 -15.757812 25.359375 -12.5625 L 25.359375 0 L 19 0 L 19 -11.578125 C 19 -13.316406 18.617188 -14.613281 17.859375 -15.46875 C 17.097656 -16.320312 15.992188 -16.75 14.546875 -16.75 C 12.941406 -16.75 11.664062 -16.253906 10.71875 -15.265625 C 9.769531 -14.273438 9.296875 -12.800781 9.296875 -10.84375 L 9.296875 0 L 2.9375 0 L 2.9375 -30.25 L 9.296875 -30.25 L 9.296875 -19.65625 C 10.140625 -20.488281 11.15625 -21.128906 12.34375 -21.578125 C 13.539062 -22.035156 14.847656 -22.265625 16.265625 -22.265625 Z M 16.265625 -22.265625 "/></g></g></g><g fill="#ffffff" fill-opacity="1"><g transform="translate(77.501296, 97.205185)"><g><path d="M 25.03125 -21.9375 L 25.03125 0 L 19 0 L 19 -2.609375 C 18.15625 -1.660156 17.148438 -0.929688 15.984375 -0.421875 C 14.816406 0.078125 13.550781 0.328125 12.1875 0.328125 C 9.3125 0.328125 7.03125 -0.5 5.34375 -2.15625 C 3.65625 -3.8125 2.8125 -6.273438 2.8125 -9.546875 L 2.8125 -21.9375 L 9.171875 -21.9375 L 9.171875 -10.484375 C 9.171875 -6.941406 10.648438 -5.171875 13.609375 -5.171875 C 15.140625 -5.171875 16.363281 -5.664062 17.28125 -6.65625 C 18.207031 -7.65625 18.671875 -9.132812 18.671875 -11.09375 L 18.671875 -21.9375 Z M 25.03125 -21.9375 "/></g></g></g><g fill="#ffffff" fill-opacity="1"><g transform="translate(105.495798, 97.205185)"><g><path d="M 16.265625 -22.265625 C 18.984375 -22.265625 21.175781 -21.445312 22.84375 -19.8125 C 24.519531 -18.175781 25.359375 -15.757812 25.359375 -12.5625 L 25.359375 0 L 19 0 L 19 -11.578125 C 19 -13.316406 18.617188 -14.613281 17.859375 -15.46875 C 17.097656 -16.320312 15.992188 -16.75 14.546875 -16.75 C 12.941406 -16.75 11.664062 -16.253906 10.71875 -15.265625 C 9.769531 -14.273438 9.296875 -12.800781 9.296875 -10.84375 L 9.296875 0 L 2.9375 0 L 2.9375 -21.9375 L 9.015625 -21.9375 L 9.015625 -19.359375 C 9.847656 -20.285156 10.890625 -21 12.140625 -21.5 C 13.390625 -22.007812 14.765625 -22.265625 16.265625 -22.265625 Z M 16.265625 -22.265625 "/></g></g></g><g fill="#ffffff" fill-opacity="1"><g transform="translate(133.653311, 97.205185)"><g/></g></g><g fill="#ffffff" fill-opacity="1"><g transform="translate(145.185259, 97.205185)"><g><path d="M 22.90625 -5.375 L 22.90625 0 L 1.34375 0 L 1.34375 -4.28125 L 12.359375 -14.671875 C 13.523438 -15.785156 14.3125 -16.742188 14.71875 -17.546875 C 15.125 -18.347656 15.328125 -19.144531 15.328125 -19.9375 C 15.328125 -21.070312 14.9375 -21.945312 14.15625 -22.5625 C 13.382812 -23.175781 12.253906 -23.484375 10.765625 -23.484375 C 9.515625 -23.484375 8.382812 -23.242188 7.375 -22.765625 C 6.375 -22.285156 5.53125 -21.570312 4.84375 -20.625 L 0.046875 -23.71875 C 1.160156 -25.382812 2.691406 -26.6875 4.640625 -27.625 C 6.597656 -28.5625 8.84375 -29.03125 11.375 -29.03125 C 13.488281 -29.03125 15.34375 -28.679688 16.9375 -27.984375 C 18.53125 -27.296875 19.765625 -26.316406 20.640625 -25.046875 C 21.523438 -23.785156 21.96875 -22.300781 21.96875 -20.59375 C 21.96875 -19.039062 21.640625 -17.582031 20.984375 -16.21875 C 20.335938 -14.863281 19.078125 -13.316406 17.203125 -11.578125 L 10.640625 -5.375 Z M 22.90625 -5.375 "/></g></g></g><g fill="#ffffff" fill-opacity="1"><g transform="translate(169.145583, 97.205185)"><g><path d="M 13.8125 0.484375 C 11.445312 0.484375 9.34375 -0.0976562 7.5 -1.265625 C 5.65625 -2.429688 4.207031 -4.117188 3.15625 -6.328125 C 2.113281 -8.546875 1.59375 -11.191406 1.59375 -14.265625 C 1.59375 -17.335938 2.113281 -19.976562 3.15625 -22.1875 C 4.207031 -24.40625 5.65625 -26.097656 7.5 -27.265625 C 9.34375 -28.441406 11.445312 -29.03125 13.8125 -29.03125 C 16.175781 -29.03125 18.28125 -28.441406 20.125 -27.265625 C 21.976562 -26.097656 23.425781 -24.40625 24.46875 -22.1875 C 25.519531 -19.976562 26.046875 -17.335938 26.046875 -14.265625 C 26.046875 -11.191406 25.519531 -8.546875 24.46875 -6.328125 C 23.425781 -4.117188 21.976562 -2.429688 20.125 -1.265625 C 18.28125 -0.0976562 16.175781 0.484375 13.8125 0.484375 Z M 13.8125 -5.09375 C 15.550781 -5.09375 16.914062 -5.835938 17.90625 -7.328125 C 18.90625 -8.828125 19.40625 -11.140625 19.40625 -14.265625 C 19.40625 -17.390625 18.90625 -19.695312 17.90625 -21.1875 C 16.914062 -22.6875 15.550781 -23.4375 13.8125 -23.4375 C 12.101562 -23.4375 10.753906 -22.6875 9.765625 -21.1875 C 8.773438 -19.695312 8.28125 -17.390625 8.28125 -14.265625 C 8.28125 -11.140625 8.773438 -8.828125 9.765625 -7.328125 C 10.753906 -5.835938 12.101562 -5.09375 13.8125 -5.09375 Z M 13.8125 -5.09375 "/></g></g></g><g fill="#ffffff" fill-opacity="1"><g transform="translate(196.569497, 97.205185)"><g><path d="M 22.90625 -5.375 L 22.90625 0 L 1.34375 0 L 1.34375 -4.28125 L 12.359375 -14.671875 C 13.523438 -15.785156 14.3125 -16.742188 14.71875 -17.546875 C 15.125 -18.347656 15.328125 -19.144531 15.328125 -19.9375 C 15.328125 -21.070312 14.9375 -21.945312 14.15625 -22.5625 C 13.382812 -23.175781 12.253906 -23.484375 10.765625 -23.484375 C 9.515625 -23.484375 8.382812 -23.242188 7.375 -22.765625 C 6.375 -22.285156 5.53125 -21.570312 4.84375 -20.625 L 0.046875 -23.71875 C 1.160156 -25.382812 2.691406 -26.6875 4.640625 -27.625 C 6.597656 -28.5625 8.84375 -29.03125 11.375 -29.03125 C 13.488281 -29.03125 15.34375 -28.679688 16.9375 -27.984375 C 18.53125 -27.296875 19.765625 -26.316406 20.640625 -25.046875 C 21.523438 -23.785156 21.96875 -22.300781 21.96875 -20.59375 C 21.96875 -19.039062 21.640625 -17.582031 20.984375 -16.21875 C 20.335938 -14.863281 19.078125 -13.316406 17.203125 -11.578125 L 10.640625 -5.375 Z M 22.90625 -5.375 "/></g></g></g><g fill="#ffffff" fill-opacity="1"><g transform="translate(220.529821, 97.205185)"><g><path d="M 15.328125 -17.890625 C 17.148438 -17.890625 18.804688 -17.519531 20.296875 -16.78125 C 21.796875 -16.050781 22.976562 -15.015625 23.84375 -13.671875 C 24.71875 -12.328125 25.15625 -10.773438 25.15625 -9.015625 C 25.15625 -7.109375 24.675781 -5.429688 23.71875 -3.984375 C 22.769531 -2.546875 21.472656 -1.441406 19.828125 -0.671875 C 18.179688 0.0976562 16.351562 0.484375 14.34375 0.484375 C 10.351562 0.484375 7.226562 -0.734375 4.96875 -3.171875 C 2.71875 -5.617188 1.59375 -9.113281 1.59375 -13.65625 C 1.59375 -16.882812 2.203125 -19.65625 3.421875 -21.96875 C 4.648438 -24.28125 6.359375 -26.035156 8.546875 -27.234375 C 10.734375 -28.429688 13.265625 -29.03125 16.140625 -29.03125 C 17.660156 -29.03125 19.117188 -28.859375 20.515625 -28.515625 C 21.921875 -28.171875 23.113281 -27.6875 24.09375 -27.0625 L 21.640625 -22.21875 C 20.234375 -23.164062 18.457031 -23.640625 16.3125 -23.640625 C 13.882812 -23.640625 11.960938 -22.929688 10.546875 -21.515625 C 9.140625 -20.109375 8.382812 -18.0625 8.28125 -15.375 C 9.957031 -17.050781 12.304688 -17.890625 15.328125 -17.890625 Z M 13.984375 -4.4375 C 15.398438 -4.4375 16.546875 -4.816406 17.421875 -5.578125 C 18.304688 -6.335938 18.75 -7.375 18.75 -8.6875 C 18.75 -9.988281 18.304688 -11.023438 17.421875 -11.796875 C 16.546875 -12.578125 15.375 -12.96875 13.90625 -12.96875 C 12.457031 -12.96875 11.269531 -12.566406 10.34375 -11.765625 C 9.425781 -10.960938 8.96875 -9.9375 8.96875 -8.6875 C 8.96875 -7.4375 9.414062 -6.414062 10.3125 -5.625 C 11.207031 -4.832031 12.429688 -4.4375 13.984375 -4.4375 Z M 13.984375 -4.4375 "/></g></g></g></g></g><g transform="matrix(1, 0, 0, 1, 304, 20)"><g clip-path="url(#ca825fc222)"><g fill="#0a457b" fill-opacity="1"><g transform="translate(0.940355, 66.940018)"><g><path d="M 20.015625 -31.359375 C 27.097656 -31.359375 32.328125 -29.945312 35.703125 -27.125 C 39.078125 -24.300781 40.765625 -20.519531 40.765625 -15.78125 C 40.765625 -12.726562 40 -9.941406 38.46875 -7.421875 C 36.9375 -4.910156 34.601562 -2.898438 31.46875 -1.390625 C 28.332031 0.109375 24.46875 0.859375 19.875 0.859375 C 16.332031 0.859375 12.851562 0.394531 9.4375 -0.53125 C 6.019531 -1.46875 3.113281 -2.796875 0.71875 -4.515625 L 5.3125 -13.421875 C 7.226562 -11.984375 9.425781 -10.867188 11.90625 -10.078125 C 14.394531 -9.296875 16.957031 -8.90625 19.59375 -8.90625 C 22.507812 -8.90625 24.804688 -9.476562 26.484375 -10.625 C 28.160156 -11.769531 29 -13.367188 29 -15.421875 C 29 -17.578125 28.125 -19.203125 26.375 -20.296875 C 24.625 -21.398438 21.597656 -21.953125 17.296875 -21.953125 L 4.453125 -21.953125 L 7.03125 -50.234375 L 37.671875 -50.234375 L 37.671875 -40.90625 L 16.71875 -40.90625 L 15.9375 -31.359375 Z M 20.015625 -31.359375 "/></g></g></g></g></g></svg>